<svg width="130" height="10" viewBox="0 0 130 10" fill="none" xmlns="http://www.w3.org/2000/svg">
<path d="M0.396 8.316L3.468 5.076C3.78 4.756 4.024 4.48 4.2 4.248C4.376 4.008 4.5 3.788 4.572 3.588C4.652 3.388 4.692 3.18 4.692 2.964C4.692 2.54 4.556 2.208 4.284 1.968C4.012 1.728 3.66 1.608 3.228 1.608C2.804 1.608 2.432 1.712 2.112 1.92C1.792 2.12 1.508 2.432 1.26 2.856L0.468 2.196C0.796 1.652 1.192 1.244 1.656 0.972C2.12 0.691999 2.656 0.551999 3.264 0.551999C3.776 0.551999 4.22 0.651999 4.596 0.852C4.98 1.052 5.276 1.332 5.484 1.692C5.692 2.052 5.796 2.472 5.796 2.952C5.796 3.296 5.752 3.604 5.664 3.876C5.584 4.148 5.436 4.428 5.22 4.716C5.012 4.996 4.72 5.332 4.344 5.724L1.86 8.28L0.396 8.316ZM0.396 9V8.316L1.356 7.992H5.988V9H0.396ZM10.6082 9.12C9.98419 9.12 9.41219 8.944 8.89219 8.592C8.38019 8.24 7.97219 7.744 7.66819 7.104C7.36419 6.456 7.21219 5.696 7.21219 4.824C7.21219 3.952 7.36019 3.196 7.65619 2.556C7.96019 1.916 8.36819 1.424 8.88019 1.08C9.39219 0.727999 9.95619 0.551999 10.5722 0.551999C11.2042 0.551999 11.7762 0.727999 12.2882 1.08C12.8002 1.424 13.2042 1.916 13.5002 2.556C13.8042 3.196 13.9562 3.956 13.9562 4.836C13.9562 5.708 13.8042 6.468 13.5002 7.116C13.2042 7.756 12.8002 8.252 12.2882 8.604C11.7842 8.948 11.2242 9.12 10.6082 9.12ZM10.5842 8.052C11.0242 8.052 11.4082 7.932 11.7362 7.692C12.0722 7.444 12.3362 7.08 12.5282 6.6C12.7202 6.12 12.8162 5.528 12.8162 4.824C12.8162 4.12 12.7202 3.532 12.5282 3.06C12.3362 2.58 12.0722 2.22 11.7362 1.98C11.4002 1.732 11.0122 1.608 10.5722 1.608C10.1402 1.608 9.75619 1.732 9.42019 1.98C9.08419 2.22 8.82019 2.58 8.62819 3.06C8.44419 3.532 8.35219 4.12 8.35219 4.824C8.35219 5.528 8.44419 6.12 8.62819 6.6C8.82019 7.08 9.08419 7.444 9.42019 7.692C9.75619 7.932 10.1442 8.052 10.5842 8.052ZM16.9592 3.924C16.6552 3.924 16.3752 3.848 16.1192 3.696C15.8632 3.544 15.6592 3.34 15.5072 3.084C15.3552 2.828 15.2792 2.544 15.2792 2.232C15.2792 1.912 15.3512 1.628 15.4952 1.38C15.6472 1.132 15.8512 0.932 16.1072 0.779999C16.3632 0.627999 16.6472 0.551999 16.9592 0.551999C17.2792 0.551999 17.5672 0.627999 17.8232 0.779999C18.0792 0.932 18.2832 1.132 18.4352 1.38C18.5872 1.628 18.6632 1.912 18.6632 2.232C18.6632 2.544 18.5872 2.828 18.4352 3.084C18.2832 3.34 18.0792 3.544 17.8232 3.696C17.5752 3.848 17.2872 3.924 16.9592 3.924ZM16.9592 3.072C17.1992 3.072 17.3952 2.996 17.5472 2.844C17.6992 2.684 17.7752 2.48 17.7752 2.232C17.7752 1.984 17.6952 1.784 17.5352 1.632C17.3832 1.48 17.1912 1.404 16.9592 1.404C16.7272 1.404 16.5352 1.48 16.3832 1.632C16.2392 1.784 16.1672 1.984 16.1672 2.232C16.1672 2.48 16.2392 2.684 16.3832 2.844C16.5352 2.996 16.7272 3.072 16.9592 3.072ZM20.3072 9.12C19.9952 9.12 19.7112 9.044 19.4552 8.892C19.1992 8.74 18.9952 8.54 18.8432 8.292C18.6912 8.036 18.6152 7.748 18.6152 7.428C18.6152 7.116 18.6912 6.836 18.8432 6.588C18.9952 6.332 19.1992 6.128 19.4552 5.976C19.7112 5.824 19.9952 5.748 20.3072 5.748C20.6192 5.748 20.9032 5.824 21.1592 5.976C21.4232 6.128 21.6312 6.332 21.7832 6.588C21.9352 6.836 22.0112 7.116 22.0112 7.428C22.0112 7.748 21.9352 8.036 21.7832 8.292C21.6312 8.54 21.4272 8.74 21.1712 8.892C20.9152 9.044 20.6272 9.12 20.3072 9.12ZM20.3072 8.268C20.5472 8.268 20.7432 8.192 20.8952 8.04C21.0472 7.88 21.1232 7.676 21.1232 7.428C21.1232 7.188 21.0432 6.992 20.8832 6.84C20.7312 6.68 20.5392 6.6 20.3072 6.6C20.0752 6.6 19.8832 6.68 19.7312 6.84C19.5792 6.992 19.5032 7.188 19.5032 7.428C19.5032 7.676 19.5792 7.88 19.7312 8.04C19.8832 8.192 20.0752 8.268 20.3072 8.268ZM15.4232 9L20.7632 0.672H21.8552L16.5152 9H15.4232Z" fill="#0BB63B"/>
<path d="M26.2012 9V3.3H27.2812V9H26.2012ZM27.2812 5.748L26.8732 5.568C26.8732 4.84 27.0412 4.26 27.3772 3.828C27.7132 3.396 28.1972 3.18 28.8292 3.18C29.1172 3.18 29.3772 3.232 29.6092 3.336C29.8412 3.432 30.0572 3.596 30.2572 3.828L29.5492 4.56C29.4292 4.432 29.2972 4.34 29.1532 4.284C29.0092 4.228 28.8412 4.2 28.6492 4.2C28.2492 4.2 27.9212 4.328 27.6652 4.584C27.4092 4.84 27.2812 5.228 27.2812 5.748ZM33.6261 9.12C33.0581 9.12 32.5461 8.992 32.0901 8.736C31.6341 8.472 31.2741 8.116 31.0101 7.668C30.7461 7.22 30.6141 6.712 30.6141 6.144C30.6141 5.584 30.7421 5.08 30.9981 4.632C31.2621 4.184 31.6141 3.832 32.0541 3.576C32.5021 3.312 33.0021 3.18 33.5541 3.18C34.0821 3.18 34.5461 3.3 34.9461 3.54C35.3541 3.78 35.6701 4.112 35.8941 4.536C36.1261 4.96 36.2421 5.44 36.2421 5.976C36.2421 6.056 36.2381 6.144 36.2301 6.24C36.2221 6.328 36.2061 6.432 36.1821 6.552H31.3701V5.652H35.6061L35.2101 6C35.2101 5.616 35.1421 5.292 35.0061 5.028C34.8701 4.756 34.6781 4.548 34.4301 4.404C34.1821 4.252 33.8821 4.176 33.5301 4.176C33.1621 4.176 32.8381 4.256 32.5581 4.416C32.2781 4.576 32.0621 4.8 31.9101 5.088C31.7581 5.376 31.6821 5.716 31.6821 6.108C31.6821 6.508 31.7621 6.86 31.9221 7.164C32.0821 7.46 32.3101 7.692 32.6061 7.86C32.9021 8.02 33.2421 8.1 33.6261 8.1C33.9461 8.1 34.2381 8.044 34.5021 7.932C34.7741 7.82 35.0061 7.652 35.1981 7.428L35.8941 8.136C35.6221 8.456 35.2861 8.7 34.8861 8.868C34.4941 9.036 34.0741 9.12 33.6261 9.12ZM38.2759 9V0.912H39.3559V9H38.2759ZM36.8719 4.284V3.3H40.7599V4.284H36.8719ZM44.2658 9.12C43.8018 9.12 43.3818 9.016 43.0058 8.808C42.6378 8.592 42.3498 8.296 42.1418 7.92C41.9338 7.544 41.8298 7.108 41.8298 6.612V3.3H42.9098V6.564C42.9098 6.876 42.9618 7.148 43.0658 7.38C43.1778 7.604 43.3378 7.776 43.5458 7.896C43.7538 8.016 43.9978 8.076 44.2778 8.076C44.7018 8.076 45.0338 7.944 45.2738 7.68C45.5138 7.408 45.6338 7.036 45.6338 6.564V3.3H46.7138V6.612C46.7138 7.108 46.6098 7.544 46.4018 7.92C46.1938 8.296 45.9058 8.592 45.5378 8.808C45.1778 9.016 44.7538 9.12 44.2658 9.12ZM48.3173 9V3.3H49.3973V9H48.3173ZM49.3973 5.748L48.9893 5.568C48.9893 4.84 49.1573 4.26 49.4933 3.828C49.8293 3.396 50.3133 3.18 50.9453 3.18C51.2333 3.18 51.4933 3.232 51.7253 3.336C51.9573 3.432 52.1733 3.596 52.3733 3.828L51.6653 4.56C51.5453 4.432 51.4133 4.34 51.2693 4.284C51.1253 4.228 50.9573 4.2 50.7653 4.2C50.3653 4.2 50.0373 4.328 49.7813 4.584C49.5253 4.84 49.3973 5.228 49.3973 5.748ZM57.3452 9V5.676C57.3452 5.244 57.2092 4.888 56.9372 4.608C56.6652 4.328 56.3132 4.188 55.8812 4.188C55.5932 4.188 55.3372 4.252 55.1132 4.38C54.8892 4.508 54.7132 4.684 54.5852 4.908C54.4572 5.132 54.3932 5.388 54.3932 5.676L53.9492 5.424C53.9492 4.992 54.0452 4.608 54.2372 4.272C54.4292 3.936 54.6972 3.672 55.0412 3.48C55.3852 3.28 55.7732 3.18 56.2052 3.18C56.6372 3.18 57.0172 3.288 57.3452 3.504C57.6812 3.72 57.9452 4.004 58.1372 4.356C58.3292 4.7 58.4252 5.068 58.4252 5.46V9H57.3452ZM53.3132 9V3.3H54.3932V9H53.3132ZM61.8554 9.12C61.5354 9.12 61.2314 9.08 60.9434 9C60.6634 8.912 60.4034 8.792 60.1634 8.64C59.9234 8.48 59.7154 8.292 59.5394 8.076L60.2354 7.38C60.4434 7.636 60.6834 7.828 60.9554 7.956C61.2274 8.076 61.5314 8.136 61.8674 8.136C62.2034 8.136 62.4634 8.08 62.6474 7.968C62.8314 7.848 62.9234 7.684 62.9234 7.476C62.9234 7.268 62.8474 7.108 62.6954 6.996C62.5514 6.876 62.3634 6.78 62.1314 6.708C61.8994 6.628 61.6514 6.552 61.3874 6.48C61.1314 6.4 60.8874 6.3 60.6554 6.18C60.4234 6.06 60.2314 5.896 60.0794 5.688C59.9354 5.48 59.8634 5.204 59.8634 4.86C59.8634 4.516 59.9474 4.22 60.1154 3.972C60.2834 3.716 60.5154 3.52 60.8114 3.384C61.1154 3.248 61.4794 3.18 61.9034 3.18C62.3514 3.18 62.7474 3.26 63.0914 3.42C63.4434 3.572 63.7314 3.804 63.9554 4.116L63.2594 4.812C63.0994 4.604 62.8994 4.444 62.6594 4.332C62.4274 4.22 62.1634 4.164 61.8674 4.164C61.5554 4.164 61.3154 4.22 61.1474 4.332C60.9874 4.436 60.9074 4.584 60.9074 4.776C60.9074 4.968 60.9794 5.116 61.1234 5.22C61.2674 5.324 61.4554 5.412 61.6874 5.484C61.9274 5.556 62.1754 5.632 62.4314 5.712C62.6874 5.784 62.9314 5.884 63.1634 6.012C63.3954 6.14 63.5834 6.312 63.7274 6.528C63.8794 6.744 63.9554 7.028 63.9554 7.38C63.9554 7.916 63.7634 8.34 63.3794 8.652C63.0034 8.964 62.4954 9.12 61.8554 9.12ZM67.9846 9V3.3H69.0646V9H67.9846ZM68.5246 2.16C68.3246 2.16 68.1606 2.096 68.0326 1.968C67.9046 1.832 67.8406 1.664 67.8406 1.464C67.8406 1.272 67.9046 1.112 68.0326 0.983999C68.1606 0.847999 68.3246 0.779999 68.5246 0.779999C68.7246 0.779999 68.8886 0.847999 69.0166 0.983999C69.1446 1.112 69.2086 1.272 69.2086 1.464C69.2086 1.664 69.1446 1.832 69.0166 1.968C68.8886 2.096 68.7246 2.16 68.5246 2.16ZM74.8442 9V5.676C74.8442 5.244 74.7082 4.888 74.4362 4.608C74.1642 4.328 73.8122 4.188 73.3802 4.188C73.0922 4.188 72.8362 4.252 72.6122 4.38C72.3882 4.508 72.2122 4.684 72.0842 4.908C71.9562 5.132 71.8922 5.388 71.8922 5.676L71.4482 5.424C71.4482 4.992 71.5442 4.608 71.7362 4.272C71.9282 3.936 72.1962 3.672 72.5402 3.48C72.8842 3.28 73.2722 3.18 73.7042 3.18C74.1362 3.18 74.5162 3.288 74.8442 3.504C75.1802 3.72 75.4442 4.004 75.6362 4.356C75.8282 4.7 75.9242 5.068 75.9242 5.46V9H74.8442ZM70.8122 9V3.3H71.8922V9H70.8122ZM82.7865 9.12C82.2345 9.12 81.7385 8.992 81.2985 8.736C80.8665 8.48 80.5225 8.136 80.2665 7.704C80.0105 7.272 79.8825 6.792 79.8825 6.264C79.8825 5.528 80.1385 4.796 80.6505 4.068L83.0985 0.672H84.4065L81.8985 4.092L81.4905 4.308C81.5865 4.14 81.7025 4 81.8385 3.888C81.9745 3.768 82.1425 3.676 82.3425 3.612C82.5425 3.548 82.7785 3.516 83.0505 3.516C83.5385 3.516 83.9785 3.632 84.3705 3.864C84.7705 4.096 85.0905 4.416 85.3305 4.824C85.5785 5.224 85.7025 5.692 85.7025 6.228C85.7025 6.756 85.5705 7.24 85.3065 7.68C85.0505 8.12 84.6985 8.472 84.2505 8.736C83.8105 8.992 83.3225 9.12 82.7865 9.12ZM82.7865 8.064C83.1225 8.064 83.4225 7.984 83.6865 7.824C83.9585 7.656 84.1705 7.436 84.3225 7.164C84.4825 6.884 84.5625 6.572 84.5625 6.228C84.5625 5.884 84.4825 5.576 84.3225 5.304C84.1705 5.024 83.9585 4.804 83.6865 4.644C83.4225 4.484 83.1225 4.404 82.7865 4.404C82.4505 4.404 82.1465 4.484 81.8745 4.644C81.6105 4.804 81.3985 5.024 81.2385 5.304C81.0865 5.576 81.0105 5.884 81.0105 6.228C81.0105 6.572 81.0865 6.884 81.2385 7.164C81.3985 7.444 81.6105 7.664 81.8745 7.824C82.1465 7.984 82.4505 8.064 82.7865 8.064ZM89.776 9V3.3H90.856V9H89.776ZM93.628 9V5.556C93.628 5.132 93.496 4.8 93.232 4.56C92.976 4.312 92.652 4.188 92.26 4.188C91.996 4.188 91.76 4.244 91.552 4.356C91.344 4.468 91.176 4.624 91.048 4.824C90.92 5.024 90.856 5.264 90.856 5.544L90.412 5.328C90.412 4.896 90.504 4.52 90.688 4.2C90.88 3.88 91.14 3.632 91.468 3.456C91.796 3.272 92.164 3.18 92.572 3.18C92.972 3.18 93.332 3.268 93.652 3.444C93.98 3.62 94.236 3.868 94.42 4.188C94.612 4.508 94.708 4.888 94.708 5.328V9H93.628ZM97.48 9V5.556C97.48 5.132 97.348 4.8 97.084 4.56C96.828 4.312 96.508 4.188 96.124 4.188C95.86 4.188 95.62 4.244 95.404 4.356C95.196 4.468 95.028 4.624 94.9 4.824C94.772 5.024 94.708 5.264 94.708 5.544L94.096 5.328C94.12 4.888 94.236 4.512 94.444 4.2C94.66 3.88 94.936 3.632 95.272 3.456C95.608 3.272 95.976 3.18 96.376 3.18C96.792 3.18 97.164 3.268 97.492 3.444C97.82 3.62 98.08 3.868 98.272 4.188C98.472 4.508 98.572 4.892 98.572 5.34V9H97.48ZM102.802 9.12C102.242 9.12 101.738 8.988 101.29 8.724C100.842 8.46 100.486 8.104 100.222 7.656C99.9577 7.2 99.8257 6.692 99.8257 6.132C99.8257 5.58 99.9577 5.084 100.222 4.644C100.486 4.196 100.842 3.84 101.29 3.576C101.738 3.312 102.242 3.18 102.802 3.18C103.354 3.18 103.854 3.312 104.302 3.576C104.758 3.832 105.118 4.184 105.382 4.632C105.646 5.08 105.778 5.58 105.778 6.132C105.778 6.692 105.646 7.2 105.382 7.656C105.118 8.104 104.758 8.46 104.302 8.724C103.854 8.988 103.354 9.12 102.802 9.12ZM102.802 8.076C103.162 8.076 103.482 7.992 103.762 7.824C104.042 7.656 104.262 7.428 104.422 7.14C104.582 6.844 104.662 6.508 104.662 6.132C104.662 5.764 104.578 5.436 104.41 5.148C104.25 4.86 104.03 4.636 103.75 4.476C103.478 4.308 103.162 4.224 102.802 4.224C102.442 4.224 102.122 4.308 101.842 4.476C101.562 4.636 101.342 4.86 101.182 5.148C101.022 5.436 100.942 5.764 100.942 6.132C100.942 6.508 101.022 6.844 101.182 7.14C101.342 7.428 101.562 7.656 101.842 7.824C102.122 7.992 102.442 8.076 102.802 8.076ZM111.183 9V5.676C111.183 5.244 111.047 4.888 110.775 4.608C110.503 4.328 110.151 4.188 109.719 4.188C109.431 4.188 109.175 4.252 108.951 4.38C108.727 4.508 108.551 4.684 108.423 4.908C108.295 5.132 108.231 5.388 108.231 5.676L107.787 5.424C107.787 4.992 107.883 4.608 108.075 4.272C108.267 3.936 108.535 3.672 108.879 3.48C109.223 3.28 109.611 3.18 110.043 3.18C110.475 3.18 110.855 3.288 111.183 3.504C111.519 3.72 111.783 4.004 111.975 4.356C112.167 4.7 112.263 5.068 112.263 5.46V9H111.183ZM107.151 9V3.3H108.231V9H107.151ZM114.686 9V0.912H115.766V9H114.686ZM113.282 4.284V3.3H117.17V4.284H113.282ZM122.416 9V5.676C122.416 5.244 122.28 4.888 122.008 4.608C121.736 4.328 121.384 4.188 120.952 4.188C120.664 4.188 120.408 4.252 120.184 4.38C119.96 4.508 119.784 4.684 119.656 4.908C119.528 5.132 119.464 5.388 119.464 5.676L119.02 5.424C119.02 4.992 119.116 4.608 119.308 4.272C119.5 3.936 119.768 3.672 120.112 3.48C120.456 3.28 120.844 3.18 121.276 3.18C121.708 3.18 122.088 3.276 122.416 3.468C122.752 3.66 123.016 3.928 123.208 4.272C123.4 4.616 123.496 5.012 123.496 5.46V9H122.416ZM118.384 9V0.431999H119.464V9H118.384ZM126.927 9.12C126.607 9.12 126.303 9.08 126.015 9C125.735 8.912 125.475 8.792 125.235 8.64C124.995 8.48 124.787 8.292 124.611 8.076L125.307 7.38C125.515 7.636 125.755 7.828 126.027 7.956C126.299 8.076 126.603 8.136 126.939 8.136C127.275 8.136 127.535 8.08 127.719 7.968C127.903 7.848 127.995 7.684 127.995 7.476C127.995 7.268 127.919 7.108 127.767 6.996C127.623 6.876 127.435 6.78 127.203 6.708C126.971 6.628 126.723 6.552 126.459 6.48C126.203 6.4 125.959 6.3 125.727 6.18C125.495 6.06 125.303 5.896 125.151 5.688C125.007 5.48 124.935 5.204 124.935 4.86C124.935 4.516 125.019 4.22 125.187 3.972C125.355 3.716 125.587 3.52 125.883 3.384C126.187 3.248 126.551 3.18 126.975 3.18C127.423 3.18 127.819 3.26 128.163 3.42C128.515 3.572 128.803 3.804 129.027 4.116L128.331 4.812C128.171 4.604 127.971 4.444 127.731 4.332C127.499 4.22 127.235 4.164 126.939 4.164C126.627 4.164 126.387 4.22 126.219 4.332C126.059 4.436 125.979 4.584 125.979 4.776C125.979 4.968 126.051 5.116 126.195 5.22C126.339 5.324 126.527 5.412 126.759 5.484C126.999 5.556 127.247 5.632 127.503 5.712C127.759 5.784 128.003 5.884 128.235 6.012C128.467 6.14 128.655 6.312 128.799 6.528C128.951 6.744 129.027 7.028 129.027 7.38C129.027 7.916 128.835 8.34 128.451 8.652C128.075 8.964 127.567 9.12 126.927 9.12Z" fill="#000019"/>
</svg>
