<svg width="92" height="92" viewBox="0 0 92 92" fill="none" xmlns="http://www.w3.org/2000/svg">
<path d="M29.3501 85.6254C28.7043 87.1624 29.4241 88.942 31.0002 89.4857C35.7454 91.1225 40.7331 91.9738 45.7661 91.9994C51.8069 92.0301 57.7945 90.8707 63.3872 88.5874C68.9798 86.3041 74.068 82.9416 78.3611 78.6919C81.9381 75.1511 84.9048 71.0522 87.1486 66.562C87.8938 65.0706 87.1624 63.2957 85.6254 62.6499C84.0883 62.004 82.3289 62.7329 81.5689 64.2168C79.6419 67.9793 77.1271 71.4182 74.1137 74.401C70.384 78.093 65.9637 81.0142 61.1051 82.9978C56.2465 84.9814 51.0447 85.9886 45.7968 85.962C41.5568 85.9404 37.3538 85.2443 33.3441 83.9055C31.7627 83.3775 29.996 84.0883 29.3501 85.6254Z" fill="#41E327"/>
<path d="M87.0431 58.7612C88.6352 59.2562 90.3373 58.3685 90.7269 56.7475C92.2943 50.2244 92.4188 43.4246 91.0761 36.8267C89.7333 30.2288 86.9613 24.0185 82.9691 18.6269C81.977 17.287 80.0632 17.1351 78.7913 18.213C77.5193 19.2908 77.3723 21.1895 78.3511 22.5392C81.6936 27.1483 84.0198 32.4287 85.1598 38.0307C86.2999 43.6327 86.2224 49.4022 84.9471 54.9512C84.5737 56.576 85.4511 58.2662 87.0431 58.7612Z" fill="#FAE579"/>
<path d="M15.6077 15.6077C14.4288 14.4288 12.509 14.4225 11.41 15.6762C7.2676 20.4014 4.12993 25.9338 2.20235 31.9371C-0.0334209 38.9002 -0.576772 46.296 0.617362 53.5111C1.8115 60.7261 4.7087 67.5525 9.06865 73.424C12.8276 78.4861 17.5805 82.7126 23.0243 85.8512C24.4687 86.6839 26.284 86.0595 27.0203 84.5637C27.7565 83.0678 27.1337 81.2682 25.6977 80.4212C21.1112 77.716 17.1025 74.1159 13.9159 69.8246C10.1282 64.7238 7.61125 58.7933 6.57385 52.5252C5.53645 46.2571 6.00848 39.832 7.9508 33.7829C9.58487 28.6937 12.2199 23.994 15.6903 19.9554C16.7768 18.6909 16.7866 16.7866 15.6077 15.6077Z" fill="#D220AB"/>
<path d="M76.3923 15.6077C77.5712 14.4288 77.5774 12.509 76.3238 11.4099C68.6925 4.71953 59.0364 0.720899 48.8509 0.0884273C38.6653 -0.544045 28.5887 2.22929 20.1884 7.92418C18.8084 8.85972 18.5771 10.7655 19.6011 12.0812C20.6251 13.3969 22.5161 13.6227 23.9053 12.7009C31.1364 7.90265 39.7606 5.57311 48.4767 6.11434C57.1928 6.65556 65.4625 10.0341 72.0445 15.6901C73.309 16.7767 75.2134 16.7866 76.3923 15.6077Z" fill="#B03B3B"/>
<path d="M36.056 42V33.744H36.932V42H36.056ZM36.632 42V41.196H41.492V42H36.632ZM36.632 38.16V37.38H41.108V38.16H36.632ZM36.632 34.548V33.744H41.42V34.548H36.632ZM45.2306 42V33.972H46.1186V42H45.2306ZM42.3266 34.548V33.744H49.0226V34.548H42.3266ZM53.7526 42.12C53.1606 42.12 52.6086 42.012 52.0966 41.796C51.5926 41.58 51.1526 41.276 50.7766 40.884C50.4006 40.492 50.1086 40.04 49.9006 39.528C49.7006 39.008 49.6006 38.452 49.6006 37.86C49.6006 37.268 49.7006 36.716 49.9006 36.204C50.1086 35.684 50.3966 35.232 50.7646 34.848C51.1406 34.464 51.5806 34.164 52.0846 33.948C52.5886 33.732 53.1326 33.624 53.7166 33.624C54.3486 33.624 54.9126 33.736 55.4086 33.96C55.9126 34.184 56.3526 34.492 56.7286 34.884L56.1286 35.484C55.8406 35.164 55.4926 34.916 55.0846 34.74C54.6766 34.556 54.2206 34.464 53.7166 34.464C53.2526 34.464 52.8246 34.548 52.4326 34.716C52.0486 34.884 51.7086 35.124 51.4126 35.436C51.1246 35.74 50.9006 36.1 50.7406 36.516C50.5886 36.924 50.5126 37.372 50.5126 37.86C50.5126 38.348 50.5926 38.8 50.7526 39.216C50.9126 39.632 51.1366 39.996 51.4246 40.308C51.7126 40.612 52.0526 40.848 52.4446 41.016C52.8366 41.184 53.2646 41.268 53.7286 41.268C54.2566 41.268 54.7246 41.176 55.1326 40.992C55.5486 40.808 55.9006 40.556 56.1886 40.236L56.7886 40.848C56.4206 41.24 55.9806 41.552 55.4686 41.784C54.9566 42.008 54.3846 42.12 53.7526 42.12Z" fill="#010101"/>
<path d="M35.456 57.46L38.516 54.268C38.868 53.892 39.14 53.576 39.332 53.32C39.532 53.064 39.668 52.832 39.74 52.624C39.82 52.408 39.86 52.184 39.86 51.952C39.86 51.48 39.712 51.112 39.416 50.848C39.12 50.576 38.728 50.44 38.24 50.44C37.792 50.44 37.4 50.548 37.064 50.764C36.728 50.972 36.428 51.288 36.164 51.712L35.552 51.172C35.872 50.668 36.256 50.284 36.704 50.02C37.152 49.756 37.672 49.624 38.264 49.624C38.76 49.624 39.192 49.72 39.56 49.912C39.936 50.104 40.224 50.376 40.424 50.728C40.632 51.08 40.736 51.492 40.736 51.964C40.736 52.292 40.692 52.592 40.604 52.864C40.516 53.128 40.36 53.408 40.136 53.704C39.92 53.992 39.612 54.344 39.212 54.76L36.62 57.424L35.456 57.46ZM35.456 58V57.46L36.176 57.208H40.94V58H35.456ZM45.5965 58.12C44.9885 58.12 44.4325 57.948 43.9285 57.604C43.4245 57.252 43.0205 56.756 42.7165 56.116C42.4205 55.476 42.2725 54.724 42.2725 53.86C42.2725 52.988 42.4205 52.24 42.7165 51.616C43.0125 50.984 43.4085 50.496 43.9045 50.152C44.4085 49.8 44.9645 49.624 45.5725 49.624C46.1885 49.624 46.7445 49.796 47.2405 50.14C47.7445 50.484 48.1445 50.976 48.4405 51.616C48.7365 52.248 48.8845 53 48.8845 53.872C48.8845 54.736 48.7365 55.488 48.4405 56.128C48.1445 56.768 47.7485 57.26 47.2525 57.604C46.7565 57.948 46.2045 58.12 45.5965 58.12ZM45.5725 57.292C46.0445 57.292 46.4605 57.16 46.8205 56.896C47.1885 56.624 47.4765 56.236 47.6845 55.732C47.8925 55.22 47.9965 54.596 47.9965 53.86C47.9965 53.132 47.8925 52.516 47.6845 52.012C47.4765 51.5 47.1885 51.112 46.8205 50.848C46.4605 50.584 46.0445 50.452 45.5725 50.452C45.1085 50.452 44.6925 50.584 44.3245 50.848C43.9645 51.112 43.6805 51.496 43.4725 52C43.2645 52.504 43.1605 53.124 43.1605 53.86C43.1605 54.596 43.2645 55.22 43.4725 55.732C43.6805 56.236 43.9645 56.624 44.3245 56.896C44.6925 57.16 45.1085 57.292 45.5725 57.292ZM52.0672 52.96C51.7632 52.96 51.4832 52.888 51.2272 52.744C50.9712 52.592 50.7672 52.392 50.6152 52.144C50.4632 51.888 50.3872 51.604 50.3872 51.292C50.3872 50.98 50.4632 50.7 50.6152 50.452C50.7672 50.196 50.9672 49.996 51.2152 49.852C51.4712 49.7 51.7552 49.624 52.0672 49.624C52.3792 49.624 52.6592 49.7 52.9072 49.852C53.1632 49.996 53.3672 50.196 53.5192 50.452C53.6712 50.7 53.7472 50.98 53.7472 51.292C53.7472 51.604 53.6712 51.888 53.5192 52.144C53.3752 52.392 53.1752 52.592 52.9192 52.744C52.6632 52.888 52.3792 52.96 52.0672 52.96ZM52.0552 52.276C52.3432 52.276 52.5752 52.184 52.7512 52C52.9352 51.816 53.0272 51.576 53.0272 51.28C53.0272 50.992 52.9312 50.76 52.7392 50.584C52.5552 50.4 52.3272 50.308 52.0552 50.308C51.7912 50.308 51.5672 50.4 51.3832 50.584C51.1992 50.76 51.1072 50.992 51.1072 51.28C51.1072 51.576 51.1992 51.816 51.3832 52C51.5672 52.184 51.7912 52.276 52.0552 52.276ZM55.2352 58.12C54.9312 58.12 54.6512 58.048 54.3952 57.904C54.1392 57.752 53.9352 57.548 53.7832 57.292C53.6312 57.036 53.5552 56.752 53.5552 56.44C53.5552 56.128 53.6312 55.848 53.7832 55.6C53.9352 55.352 54.1352 55.156 54.3832 55.012C54.6392 54.86 54.9232 54.784 55.2352 54.784C55.5472 54.784 55.8272 54.86 56.0752 55.012C56.3312 55.156 56.5352 55.352 56.6872 55.6C56.8392 55.848 56.9152 56.128 56.9152 56.44C56.9152 56.752 56.8392 57.036 56.6872 57.292C56.5432 57.548 56.3432 57.752 56.0872 57.904C55.8312 58.048 55.5472 58.12 55.2352 58.12ZM55.2232 57.436C55.5112 57.436 55.7472 57.344 55.9312 57.16C56.1152 56.976 56.2072 56.736 56.2072 56.44C56.2072 56.152 56.1112 55.92 55.9192 55.744C55.7272 55.56 55.4952 55.468 55.2232 55.468C54.9592 55.468 54.7352 55.56 54.5512 55.744C54.3672 55.92 54.2752 56.152 54.2752 56.44C54.2752 56.736 54.3672 56.976 54.5512 57.16C54.7352 57.344 54.9592 57.436 55.2232 57.436ZM50.5672 58L55.8712 49.744H56.7352L51.4432 58H50.5672Z" fill="#010101"/>
</svg>
