<svg width="48" height="48" viewBox="0 0 48 48" fill="none" xmlns="http://www.w3.org/2000/svg">
<path d="M8.07206 20.7262C8.74437 18.5374 10.0061 16.5757 11.7191 15.0562C10.7871 14.3112 11.7191 9.68023 11.7191 9.68023C11.7191 9.68023 15.4451 11.3302 16.1111 12.1022C16.1111 12.1022 18.9851 8.61523 27.3171 8.61523C35.6491 8.61523 43.5001 15.0572 43.5001 23.6542C43.5001 32.2512 37.2711 34.9932 37.2711 34.9932C36.9466 36.5101 36.4466 37.984 35.7811 39.3852H32.4801C31.9535 38.5751 31.4824 37.7301 31.0701 36.8562C31.0701 36.8562 28.4351 37.1762 26.5451 37.1762C25.2132 37.1491 23.8863 37.0066 22.5791 36.7502C22.4662 37.6865 22.148 38.5862 21.6471 39.3852H18.0541C16.9361 38.4272 16.3771 35.4192 16.3771 35.4192C16.3771 35.4192 7.32706 31.3202 5.41006 28.8702C4.37106 26.9272 4.50406 22.6152 4.50406 22.6152C5.51038 21.6885 6.73909 21.0374 8.07106 20.7252L8.07206 20.7262Z" stroke="#F18500" stroke-width="2" stroke-linecap="round" stroke-linejoin="round"/>
<path d="M19.5439 13.7788C21.6765 12.2456 24.268 11.4851 26.8909 11.6228C29.7567 11.5757 32.5598 12.4635 34.8759 14.1518" stroke="#F18500" stroke-width="2" stroke-linecap="round" stroke-linejoin="round"/>
<path d="M11.6121 22.0352C12.0263 22.0352 12.3621 21.6994 12.3621 21.2852C12.3621 20.8709 12.0263 20.5352 11.6121 20.5352C11.1978 20.5352 10.8621 20.8709 10.8621 21.2852C10.8621 21.6994 11.1978 22.0352 11.6121 22.0352Z" fill="#F18500"/>
</svg>
