<svg width="600" height="400" viewBox="0 0 600 400" fill="none" xmlns="http://www.w3.org/2000/svg">
<mask id="path-1-inside-1_202_21756" fill="white">
<path d="M0 0H600V400H0V0Z"/>
</mask>
<path d="M0 400H-1V401H0V400ZM600 399H0V401H600V399ZM1 400V0H-1V400H1Z" fill="#000019" mask="url(#path-1-inside-1_202_21756)"/>
<path d="M37 174C37 168.477 41.4772 164 47 164C52.5228 164 57 168.477 57 174V400H37V174Z" fill="#F3BA2F"/>
<path d="M117 330C117 324.477 121.477 320 127 320C132.523 320 137 324.477 137 330V400H117V330Z" fill="#F7931A"/>
<path d="M204 216C204 210.477 208.477 206 214 206C219.523 206 224 210.477 224 216V400H204V216Z" fill="#F19F13"/>
<path d="M290 132C290 126.477 294.477 122 300 122C305.523 122 310 126.477 310 132V400H290V132Z" fill="#6F41D8"/>
<path d="M377 216C377 210.477 381.477 206 387 206C392.523 206 397 210.477 397 216V400H377V216Z" fill="#328332"/>
</svg>
