<svg width="32" height="32" viewBox="0 0 32 32" fill="none" xmlns="http://www.w3.org/2000/svg">
<rect width="32" height="32" rx="8" fill="#000019"/>
<path d="M22.9225 9.74659C21.6558 9.16549 20.2844 8.74373 18.8557 8.50004C18.8432 8.49965 18.8308 8.50196 18.8192 8.50682C18.8077 8.51168 18.7974 8.51896 18.7891 8.52816C18.6176 8.83746 18.4176 9.24047 18.2843 9.54977C16.769 9.32483 15.228 9.32483 13.7127 9.54977C13.5794 9.2311 13.3794 8.83746 13.1984 8.52816C13.1889 8.50942 13.1604 8.50004 13.1318 8.50004C11.7032 8.74373 10.3412 9.16549 9.065 9.74659C9.05548 9.74659 9.04595 9.75596 9.03643 9.76534C6.44588 13.58 5.73158 17.2915 6.08397 20.9655C6.08397 20.9843 6.09349 21.003 6.11254 21.0124C7.82687 22.2496 9.47454 22.9994 11.1032 23.4961C11.1317 23.5055 11.1603 23.4961 11.1698 23.4774C11.5508 22.9619 11.8937 22.4183 12.1889 21.8465C12.2079 21.8091 12.1889 21.7716 12.1508 21.7622C11.6079 21.556 11.0936 21.3123 10.5889 21.0311C10.5508 21.0124 10.5508 20.9562 10.5793 20.928C10.6841 20.8531 10.7889 20.7687 10.8936 20.6937C10.9127 20.675 10.9412 20.675 10.9603 20.6844C14.2366 22.1558 17.77 22.1558 21.0082 20.6844C21.0272 20.675 21.0558 20.675 21.0749 20.6937C21.1796 20.7781 21.2844 20.8531 21.3891 20.9374C21.4272 20.9655 21.4272 21.0218 21.3796 21.0405C20.8844 21.3311 20.3605 21.5654 19.8177 21.7716C19.7796 21.7809 19.7701 21.8278 19.7796 21.8559C20.0844 22.4276 20.4272 22.9713 20.7987 23.4867C20.8272 23.4961 20.8558 23.5055 20.8844 23.4961C22.5225 22.9994 24.1702 22.2496 25.8845 21.0124C25.9036 21.003 25.9131 20.9843 25.9131 20.9655C26.3321 16.7198 25.2178 13.0364 22.9606 9.76534C22.9511 9.75596 22.9416 9.74659 22.9225 9.74659ZM12.6841 18.7255C11.7032 18.7255 10.8841 17.8351 10.8841 16.7385C10.8841 15.6419 11.6841 14.7515 12.6841 14.7515C13.6937 14.7515 14.4937 15.6513 14.4842 16.7385C14.4842 17.8351 13.6842 18.7255 12.6841 18.7255ZM19.3224 18.7255C18.3414 18.7255 17.5224 17.8351 17.5224 16.7385C17.5224 15.6419 18.3224 14.7515 19.3224 14.7515C20.332 14.7515 21.132 15.6513 21.1225 16.7385C21.1225 17.8351 20.332 18.7255 19.3224 18.7255Z" fill="#FFFFF0"/>
</svg>
