<svg width="36" height="36" viewBox="0 0 36 36" fill="none" xmlns="http://www.w3.org/2000/svg">
<g clip-path="url(#clip0_674_3484)">
<mask id="path-1-inside-1_674_3484" fill="white">
<path d="M24.7324 14.1328C24.3223 14.3555 23.9297 14.5957 23.5547 14.8535C23.1797 15.1113 22.8281 15.4043 22.5 15.7324V15.4512L18 12.8848L13.5 15.4512V20.5488L18 23.1152L19.7227 22.1309C19.7227 22.1895 19.7168 22.248 19.7051 22.3066C19.6934 22.3652 19.6875 22.4297 19.6875 22.5C19.6875 22.8516 19.7109 23.2031 19.7578 23.5547C19.8047 23.9062 19.875 24.252 19.9688 24.5918L18 25.7168L11.25 21.8496V14.1504L18 10.2832L24.7324 14.1328ZM4.5 10.3008V25.6992L14.6777 31.5C14.3848 31.8047 14.1211 32.0801 13.8867 32.3262C13.6523 32.5723 13.4473 32.8945 13.2715 33.293L2.25 27V9L18 0L33.75 9V14.1152C33.0352 13.7168 32.2852 13.4238 31.5 13.2363V10.3008L18 2.58398L4.5 10.3008ZM29.25 15.75C30.1758 15.75 31.0488 15.9258 31.8691 16.2773C32.6895 16.6289 33.4043 17.1094 34.0137 17.7188C34.623 18.3281 35.1094 19.0488 35.4727 19.8809C35.8359 20.7129 36.0117 21.5859 36 22.5C36 23.4375 35.8242 24.3105 35.4727 25.1191C35.1211 25.9277 34.6406 26.6426 34.0312 27.2637C33.4219 27.8848 32.7012 28.3711 31.8691 28.7227C31.0371 29.0742 30.1641 29.25 29.25 29.25C28.5469 29.25 27.8613 29.1445 27.1934 28.9336C26.5254 28.7227 25.9102 28.4121 25.3477 28.002L17.666 35.666C17.4434 35.8887 17.1797 36 16.875 36C16.5703 36 16.3066 35.8887 16.084 35.666C15.8613 35.4434 15.75 35.1797 15.75 34.875C15.75 34.5703 15.8613 34.3066 16.084 34.084L23.748 26.4023C23.3379 25.8398 23.0273 25.2246 22.8164 24.5566C22.6055 23.8887 22.5 23.2031 22.5 22.5C22.5 21.5742 22.6758 20.7012 23.0273 19.8809C23.3789 19.0605 23.8594 18.3457 24.4688 17.7363C25.0781 17.127 25.793 16.6406 26.6133 16.2773C27.4336 15.9141 28.3125 15.7383 29.25 15.75ZM29.25 27C29.8711 27 30.4512 26.8828 30.9902 26.6484C31.5293 26.4141 32.0098 26.0918 32.4316 25.6816C32.8535 25.2715 33.1758 24.7969 33.3984 24.2578C33.6211 23.7188 33.7383 23.1328 33.75 22.5C33.75 21.8789 33.6328 21.2988 33.3984 20.7598C33.1641 20.2207 32.8418 19.7402 32.4316 19.3184C32.0215 18.8965 31.5469 18.5742 31.0078 18.3516C30.4688 18.1289 29.8828 18.0117 29.25 18C28.6289 18 28.0488 18.1172 27.5098 18.3516C26.9707 18.5859 26.4902 18.9082 26.0684 19.3184C25.6465 19.7285 25.3242 20.2031 25.1016 20.7422C24.8789 21.2812 24.7617 21.8672 24.75 22.5C24.75 23.1211 24.8672 23.7012 25.1016 24.2402C25.3359 24.7793 25.6582 25.2598 26.0684 25.6816C26.4785 26.1035 26.9531 26.4258 27.4922 26.6484C28.0312 26.8711 28.6172 26.9883 29.25 27Z"/>
</mask>
<path d="M24.7324 14.1328C24.3223 14.3555 23.9297 14.5957 23.5547 14.8535C23.1797 15.1113 22.8281 15.4043 22.5 15.7324V15.4512L18 12.8848L13.5 15.4512V20.5488L18 23.1152L19.7227 22.1309C19.7227 22.1895 19.7168 22.248 19.7051 22.3066C19.6934 22.3652 19.6875 22.4297 19.6875 22.5C19.6875 22.8516 19.7109 23.2031 19.7578 23.5547C19.8047 23.9062 19.875 24.252 19.9688 24.5918L18 25.7168L11.25 21.8496V14.1504L18 10.2832L24.7324 14.1328ZM4.5 10.3008V25.6992L14.6777 31.5C14.3848 31.8047 14.1211 32.0801 13.8867 32.3262C13.6523 32.5723 13.4473 32.8945 13.2715 33.293L2.25 27V9L18 0L33.75 9V14.1152C33.0352 13.7168 32.2852 13.4238 31.5 13.2363V10.3008L18 2.58398L4.5 10.3008ZM29.25 15.75C30.1758 15.75 31.0488 15.9258 31.8691 16.2773C32.6895 16.6289 33.4043 17.1094 34.0137 17.7188C34.623 18.3281 35.1094 19.0488 35.4727 19.8809C35.8359 20.7129 36.0117 21.5859 36 22.5C36 23.4375 35.8242 24.3105 35.4727 25.1191C35.1211 25.9277 34.6406 26.6426 34.0312 27.2637C33.4219 27.8848 32.7012 28.3711 31.8691 28.7227C31.0371 29.0742 30.1641 29.25 29.25 29.25C28.5469 29.25 27.8613 29.1445 27.1934 28.9336C26.5254 28.7227 25.9102 28.4121 25.3477 28.002L17.666 35.666C17.4434 35.8887 17.1797 36 16.875 36C16.5703 36 16.3066 35.8887 16.084 35.666C15.8613 35.4434 15.75 35.1797 15.75 34.875C15.75 34.5703 15.8613 34.3066 16.084 34.084L23.748 26.4023C23.3379 25.8398 23.0273 25.2246 22.8164 24.5566C22.6055 23.8887 22.5 23.2031 22.5 22.5C22.5 21.5742 22.6758 20.7012 23.0273 19.8809C23.3789 19.0605 23.8594 18.3457 24.4688 17.7363C25.0781 17.127 25.793 16.6406 26.6133 16.2773C27.4336 15.9141 28.3125 15.7383 29.25 15.75ZM29.25 27C29.8711 27 30.4512 26.8828 30.9902 26.6484C31.5293 26.4141 32.0098 26.0918 32.4316 25.6816C32.8535 25.2715 33.1758 24.7969 33.3984 24.2578C33.6211 23.7188 33.7383 23.1328 33.75 22.5C33.75 21.8789 33.6328 21.2988 33.3984 20.7598C33.1641 20.2207 32.8418 19.7402 32.4316 19.3184C32.0215 18.8965 31.5469 18.5742 31.0078 18.3516C30.4688 18.1289 29.8828 18.0117 29.25 18C28.6289 18 28.0488 18.1172 27.5098 18.3516C26.9707 18.5859 26.4902 18.9082 26.0684 19.3184C25.6465 19.7285 25.3242 20.2031 25.1016 20.7422C24.8789 21.2812 24.7617 21.8672 24.75 22.5C24.75 23.1211 24.8672 23.7012 25.1016 24.2402C25.3359 24.7793 25.6582 25.2598 26.0684 25.6816C26.4785 26.1035 26.9531 26.4258 27.4922 26.6484C28.0312 26.8711 28.6172 26.9883 29.25 27Z" fill="#F18500"/>
<path d="M24.7324 14.1328L26.1637 16.7694L30.8952 14.2009L26.2216 11.5285L24.7324 14.1328ZM22.5 15.7324H19.5V22.9751L24.6213 17.8537L22.5 15.7324ZM22.5 15.4512H25.5V13.7085L23.9862 12.8452L22.5 15.4512ZM18 12.8848L19.4862 10.2788L18 9.43117L16.5138 10.2788L18 12.8848ZM13.5 15.4512L12.0138 12.8452L10.5 13.7085V15.4512H13.5ZM13.5 20.5488H10.5V22.2915L12.0138 23.1548L13.5 20.5488ZM18 23.1152L16.5138 25.7212L18.0015 26.5697L19.4884 25.72L18 23.1152ZM19.7227 22.1309H22.7227V16.9613L18.2342 19.5261L19.7227 22.1309ZM19.9688 24.5918L21.4572 27.1965L23.4804 26.0404L22.8607 23.794L19.9688 24.5918ZM18 25.7168L16.5087 28.3199L17.9981 29.1732L19.4884 28.3215L18 25.7168ZM11.25 21.8496H8.25V23.5883L9.75866 24.4527L11.25 21.8496ZM11.25 14.1504L9.75866 11.5473L8.25 12.4117V14.1504H11.25ZM18 10.2832L19.4891 7.67889L17.9985 6.82656L16.5087 7.68014L18 10.2832ZM4.5 10.3008L3.01122 7.69626L1.5 8.56009V10.3008H4.5ZM4.5 25.6992H1.5V27.4424L3.01449 28.3056L4.5 25.6992ZM14.6777 31.5L16.8402 33.5793L19.511 30.8017L16.1632 28.8936L14.6777 31.5ZM13.2715 33.293L11.784 35.8982L14.6733 37.5479L16.0162 34.5039L13.2715 33.293ZM2.25 27H-0.75V28.7417L0.762478 29.6052L2.25 27ZM2.25 9L0.761583 6.39527L-0.75 7.25903V9H2.25ZM18 0L19.4884 -2.60473L18 -3.45525L16.5116 -2.60473L18 0ZM33.75 9H36.75V7.25903L35.2384 6.39527L33.75 9ZM33.75 14.1152L32.2894 16.7357L36.75 19.2219V14.1152H33.75ZM31.5 13.2363H28.5V15.6043L30.8032 16.1543L31.5 13.2363ZM31.5 10.3008H34.5V8.56009L32.9888 7.69626L31.5 10.3008ZM18 2.58398L19.4888 -0.0205363L18 -0.871546L16.5112 -0.0205363L18 2.58398ZM29.25 15.75L29.2125 18.7498L29.2313 18.75H29.25V15.75ZM36 22.5L33.0002 22.4615L33 22.4808V22.5H36ZM25.3477 28.002L27.1152 25.5779L25.0437 24.0675L23.2288 25.8782L25.3477 28.002ZM17.666 35.666L15.5471 33.5423L15.5447 33.5447L17.666 35.666ZM16.084 34.084L18.2053 36.2053L18.2077 36.2029L16.084 34.084ZM23.748 26.4023L25.8718 28.5212L27.6825 26.7063L26.1721 24.6348L23.748 26.4023ZM29.25 27L29.1945 29.9995L29.2222 30H29.25V27ZM33.75 22.5L36.7495 22.5555L36.75 22.5278V22.5H33.75ZM29.25 18L29.3055 15.0005L29.2778 15H29.25V18ZM24.75 22.5L21.7505 22.4445L21.75 22.4722V22.5H24.75ZM23.3011 11.4963C22.8011 11.7677 22.3188 12.0626 21.8551 12.3814L25.2543 17.3256C25.5406 17.1288 25.8434 16.9432 26.1637 16.7694L23.3011 11.4963ZM21.8551 12.3814C21.3262 12.745 20.8338 13.156 20.3787 13.6111L24.6213 17.8537C24.8224 17.6526 25.0332 17.4776 25.2543 17.3256L21.8551 12.3814ZM25.5 15.7324V15.4512H19.5V15.7324H25.5ZM23.9862 12.8452L19.4862 10.2788L16.5138 15.4907L21.0138 18.0572L23.9862 12.8452ZM16.5138 10.2788L12.0138 12.8452L14.9862 18.0572L19.4862 15.4907L16.5138 10.2788ZM10.5 15.4512V20.5488H16.5V15.4512H10.5ZM12.0138 23.1548L16.5138 25.7212L19.4862 20.5093L14.9862 17.9428L12.0138 23.1548ZM19.4884 25.72L21.2111 24.7356L18.2342 19.5261L16.5116 20.5105L19.4884 25.72ZM16.7227 22.1309C16.7227 21.988 16.7371 21.8496 16.7633 21.7183L22.6468 22.895C22.6965 22.6465 22.7227 22.3909 22.7227 22.1309H16.7227ZM16.7633 21.7183C16.7068 22.001 16.6875 22.2658 16.6875 22.5H22.6875C22.6875 22.5936 22.6799 22.7295 22.6468 22.895L16.7633 21.7183ZM16.6875 22.5C16.6875 22.9853 16.7199 23.4693 16.7841 23.9512L22.7315 23.1582C22.702 22.9369 22.6875 22.7178 22.6875 22.5H16.6875ZM16.7841 23.9512C16.849 24.4374 16.9465 24.9172 17.0768 25.3896L22.8607 23.794C22.8035 23.5867 22.7604 23.3751 22.7315 23.1582L16.7841 23.9512ZM18.4803 21.9871L16.5116 23.1121L19.4884 28.3215L21.4572 27.1965L18.4803 21.9871ZM19.4913 23.1137L12.7413 19.2465L9.75866 24.4527L16.5087 28.3199L19.4913 23.1137ZM14.25 21.8496V14.1504H8.25V21.8496H14.25ZM12.7413 16.7535L19.4913 12.8863L16.5087 7.68014L9.75866 11.5473L12.7413 16.7535ZM16.5109 12.8875L23.2433 16.7371L26.2216 11.5285L19.4891 7.67889L16.5109 12.8875ZM1.5 10.3008V25.6992H7.5V10.3008H1.5ZM3.01449 28.3056L13.1922 34.1064L16.1632 28.8936L5.98551 23.0928L3.01449 28.3056ZM12.5152 29.4207C12.2197 29.728 11.9527 30.0069 11.7143 30.2572L16.0591 34.3951C16.2895 34.1532 16.5498 33.8814 16.8402 33.5793L12.5152 29.4207ZM11.7143 30.2572C11.1845 30.8135 10.8049 31.4516 10.5267 32.082L16.0162 34.5039C16.0513 34.4243 16.0771 34.3803 16.0881 34.3631C16.0989 34.3461 16.0913 34.3613 16.0591 34.3951L11.7143 30.2572ZM14.759 30.6877L3.73752 24.3948L0.762478 29.6052L11.784 35.8982L14.759 30.6877ZM5.25 27V9H-0.75V27H5.25ZM3.73842 11.6047L19.4884 2.60473L16.5116 -2.60473L0.761583 6.39527L3.73842 11.6047ZM16.5116 2.60473L32.2616 11.6047L35.2384 6.39527L19.4884 -2.60473L16.5116 2.60473ZM30.75 9V14.1152H36.75V9H30.75ZM35.2106 11.4948C34.2593 10.9646 33.2527 10.5705 32.1968 10.3184L30.8032 16.1543C31.3176 16.2771 31.811 16.469 32.2894 16.7357L35.2106 11.4948ZM34.5 13.2363V10.3008H28.5V13.2363H34.5ZM32.9888 7.69626L19.4888 -0.0205363L16.5112 5.18851L30.0112 12.9053L32.9888 7.69626ZM16.5112 -0.0205363L3.01122 7.69626L5.98878 12.9053L19.4888 5.18851L16.5112 -0.0205363ZM29.25 18.75C29.785 18.75 30.2545 18.8493 30.6874 19.0348L33.0509 13.5199C31.8432 13.0023 30.5666 12.75 29.25 12.75V18.75ZM30.6874 19.0348C31.1696 19.2415 31.5625 19.5102 31.8924 19.8401L36.135 15.5974C35.2461 14.7086 34.2093 14.0164 33.0509 13.5199L30.6874 19.0348ZM31.8924 19.8401C32.2227 20.1704 32.5019 20.5741 32.7233 21.0813L38.222 18.6804C37.7169 17.5235 37.0234 16.4858 36.135 15.5974L31.8924 19.8401ZM32.7233 21.0813C32.9149 21.5201 33.0065 21.9705 33.0002 22.4615L38.9998 22.5385C39.0169 21.2014 38.757 19.9057 38.222 18.6804L32.7233 21.0813ZM33 22.5C33 23.0524 32.8987 23.5153 32.7214 23.923L38.2239 26.3153C38.7498 25.1058 39 23.8226 39 22.5H33ZM32.7214 23.923C32.5141 24.3998 32.2389 24.8069 31.8898 25.1626L36.1727 29.3647C37.0424 28.4783 37.7281 27.4557 38.2239 26.3153L32.7214 23.923ZM31.8898 25.1626C31.5687 25.49 31.1825 25.756 30.7015 25.9592L33.0368 31.4861C34.2198 30.9862 35.2751 30.2796 36.1727 29.3647L31.8898 25.1626ZM30.7015 25.9592C30.2435 26.1528 29.7679 26.25 29.25 26.25V32.25C30.5602 32.25 31.8308 31.9957 33.0368 31.4861L30.7015 25.9592ZM29.25 26.25C28.8522 26.25 28.4714 26.1911 28.0968 26.0728L26.29 31.7943C27.2513 32.0979 28.2416 32.25 29.25 32.25V26.25ZM28.0968 26.0728C27.7366 25.9591 27.4135 25.7955 27.1152 25.5779L23.5801 30.426C24.4068 31.0287 25.3142 31.4862 26.29 31.7943L28.0968 26.0728ZM23.2288 25.8782L15.5471 33.5423L19.7849 37.7898L27.4665 30.1257L23.2288 25.8782ZM15.5447 33.5447C15.6796 33.4098 15.8754 33.2621 16.1344 33.1528C16.3952 33.0426 16.6527 33 16.875 33V39C18.0046 39 19.0231 38.5516 19.7873 37.7873L15.5447 33.5447ZM16.875 33C17.0973 33 17.3548 33.0426 17.6156 33.1528C17.8746 33.2621 18.0704 33.4098 18.2053 33.5447L13.9627 37.7873C14.7269 38.5516 15.7454 39 16.875 39V33ZM18.2053 33.5447C18.3402 33.6796 18.4879 33.8754 18.5972 34.1344C18.7074 34.3952 18.75 34.6527 18.75 34.875H12.75C12.75 36.0046 13.1984 37.0231 13.9627 37.7873L18.2053 33.5447ZM18.75 34.875C18.75 35.0973 18.7074 35.3548 18.5972 35.6156C18.4879 35.8746 18.3402 36.0704 18.2053 36.2053L13.9627 31.9627C13.1984 32.7269 12.75 33.7454 12.75 34.875H18.75ZM18.2077 36.2029L25.8718 28.5212L21.6243 24.2835L13.9602 31.9651L18.2077 36.2029ZM26.1721 24.6348C25.9545 24.3365 25.7909 24.0134 25.6772 23.6532L19.9557 25.46C20.2638 26.4358 20.7213 27.3432 21.324 28.1699L26.1721 24.6348ZM25.6772 23.6532C25.5589 23.2786 25.5 22.8978 25.5 22.5H19.5C19.5 23.5084 19.6521 24.4987 19.9557 25.46L25.6772 23.6532ZM25.5 22.5C25.5 21.965 25.5993 21.4955 25.7848 21.0626L20.2699 18.6991C19.7523 19.9068 19.5 21.1834 19.5 22.5H25.5ZM25.7848 21.0626C25.9915 20.5804 26.2602 20.1875 26.5901 19.8576L22.3474 15.615C21.4586 16.5039 20.7664 17.5407 20.2699 18.6991L25.7848 21.0626ZM26.5901 19.8576C26.9275 19.5203 27.3316 19.2403 27.8281 19.0204L25.3985 13.5343C24.2544 14.041 23.2288 14.7337 22.3474 15.615L26.5901 19.8576ZM27.8281 19.0204C28.2365 18.8395 28.6861 18.7432 29.2125 18.7498L29.2875 12.7502C27.9389 12.7334 26.6307 12.9886 25.3985 13.5343L27.8281 19.0204ZM29.25 30C30.2589 30 31.2488 29.8073 32.1864 29.3996L29.7941 23.8972C29.6536 23.9583 29.4832 24 29.25 24V30ZM32.1864 29.3996C33.058 29.0207 33.8416 28.495 34.5229 27.8326L30.3404 23.5307C30.1779 23.6886 30.0006 23.8074 29.7941 23.8972L32.1864 29.3996ZM34.5229 27.8326C35.2355 27.1398 35.7909 26.3238 36.1712 25.4031L30.6257 23.1125C30.5606 23.27 30.4716 23.4031 30.3404 23.5307L34.5229 27.8326ZM36.1712 25.4031C36.5485 24.4897 36.7314 23.5305 36.7495 22.5555L30.7505 22.4445C30.7451 22.7351 30.6937 22.9478 30.6257 23.1125L36.1712 25.4031ZM36.75 22.5C36.75 21.4911 36.5573 20.5012 36.1496 19.5636L30.6472 21.9559C30.7083 22.0964 30.75 22.2668 30.75 22.5H36.75ZM36.1496 19.5636C35.7707 18.692 35.245 17.9084 34.5826 17.2271L30.2807 21.4096C30.4386 21.5721 30.5574 21.7494 30.6472 21.9559L36.1496 19.5636ZM34.5826 17.2271C33.8898 16.5145 33.0738 15.9591 32.1531 15.5788L29.8625 21.1243C30.02 21.1894 30.1531 21.2784 30.2807 21.4096L34.5826 17.2271ZM32.1531 15.5788C31.2397 15.2015 30.2805 15.0186 29.3055 15.0005L29.1945 20.9995C29.4851 21.0049 29.6978 21.0563 29.8625 21.1243L32.1531 15.5788ZM29.25 15C28.2411 15 27.2512 15.1927 26.3136 15.6004L28.7059 21.1028C28.8464 21.0417 29.0168 21 29.25 21V15ZM26.3136 15.6004C25.442 15.9793 24.6584 16.505 23.9771 17.1674L28.1596 21.4693C28.3221 21.3114 28.4994 21.1926 28.7059 21.1028L26.3136 15.6004ZM23.9771 17.1674C23.2645 17.8602 22.7091 18.6762 22.3288 19.5969L27.8743 21.8875C27.9394 21.73 28.0284 21.5969 28.1596 21.4693L23.9771 17.1674ZM22.3288 19.5969C21.9515 20.5103 21.7686 21.4695 21.7505 22.4445L27.7495 22.5555C27.7549 22.2649 27.8063 22.0522 27.8743 21.8875L22.3288 19.5969ZM21.75 22.5C21.75 23.5089 21.9427 24.4988 22.3504 25.4364L27.8528 23.0441C27.7917 22.9036 27.75 22.7332 27.75 22.5H21.75ZM22.3504 25.4364C22.7293 26.308 23.255 27.0916 23.9174 27.7729L28.2193 23.5904C28.0614 23.4279 27.9426 23.2506 27.8528 23.0441L22.3504 25.4364ZM23.9174 27.7729C24.6102 28.4855 25.4262 29.0409 26.3469 29.4212L28.6375 23.8757C28.48 23.8106 28.3469 23.7216 28.2193 23.5904L23.9174 27.7729ZM26.3469 29.4212C27.2603 29.7985 28.2195 29.9814 29.1945 29.9995L29.3055 24.0005C29.0149 23.9951 28.8022 23.9437 28.6375 23.8757L26.3469 29.4212Z" fill="#F18500" mask="url(#path-1-inside-1_674_3484)"/>
</g>
<defs>
<clipPath id="clip0_674_3484">
<rect width="36" height="36" fill="white"/>
</clipPath>
</defs>
</svg>
