<svg width="62" height="62" viewBox="0 0 62 62" fill="none" xmlns="http://www.w3.org/2000/svg">
<rect x="1" y="1" width="60" height="60" rx="20" stroke="black" stroke-width="2"/>
<path d="M29.425 14.2525L15.8538 19.8438V33.625C15.8538 41.01 31 48.0625 31 48.0625C31 48.0625 46.1463 41.01 46.1463 33.625V19.8438L32.575 14.2525C32.076 14.0446 31.5407 13.9375 31 13.9375C30.4594 13.9375 29.9241 14.0446 29.425 14.2525Z" stroke="#000019" stroke-width="2" stroke-linecap="round" stroke-linejoin="round"/>
<path d="M37.6937 26.8525H24.315C23.8076 26.8525 23.3962 27.2639 23.3962 27.7713V37.6588C23.3962 38.1662 23.8076 38.5775 24.315 38.5775H37.6937C38.2012 38.5775 38.6125 38.1662 38.6125 37.6588V27.7713C38.6125 27.2639 38.2012 26.8525 37.6937 26.8525Z" stroke="#000019" stroke-width="2" stroke-linecap="round" stroke-linejoin="round"/>
<path d="M25.9688 26.8524V24.7437C25.9688 23.4093 26.4988 22.1296 27.4424 21.186C28.3859 20.2425 29.6656 19.7124 31 19.7124C32.3344 19.7124 33.6141 20.2425 34.5576 21.186C35.5012 22.1296 36.0312 23.4093 36.0312 24.7437V26.8524" stroke="#000019" stroke-width="2" stroke-linecap="round" stroke-linejoin="round"/>
<path d="M31 34.6662C32.0776 34.6662 32.9512 33.7926 32.9512 32.7149C32.9512 31.6373 32.0776 30.7637 31 30.7637C29.9223 30.7637 29.0487 31.6373 29.0487 32.7149C29.0487 33.7926 29.9223 34.6662 31 34.6662Z" stroke="#000019" stroke-width="2" stroke-linecap="round" stroke-linejoin="round"/>
</svg>
