<svg width="40" height="41" viewBox="0 0 40 41" fill="none" xmlns="http://www.w3.org/2000/svg">
<path d="M9.70711 24.2071C8.92606 23.4261 8.92606 22.1597 9.70711 21.3787L18.8995 12.1863C19.6805 11.4052 20.9469 11.4052 21.7279 12.1863L20.3137 13.6005L10.4142 23.5C10.0237 23.8905 9.70711 24.2071 9.70711 24.2071ZM31.6274 23.5L20.3137 34.8137L31.6274 23.5ZM20.3137 34.8137L9 23.5L20.3137 34.8137ZM18.8995 12.1863C19.6805 11.4052 20.9469 11.4052 21.7279 12.1863L30.9203 21.3787C31.7014 22.1597 31.7014 23.4261 30.9203 24.2071C30.9203 24.2071 30.6037 23.8905 30.2132 23.5L20.3137 13.6005L18.8995 12.1863Z" fill="#F18500"/>
</svg>
