<svg width="38" height="39" viewBox="0 0 38 39" fill="none" xmlns="http://www.w3.org/2000/svg">
<rect x="1" y="1.5" width="36" height="36" rx="12" stroke="white" stroke-width="2"/>
<path d="M26 16.5001C26.0004 15.295 25.6898 14.1102 25.098 13.0604C24.5063 12.0106 23.6536 11.1313 22.6224 10.5077C21.5912 9.88409 20.4165 9.53725 19.2119 9.50077C18.0074 9.46428 16.8138 9.73939 15.7468 10.2995C14.6797 10.8595 13.7753 11.6856 13.1212 12.6977C12.467 13.7098 12.0852 14.8736 12.0127 16.0765C11.9402 17.2794 12.1795 18.4807 12.7074 19.564C13.2353 20.6473 14.0339 21.576 15.026 22.2601L12 27.5001L14.256 27.5931L15.464 29.5001L18.93 23.4961C18.954 23.4961 18.976 23.5001 19 23.5001C19.024 23.5001 19.046 23.4971 19.07 23.4961L22.536 29.5001L23.768 27.6341L26 27.5001L22.974 22.2601C23.9076 21.6173 24.6709 20.7571 25.198 19.7537C25.7252 18.7502 26.0004 17.6336 26 16.5001ZM14 16.5001C14 15.5112 14.2932 14.5445 14.8427 13.7223C15.3921 12.9 16.173 12.2592 17.0866 11.8807C18.0002 11.5023 19.0055 11.4033 19.9755 11.5962C20.9454 11.7891 21.8363 12.2653 22.5355 12.9646C23.2348 13.6639 23.711 14.5548 23.9039 15.5247C24.0969 16.4946 23.9978 17.4999 23.6194 18.4136C23.241 19.3272 22.6001 20.1081 21.7779 20.6575C20.9556 21.2069 19.9889 21.5001 19 21.5001C17.6739 21.5001 16.4021 20.9734 15.4645 20.0357C14.5268 19.098 14 17.8262 14 16.5001Z" fill="white"/>
<path d="M19 19.5C20.6569 19.5 22 18.1569 22 16.5C22 14.8431 20.6569 13.5 19 13.5C17.3431 13.5 16 14.8431 16 16.5C16 18.1569 17.3431 19.5 19 19.5Z" fill="white"/>
</svg>
