<svg width="34" height="35" viewBox="0 0 34 35" fill="none" xmlns="http://www.w3.org/2000/svg">
<rect x="1" y="1.5" width="32" height="32" rx="12" stroke="white" stroke-width="2"/>
<path d="M16.1601 8.5679L8.92212 11.5499V18.8999C8.92212 22.8386 17.0001 26.5999 17.0001 26.5999C17.0001 26.5999 25.0781 22.8386 25.0781 18.8999V11.5499L17.8401 8.5679C17.574 8.457 17.2885 8.3999 17.0001 8.3999C16.7118 8.3999 16.4263 8.457 16.1601 8.5679Z" stroke="white" stroke-width="2" stroke-linecap="round" stroke-linejoin="round"/>
<path d="M20.5702 15.2876H13.4348C13.1642 15.2876 12.9448 15.507 12.9448 15.7776V21.0509C12.9448 21.3216 13.1642 21.5409 13.4348 21.5409H20.5702C20.8408 21.5409 21.0602 21.3216 21.0602 21.0509V15.7776C21.0602 15.507 20.8408 15.2876 20.5702 15.2876Z" stroke="white" stroke-width="2" stroke-linecap="round" stroke-linejoin="round"/>
<path d="M14.3167 15.288V14.1633C14.3167 13.4516 14.5994 12.7691 15.1026 12.2659C15.6058 11.7627 16.2883 11.48 17 11.48C17.7116 11.48 18.3942 11.7627 18.8974 12.2659C19.4006 12.7691 19.6833 13.4516 19.6833 14.1633V15.288" stroke="white" stroke-width="2" stroke-linecap="round" stroke-linejoin="round"/>
<path d="M17.0001 19.4554C17.5749 19.4554 18.0408 18.9894 18.0408 18.4147C18.0408 17.8399 17.5749 17.374 17.0001 17.374C16.4254 17.374 15.9595 17.8399 15.9595 18.4147C15.9595 18.9894 16.4254 19.4554 17.0001 19.4554Z" stroke="white" stroke-width="2" stroke-linecap="round" stroke-linejoin="round"/>
</svg>
