<svg width="88" height="15" viewBox="0 0 88 15" fill="none" xmlns="http://www.w3.org/2000/svg">
<path d="M0.636 8.58V7.38H5.928V8.58H0.636ZM2.676 5.208H3.9V10.74H2.676V5.208ZM8.6745 12V3.6H10.0305V12H8.6745ZM6.9945 4.836V3.6H9.9105V4.836H6.9945ZM14.0321 12.12C13.4481 12.12 12.9281 12.02 12.4721 11.82C12.0161 11.612 11.6321 11.312 11.3201 10.92L12.2561 9.984C12.4241 10.24 12.6601 10.444 12.9641 10.596C13.2761 10.748 13.6241 10.824 14.0081 10.824C14.3601 10.824 14.6681 10.76 14.9321 10.632C15.1961 10.504 15.4041 10.32 15.5561 10.08C15.7081 9.84 15.7841 9.556 15.7841 9.228C15.7841 8.884 15.7081 8.6 15.5561 8.376C15.4121 8.144 15.2161 7.972 14.9681 7.86C14.7281 7.74 14.4681 7.68 14.1881 7.68C13.8681 7.68 13.5801 7.716 13.3241 7.788C13.0761 7.86 12.8321 7.988 12.5921 8.172L12.6281 7.308C12.7561 7.14 12.9041 7.004 13.0721 6.9C13.2401 6.788 13.4361 6.704 13.6601 6.648C13.8841 6.592 14.1481 6.564 14.4521 6.564C15.0441 6.564 15.5401 6.688 15.9401 6.936C16.3481 7.184 16.6561 7.516 16.8641 7.932C17.0721 8.34 17.1761 8.796 17.1761 9.3C17.1761 9.844 17.0401 10.328 16.7681 10.752C16.5041 11.176 16.1361 11.512 15.6641 11.76C15.1921 12 14.6481 12.12 14.0321 12.12ZM12.5921 8.172L11.8361 7.416L12.2081 3.6H13.4681L13.0361 7.572L12.5921 8.172ZM12.4481 4.836L12.2081 3.6H16.7081V4.836H12.4481ZM19.9112 6.876C19.5992 6.876 19.3112 6.8 19.0472 6.648C18.7912 6.496 18.5872 6.292 18.4352 6.036C18.2832 5.78 18.2072 5.492 18.2072 5.172C18.2072 4.852 18.2832 4.568 18.4352 4.32C18.5872 4.064 18.7912 3.86 19.0472 3.708C19.3032 3.556 19.5912 3.48 19.9112 3.48C20.2312 3.48 20.5192 3.556 20.7752 3.708C21.0392 3.86 21.2472 4.064 21.3992 4.32C21.5512 4.568 21.6272 4.852 21.6272 5.172C21.6272 5.492 21.5512 5.78 21.3992 6.036C21.2472 6.292 21.0432 6.496 20.7872 6.648C20.5312 6.8 20.2392 6.876 19.9112 6.876ZM19.9112 5.856C20.1112 5.856 20.2712 5.792 20.3912 5.664C20.5112 5.536 20.5712 5.372 20.5712 5.172C20.5712 4.972 20.5072 4.812 20.3792 4.692C20.2592 4.564 20.1032 4.5 19.9112 4.5C19.7192 4.5 19.5632 4.564 19.4432 4.692C19.3232 4.812 19.2632 4.972 19.2632 5.172C19.2632 5.372 19.3232 5.536 19.4432 5.664C19.5632 5.792 19.7192 5.856 19.9112 5.856ZM23.4272 12.12C23.1152 12.12 22.8272 12.044 22.5632 11.892C22.3072 11.74 22.1032 11.536 21.9512 11.28C21.7992 11.024 21.7232 10.736 21.7232 10.416C21.7232 10.096 21.7992 9.812 21.9512 9.564C22.1032 9.308 22.3072 9.104 22.5632 8.952C22.8192 8.8 23.1072 8.724 23.4272 8.724C23.7472 8.724 24.0352 8.8 24.2912 8.952C24.5552 9.104 24.7632 9.308 24.9152 9.564C25.0672 9.812 25.1432 10.096 25.1432 10.416C25.1432 10.736 25.0672 11.024 24.9152 11.28C24.7632 11.536 24.5592 11.74 24.3032 11.892C24.0472 12.044 23.7552 12.12 23.4272 12.12ZM23.4272 11.1C23.6272 11.1 23.7872 11.036 23.9072 10.908C24.0352 10.78 24.0992 10.616 24.0992 10.416C24.0992 10.224 24.0352 10.064 23.9072 9.936C23.7792 9.808 23.6192 9.744 23.4272 9.744C23.2352 9.744 23.0792 9.808 22.9592 9.936C22.8392 10.064 22.7792 10.224 22.7792 10.416C22.7792 10.616 22.8392 10.78 22.9592 10.908C23.0792 11.036 23.2352 11.1 23.4272 11.1ZM18.3272 12L23.7152 3.6H25.0232L19.6352 12H18.3272Z" fill="#1CE053"/>
<path d="M35.192 12V3.912H36.32V12H35.192ZM32.36 4.704V3.672H39.14V4.704H32.36ZM44.48 12V8.676C44.48 8.244 44.344 7.888 44.072 7.608C43.8 7.328 43.448 7.188 43.016 7.188C42.728 7.188 42.472 7.252 42.248 7.38C42.024 7.508 41.848 7.684 41.72 7.908C41.592 8.132 41.528 8.388 41.528 8.676L41.084 8.424C41.084 7.992 41.18 7.608 41.372 7.272C41.564 6.936 41.832 6.672 42.176 6.48C42.52 6.28 42.908 6.18 43.34 6.18C43.772 6.18 44.152 6.276 44.48 6.468C44.816 6.66 45.08 6.928 45.272 7.272C45.464 7.616 45.56 8.012 45.56 8.46V12H44.48ZM40.448 12V3.432H41.528V12H40.448ZM47.1902 12V6.3H48.2702V12H47.1902ZM47.7302 5.16C47.5302 5.16 47.3662 5.096 47.2382 4.968C47.1102 4.832 47.0462 4.664 47.0462 4.464C47.0462 4.272 47.1102 4.112 47.2382 3.984C47.3662 3.848 47.5302 3.78 47.7302 3.78C47.9302 3.78 48.0942 3.848 48.2222 3.984C48.3502 4.112 48.4142 4.272 48.4142 4.464C48.4142 4.664 48.3502 4.832 48.2222 4.968C48.0942 5.096 47.9302 5.16 47.7302 5.16ZM51.8298 12.12C51.5098 12.12 51.2058 12.08 50.9178 12C50.6378 11.912 50.3778 11.792 50.1378 11.64C49.8978 11.48 49.6898 11.292 49.5138 11.076L50.2098 10.38C50.4178 10.636 50.6578 10.828 50.9298 10.956C51.2018 11.076 51.5058 11.136 51.8418 11.136C52.1778 11.136 52.4378 11.08 52.6218 10.968C52.8058 10.848 52.8978 10.684 52.8978 10.476C52.8978 10.268 52.8218 10.108 52.6698 9.996C52.5258 9.876 52.3378 9.78 52.1058 9.708C51.8738 9.628 51.6258 9.552 51.3618 9.48C51.1058 9.4 50.8618 9.3 50.6298 9.18C50.3978 9.06 50.2058 8.896 50.0538 8.688C49.9098 8.48 49.8378 8.204 49.8378 7.86C49.8378 7.516 49.9218 7.22 50.0898 6.972C50.2578 6.716 50.4898 6.52 50.7858 6.384C51.0898 6.248 51.4538 6.18 51.8778 6.18C52.3258 6.18 52.7218 6.26 53.0658 6.42C53.4178 6.572 53.7058 6.804 53.9298 7.116L53.2338 7.812C53.0738 7.604 52.8738 7.444 52.6338 7.332C52.4018 7.22 52.1378 7.164 51.8418 7.164C51.5298 7.164 51.2898 7.22 51.1218 7.332C50.9618 7.436 50.8818 7.584 50.8818 7.776C50.8818 7.968 50.9538 8.116 51.0978 8.22C51.2418 8.324 51.4298 8.412 51.6618 8.484C51.9018 8.556 52.1498 8.632 52.4058 8.712C52.6618 8.784 52.9058 8.884 53.1378 9.012C53.3698 9.14 53.5578 9.312 53.7018 9.528C53.8538 9.744 53.9298 10.028 53.9298 10.38C53.9298 10.916 53.7378 11.34 53.3538 11.652C52.9778 11.964 52.4698 12.12 51.8298 12.12ZM59.579 12L57.323 6.3H58.451L60.083 10.74H59.723L61.343 6.3H61.967L63.587 10.74H63.227L64.859 6.3H65.987L63.743 12H63.107L61.463 7.692H61.859L60.203 12H59.579ZM69.5789 12.12C69.0109 12.12 68.4989 11.992 68.0429 11.736C67.5869 11.472 67.2269 11.116 66.9629 10.668C66.6989 10.22 66.5669 9.712 66.5669 9.144C66.5669 8.584 66.6949 8.08 66.9509 7.632C67.2149 7.184 67.5669 6.832 68.0069 6.576C68.4549 6.312 68.9549 6.18 69.5069 6.18C70.0349 6.18 70.4989 6.3 70.8989 6.54C71.3069 6.78 71.6229 7.112 71.8469 7.536C72.0789 7.96 72.1949 8.44 72.1949 8.976C72.1949 9.056 72.1909 9.144 72.1829 9.24C72.1749 9.328 72.1589 9.432 72.1349 9.552H67.3229V8.652H71.5589L71.1629 9C71.1629 8.616 71.0949 8.292 70.9589 8.028C70.8229 7.756 70.6309 7.548 70.3829 7.404C70.1349 7.252 69.8349 7.176 69.4829 7.176C69.1149 7.176 68.7909 7.256 68.5109 7.416C68.2309 7.576 68.0149 7.8 67.8629 8.088C67.7109 8.376 67.6349 8.716 67.6349 9.108C67.6349 9.508 67.7149 9.86 67.8749 10.164C68.0349 10.46 68.2629 10.692 68.5589 10.86C68.8549 11.02 69.1949 11.1 69.5789 11.1C69.8989 11.1 70.1909 11.044 70.4549 10.932C70.7269 10.82 70.9589 10.652 71.1509 10.428L71.8469 11.136C71.5749 11.456 71.2389 11.7 70.8389 11.868C70.4469 12.036 70.0269 12.12 69.5789 12.12ZM76.1685 12.12C75.6005 12.12 75.0885 11.992 74.6325 11.736C74.1765 11.472 73.8165 11.116 73.5525 10.668C73.2885 10.22 73.1565 9.712 73.1565 9.144C73.1565 8.584 73.2845 8.08 73.5405 7.632C73.8045 7.184 74.1565 6.832 74.5965 6.576C75.0445 6.312 75.5445 6.18 76.0965 6.18C76.6245 6.18 77.0885 6.3 77.4885 6.54C77.8965 6.78 78.2125 7.112 78.4365 7.536C78.6685 7.96 78.7845 8.44 78.7845 8.976C78.7845 9.056 78.7805 9.144 78.7725 9.24C78.7645 9.328 78.7485 9.432 78.7245 9.552H73.9125V8.652H78.1485L77.7525 9C77.7525 8.616 77.6845 8.292 77.5485 8.028C77.4125 7.756 77.2205 7.548 76.9725 7.404C76.7245 7.252 76.4245 7.176 76.0725 7.176C75.7045 7.176 75.3805 7.256 75.1005 7.416C74.8205 7.576 74.6045 7.8 74.4525 8.088C74.3005 8.376 74.2245 8.716 74.2245 9.108C74.2245 9.508 74.3045 9.86 74.4645 10.164C74.6245 10.46 74.8525 10.692 75.1485 10.86C75.4445 11.02 75.7845 11.1 76.1685 11.1C76.4885 11.1 76.7805 11.044 77.0445 10.932C77.3165 10.82 77.5485 10.652 77.7405 10.428L78.4365 11.136C78.1645 11.456 77.8285 11.7 77.4285 11.868C77.0365 12.036 76.6165 12.12 76.1685 12.12ZM83.7661 12L81.1021 9.084L83.7421 6.3H85.0501L82.1101 9.372L82.1581 8.748L85.1581 12H83.7661ZM80.1181 12V3.432H81.1981V12H80.1181Z" fill="#010101"/>
</svg>
