<svg width="40" height="40" viewBox="0 0 40 40" fill="none" xmlns="http://www.w3.org/2000/svg">
<path d="M30.2929 16.2929C31.0739 17.0739 31.0739 18.3403 30.2929 19.1213L21.1005 28.3137C20.3195 29.0948 19.0531 29.0948 18.2721 28.3137L19.6863 26.8995L29.5858 17C29.9763 16.6095 30.2929 16.2929 30.2929 16.2929ZM8.37258 17L19.6863 5.68629L8.37258 17ZM19.6863 5.68629L31 17L19.6863 5.68629ZM21.1005 28.3137C20.3195 29.0948 19.0531 29.0948 18.2721 28.3137L9.07969 19.1213C8.29864 18.3403 8.29864 17.0739 9.07969 16.2929C9.07969 16.2929 9.39627 16.6095 9.7868 17L19.6863 26.8995L21.1005 28.3137Z" fill="#F18500"/>
</svg>
