<svg width="34" height="35" viewBox="0 0 34 35" fill="none" xmlns="http://www.w3.org/2000/svg">
<rect x="1" y="1.5" width="32" height="32" rx="12" stroke="white" stroke-width="2"/>
<path d="M8.11108 13.944L16.7618 9.61866C16.8357 9.58173 16.9173 9.5625 17 9.5625C17.0827 9.5625 17.1642 9.58173 17.2382 9.61866L25.8889 13.944M17.4462 14.9484L19.2675 15.4204C19.5022 15.4818 19.6675 15.6951 19.6595 15.9378C19.512 20.3724 17 21.0551 17 21.0551C17 21.0551 14.488 20.3724 14.3404 15.9378C14.3372 15.8198 14.3743 15.7043 14.4456 15.6103C14.5168 15.5162 14.618 15.4493 14.7324 15.4204L16.5546 14.9493C16.847 14.8736 17.1538 14.8727 17.4462 14.9484Z" stroke="white" stroke-width="2" stroke-linecap="round" stroke-linejoin="round"/>
<path d="M24.1111 16.6104V23.7215C24.1111 24.193 23.9238 24.6451 23.5904 24.9785C23.257 25.3119 22.8049 25.4992 22.3334 25.4992H11.6667C11.1952 25.4992 10.743 25.3119 10.4096 24.9785C10.0762 24.6451 9.88892 24.193 9.88892 23.7215V16.6104" stroke="white" stroke-width="2" stroke-linecap="round" stroke-linejoin="round"/>
</svg>
