<svg width="62" height="62" viewBox="0 0 62 62" fill="none" xmlns="http://www.w3.org/2000/svg">
<rect x="1" y="1" width="60" height="60" rx="20" stroke="black" stroke-width="2"/>
<path d="M42.6666 26.0001C42.6674 23.9916 42.1496 22.0169 41.1634 20.2672C40.1772 18.5175 38.7559 17.052 37.0373 16.0127C35.3186 14.9733 33.3608 14.3953 31.3532 14.3344C29.3456 14.2736 27.3563 14.7322 25.5779 15.6656C23.7995 16.5991 22.2922 17.9758 21.2019 19.6626C20.1116 21.3494 19.4753 23.2891 19.3544 25.294C19.2336 27.2989 19.6324 29.301 20.5123 31.1065C21.3921 32.912 22.7232 34.4598 24.3766 35.6001L19.3333 44.3334L23.0933 44.4884L25.1066 47.6667L30.8833 37.6601C30.9233 37.6601 30.96 37.6667 31 37.6667C31.04 37.6667 31.0766 37.6617 31.1166 37.6601L36.8933 47.6667L38.9466 44.5567L42.6666 44.3334L37.6233 35.6001C39.1793 34.5287 40.4515 33.0951 41.3301 31.4226C42.2087 29.7502 42.6674 27.8892 42.6666 26.0001ZM22.6666 26.0001C22.6666 24.3519 23.1554 22.7407 24.0711 21.3703C24.9867 19.9999 26.2882 18.9318 27.811 18.3011C29.3337 17.6703 31.0092 17.5053 32.6257 17.8269C34.2422 18.1484 35.7271 18.9421 36.8925 20.1075C38.058 21.2729 38.8516 22.7578 39.1732 24.3743C39.4947 25.9908 39.3297 27.6664 38.699 29.1891C38.0682 30.7118 37.0001 32.0133 35.6297 32.929C34.2593 33.8447 32.6482 34.3334 31 34.3334C28.7898 34.3334 26.6702 33.4554 25.1074 31.8926C23.5446 30.3298 22.6666 28.2102 22.6666 26.0001Z" fill="black"/>
<path d="M31 31C33.7614 31 36 28.7614 36 26C36 23.2386 33.7614 21 31 21C28.2386 21 26 23.2386 26 26C26 28.7614 28.2386 31 31 31Z" fill="black"/>
</svg>
