<svg width="95" height="15" viewBox="0 0 95 15" fill="none" xmlns="http://www.w3.org/2000/svg">
<path d="M0.696 9.648V8.22H4.848V9.648H0.696ZM7.02075 12V3.564H8.62875V12H7.02075ZM5.36475 4.98V3.564H8.50875V4.98H5.36475ZM9.927 11.064L13.107 7.74C13.331 7.5 13.511 7.288 13.647 7.104C13.791 6.912 13.895 6.732 13.959 6.564C14.023 6.388 14.055 6.212 14.055 6.036C14.055 5.684 13.939 5.408 13.707 5.208C13.483 5.008 13.191 4.908 12.831 4.908C12.463 4.908 12.135 5.004 11.847 5.196C11.567 5.388 11.303 5.692 11.055 6.108L9.939 5.16C10.275 4.592 10.691 4.164 11.187 3.876C11.691 3.58 12.267 3.432 12.915 3.432C13.467 3.432 13.947 3.54 14.355 3.756C14.771 3.972 15.091 4.272 15.315 4.656C15.539 5.04 15.651 5.488 15.651 6C15.651 6.344 15.607 6.656 15.519 6.936C15.439 7.216 15.299 7.496 15.099 7.776C14.907 8.048 14.639 8.356 14.295 8.7L11.979 11.064H9.927ZM9.927 12V11.064L11.319 10.584H15.831V12H9.927ZM18.1438 12.12C17.8558 12.12 17.6198 12.024 17.4358 11.832C17.2518 11.64 17.1598 11.404 17.1598 11.124C17.1598 10.844 17.2518 10.608 17.4358 10.416C17.6198 10.224 17.8558 10.128 18.1438 10.128C18.4238 10.128 18.6558 10.224 18.8398 10.416C19.0238 10.608 19.1158 10.844 19.1158 11.124C19.1158 11.404 19.0238 11.64 18.8398 11.832C18.6558 12.024 18.4238 12.12 18.1438 12.12ZM23.0149 12.12C22.4469 12.12 21.9269 12.02 21.4549 11.82C20.9829 11.612 20.5869 11.316 20.2669 10.932L21.3469 9.864C21.5069 10.104 21.7349 10.296 22.0309 10.44C22.3269 10.584 22.6469 10.656 22.9909 10.656C23.3109 10.656 23.5869 10.6 23.8189 10.488C24.0509 10.368 24.2309 10.204 24.3589 9.996C24.4949 9.78 24.5629 9.532 24.5629 9.252C24.5629 8.956 24.4949 8.704 24.3589 8.496C24.2309 8.288 24.0429 8.128 23.7949 8.016C23.5469 7.904 23.2509 7.848 22.9069 7.848C22.7549 7.848 22.5989 7.86 22.4389 7.884C22.2789 7.9 22.1429 7.928 22.0309 7.968L22.7509 7.056C22.9509 6.992 23.1469 6.94 23.3389 6.9C23.5389 6.852 23.7229 6.828 23.8909 6.828C24.3229 6.828 24.7109 6.932 25.0549 7.14C25.4069 7.34 25.6829 7.628 25.8829 8.004C26.0909 8.372 26.1949 8.808 26.1949 9.312C26.1949 9.872 26.0629 10.364 25.7989 10.788C25.5349 11.204 25.1629 11.532 24.6829 11.772C24.2109 12.004 23.6549 12.12 23.0149 12.12ZM22.0309 7.968V7.032L24.1909 4.524L26.0629 4.5L23.8309 7.056L22.0309 7.968ZM20.7349 4.98V3.564H26.0629V4.5L24.7309 4.98H20.7349ZM28.9165 6.912C28.6045 6.912 28.3125 6.836 28.0405 6.684C27.7765 6.524 27.5685 6.312 27.4165 6.048C27.2645 5.784 27.1885 5.492 27.1885 5.172C27.1885 4.844 27.2645 4.552 27.4165 4.296C27.5685 4.04 27.7765 3.836 28.0405 3.684C28.3045 3.524 28.5965 3.444 28.9165 3.444C29.2445 3.444 29.5405 3.524 29.8045 3.684C30.0765 3.836 30.2885 4.04 30.4405 4.296C30.5925 4.552 30.6685 4.844 30.6685 5.172C30.6685 5.492 30.5885 5.784 30.4285 6.048C30.2765 6.312 30.0685 6.524 29.8045 6.684C29.5485 6.836 29.2525 6.912 28.9165 6.912ZM28.9165 5.772C29.1005 5.772 29.2445 5.716 29.3485 5.604C29.4525 5.492 29.5045 5.348 29.5045 5.172C29.5045 4.996 29.4485 4.852 29.3365 4.74C29.2325 4.628 29.0925 4.572 28.9165 4.572C28.7485 4.572 28.6125 4.628 28.5085 4.74C28.4045 4.852 28.3525 4.996 28.3525 5.172C28.3525 5.348 28.4045 5.492 28.5085 5.604C28.6125 5.716 28.7485 5.772 28.9165 5.772ZM32.6125 12.12C32.2925 12.12 32.0005 12.044 31.7365 11.892C31.4725 11.732 31.2605 11.524 31.1005 11.268C30.9485 11.004 30.8725 10.708 30.8725 10.38C30.8725 10.052 30.9485 9.76 31.1005 9.504C31.2605 9.248 31.4685 9.044 31.7245 8.892C31.9885 8.732 32.2845 8.652 32.6125 8.652C32.9405 8.652 33.2365 8.732 33.5005 8.892C33.7645 9.044 33.9725 9.248 34.1245 9.504C34.2845 9.76 34.3645 10.052 34.3645 10.38C34.3645 10.708 34.2845 11.004 34.1245 11.268C33.9725 11.524 33.7645 11.732 33.5005 11.892C33.2445 12.044 32.9485 12.12 32.6125 12.12ZM32.6125 10.98C32.7885 10.98 32.9325 10.924 33.0445 10.812C33.1565 10.7 33.2125 10.556 33.2125 10.38C33.2125 10.212 33.1525 10.072 33.0325 9.96C32.9205 9.848 32.7805 9.792 32.6125 9.792C32.4445 9.792 32.3045 9.848 32.1925 9.96C32.0885 10.072 32.0365 10.212 32.0365 10.38C32.0365 10.556 32.0885 10.7 32.1925 10.812C32.3045 10.924 32.4445 10.98 32.6125 10.98ZM27.4165 12L32.6485 3.564H34.1365L28.9045 12H27.4165Z" fill="#CE2121"/>
<path d="M44.192 12V3.912H45.32V12H44.192ZM41.36 4.704V3.672H48.14V4.704H41.36ZM53.48 12V8.676C53.48 8.244 53.344 7.888 53.072 7.608C52.8 7.328 52.448 7.188 52.016 7.188C51.728 7.188 51.472 7.252 51.248 7.38C51.024 7.508 50.848 7.684 50.72 7.908C50.592 8.132 50.528 8.388 50.528 8.676L50.084 8.424C50.084 7.992 50.18 7.608 50.372 7.272C50.564 6.936 50.832 6.672 51.176 6.48C51.52 6.28 51.908 6.18 52.34 6.18C52.772 6.18 53.152 6.276 53.48 6.468C53.816 6.66 54.08 6.928 54.272 7.272C54.464 7.616 54.56 8.012 54.56 8.46V12H53.48ZM49.448 12V3.432H50.528V12H49.448ZM56.1902 12V6.3H57.2702V12H56.1902ZM56.7302 5.16C56.5302 5.16 56.3662 5.096 56.2382 4.968C56.1102 4.832 56.0462 4.664 56.0462 4.464C56.0462 4.272 56.1102 4.112 56.2382 3.984C56.3662 3.848 56.5302 3.78 56.7302 3.78C56.9302 3.78 57.0942 3.848 57.2222 3.984C57.3502 4.112 57.4142 4.272 57.4142 4.464C57.4142 4.664 57.3502 4.832 57.2222 4.968C57.0942 5.096 56.9302 5.16 56.7302 5.16ZM60.8298 12.12C60.5098 12.12 60.2058 12.08 59.9178 12C59.6378 11.912 59.3778 11.792 59.1378 11.64C58.8978 11.48 58.6898 11.292 58.5138 11.076L59.2098 10.38C59.4178 10.636 59.6578 10.828 59.9298 10.956C60.2018 11.076 60.5058 11.136 60.8418 11.136C61.1778 11.136 61.4378 11.08 61.6218 10.968C61.8058 10.848 61.8978 10.684 61.8978 10.476C61.8978 10.268 61.8218 10.108 61.6698 9.996C61.5258 9.876 61.3378 9.78 61.1058 9.708C60.8738 9.628 60.6258 9.552 60.3618 9.48C60.1058 9.4 59.8618 9.3 59.6298 9.18C59.3978 9.06 59.2058 8.896 59.0538 8.688C58.9098 8.48 58.8378 8.204 58.8378 7.86C58.8378 7.516 58.9218 7.22 59.0898 6.972C59.2578 6.716 59.4898 6.52 59.7858 6.384C60.0898 6.248 60.4538 6.18 60.8778 6.18C61.3258 6.18 61.7218 6.26 62.0658 6.42C62.4178 6.572 62.7058 6.804 62.9298 7.116L62.2338 7.812C62.0738 7.604 61.8738 7.444 61.6338 7.332C61.4018 7.22 61.1378 7.164 60.8418 7.164C60.5298 7.164 60.2898 7.22 60.1218 7.332C59.9618 7.436 59.8818 7.584 59.8818 7.776C59.8818 7.968 59.9538 8.116 60.0978 8.22C60.2418 8.324 60.4298 8.412 60.6618 8.484C60.9018 8.556 61.1498 8.632 61.4058 8.712C61.6618 8.784 61.9058 8.884 62.1378 9.012C62.3698 9.14 62.5578 9.312 62.7018 9.528C62.8538 9.744 62.9298 10.028 62.9298 10.38C62.9298 10.916 62.7378 11.34 62.3538 11.652C61.9778 11.964 61.4698 12.12 60.8298 12.12ZM68.579 12L66.323 6.3H67.451L69.083 10.74H68.723L70.343 6.3H70.967L72.587 10.74H72.227L73.859 6.3H74.987L72.743 12H72.107L70.463 7.692H70.859L69.203 12H68.579ZM78.5789 12.12C78.0109 12.12 77.4989 11.992 77.0429 11.736C76.5869 11.472 76.2269 11.116 75.9629 10.668C75.6989 10.22 75.5669 9.712 75.5669 9.144C75.5669 8.584 75.6949 8.08 75.9509 7.632C76.2149 7.184 76.5669 6.832 77.0069 6.576C77.4549 6.312 77.9549 6.18 78.5069 6.18C79.0349 6.18 79.4989 6.3 79.8989 6.54C80.3069 6.78 80.6229 7.112 80.8469 7.536C81.0789 7.96 81.1949 8.44 81.1949 8.976C81.1949 9.056 81.1909 9.144 81.1829 9.24C81.1749 9.328 81.1589 9.432 81.1349 9.552H76.3229V8.652H80.5589L80.1629 9C80.1629 8.616 80.0949 8.292 79.9589 8.028C79.8229 7.756 79.6309 7.548 79.3829 7.404C79.1349 7.252 78.8349 7.176 78.4829 7.176C78.1149 7.176 77.7909 7.256 77.5109 7.416C77.2309 7.576 77.0149 7.8 76.8629 8.088C76.7109 8.376 76.6349 8.716 76.6349 9.108C76.6349 9.508 76.7149 9.86 76.8749 10.164C77.0349 10.46 77.2629 10.692 77.5589 10.86C77.8549 11.02 78.1949 11.1 78.5789 11.1C78.8989 11.1 79.1909 11.044 79.4549 10.932C79.7269 10.82 79.9589 10.652 80.1509 10.428L80.8469 11.136C80.5749 11.456 80.2389 11.7 79.8389 11.868C79.4469 12.036 79.0269 12.12 78.5789 12.12ZM85.1685 12.12C84.6005 12.12 84.0885 11.992 83.6325 11.736C83.1765 11.472 82.8165 11.116 82.5525 10.668C82.2885 10.22 82.1565 9.712 82.1565 9.144C82.1565 8.584 82.2845 8.08 82.5405 7.632C82.8045 7.184 83.1565 6.832 83.5965 6.576C84.0445 6.312 84.5445 6.18 85.0965 6.18C85.6245 6.18 86.0885 6.3 86.4885 6.54C86.8965 6.78 87.2125 7.112 87.4365 7.536C87.6685 7.96 87.7845 8.44 87.7845 8.976C87.7845 9.056 87.7805 9.144 87.7725 9.24C87.7645 9.328 87.7485 9.432 87.7245 9.552H82.9125V8.652H87.1485L86.7525 9C86.7525 8.616 86.6845 8.292 86.5485 8.028C86.4125 7.756 86.2205 7.548 85.9725 7.404C85.7245 7.252 85.4245 7.176 85.0725 7.176C84.7045 7.176 84.3805 7.256 84.1005 7.416C83.8205 7.576 83.6045 7.8 83.4525 8.088C83.3005 8.376 83.2245 8.716 83.2245 9.108C83.2245 9.508 83.3045 9.86 83.4645 10.164C83.6245 10.46 83.8525 10.692 84.1485 10.86C84.4445 11.02 84.7845 11.1 85.1685 11.1C85.4885 11.1 85.7805 11.044 86.0445 10.932C86.3165 10.82 86.5485 10.652 86.7405 10.428L87.4365 11.136C87.1645 11.456 86.8285 11.7 86.4285 11.868C86.0365 12.036 85.6165 12.12 85.1685 12.12ZM92.7661 12L90.1021 9.084L92.7421 6.3H94.0501L91.1101 9.372L91.1581 8.748L94.1581 12H92.7661ZM89.1181 12V3.432H90.1981V12H89.1181Z" fill="#010101"/>
</svg>
