<svg width="64" height="20" viewBox="0 0 64 20" fill="none" xmlns="http://www.w3.org/2000/svg">
<circle cx="6" cy="10" r="4" fill="#D220AB"/>
<path d="M15.86 14V12.8H18.272C18.696 12.8 19.024 12.668 19.256 12.404C19.488 12.14 19.604 11.836 19.604 11.492C19.604 11.26 19.552 11.044 19.448 10.844C19.344 10.644 19.192 10.484 18.992 10.364C18.792 10.244 18.552 10.184 18.272 10.184H15.86V8.984H18.068C18.428 8.984 18.716 8.892 18.932 8.708C19.148 8.524 19.256 8.252 19.256 7.892C19.256 7.532 19.148 7.26 18.932 7.076C18.716 6.892 18.428 6.8 18.068 6.8H15.86V5.6H18.104C18.672 5.6 19.144 5.704 19.52 5.912C19.896 6.12 20.176 6.388 20.36 6.716C20.544 7.044 20.636 7.396 20.636 7.772C20.636 8.212 20.512 8.6 20.264 8.936C20.024 9.272 19.668 9.544 19.196 9.752L19.304 9.32C19.832 9.536 20.244 9.84 20.54 10.232C20.836 10.624 20.984 11.084 20.984 11.612C20.984 12.044 20.876 12.44 20.66 12.8C20.452 13.16 20.14 13.452 19.724 13.676C19.316 13.892 18.812 14 18.212 14H15.86ZM14.912 14V5.6H16.292V14H14.912ZM24.4222 14V5.84H25.8022V14H24.4222ZM21.6862 6.86V5.6H28.5382V6.86H21.6862ZM33.1494 14.12C32.5414 14.12 31.9774 14.012 31.4574 13.796C30.9454 13.572 30.4974 13.264 30.1134 12.872C29.7294 12.472 29.4334 12.012 29.2254 11.492C29.0174 10.964 28.9134 10.4 28.9134 9.8C28.9134 9.2 29.0174 8.64 29.2254 8.12C29.4334 7.592 29.7294 7.132 30.1134 6.74C30.4974 6.348 30.9454 6.04 31.4574 5.816C31.9774 5.592 32.5414 5.48 33.1494 5.48C33.8294 5.48 34.4174 5.592 34.9134 5.816C35.4094 6.04 35.8494 6.344 36.2334 6.728L35.2974 7.664C35.0494 7.392 34.7454 7.18 34.3854 7.028C34.0334 6.876 33.6214 6.8 33.1494 6.8C32.7334 6.8 32.3534 6.872 32.0094 7.016C31.6654 7.16 31.3654 7.368 31.1094 7.64C30.8614 7.904 30.6694 8.22 30.5334 8.588C30.3974 8.956 30.3294 9.36 30.3294 9.8C30.3294 10.24 30.3974 10.644 30.5334 11.012C30.6694 11.38 30.8614 11.7 31.1094 11.972C31.3654 12.236 31.6654 12.44 32.0094 12.584C32.3534 12.728 32.7334 12.8 33.1494 12.8C33.6614 12.8 34.0934 12.724 34.4454 12.572C34.8054 12.412 35.1094 12.196 35.3574 11.924L36.2934 12.86C35.9094 13.252 35.4574 13.56 34.9374 13.784C34.4174 14.008 33.8214 14.12 33.1494 14.12ZM42.2791 14.12C41.7191 14.12 41.2111 14.02 40.7551 13.82C40.3071 13.612 39.9271 13.312 39.6151 12.92L40.5511 11.984C40.7191 12.24 40.9551 12.444 41.2591 12.596C41.5631 12.748 41.8951 12.824 42.2551 12.824C42.5991 12.824 42.8951 12.76 43.1431 12.632C43.3911 12.504 43.5831 12.324 43.7191 12.092C43.8631 11.86 43.9351 11.592 43.9351 11.288C43.9351 10.968 43.8631 10.696 43.7191 10.472C43.5831 10.248 43.3831 10.076 43.1191 9.956C42.8631 9.828 42.5511 9.764 42.1831 9.764C42.0391 9.764 41.8911 9.776 41.7391 9.8C41.5871 9.816 41.4511 9.844 41.3311 9.884L41.9431 9.092C42.1111 9.028 42.2871 8.976 42.4711 8.936C42.6631 8.888 42.8471 8.864 43.0231 8.864C43.4551 8.864 43.8431 8.968 44.1871 9.176C44.5391 9.384 44.8151 9.676 45.0151 10.052C45.2231 10.42 45.3271 10.856 45.3271 11.36C45.3271 11.904 45.1991 12.384 44.9431 12.8C44.6871 13.216 44.3311 13.54 43.8751 13.772C43.4191 14.004 42.8871 14.12 42.2791 14.12ZM41.3311 9.884V9.068L43.5751 6.452L45.2311 6.416L42.8911 9.104L41.3311 9.884ZM40.0351 6.836V5.6H45.2311V6.416L44.0431 6.836H40.0351ZM49.9116 14.12C49.2796 14.12 48.6996 13.944 48.1716 13.592C47.6516 13.232 47.2356 12.728 46.9236 12.08C46.6116 11.432 46.4556 10.668 46.4556 9.788C46.4556 8.908 46.6076 8.148 46.9116 7.508C47.2236 6.86 47.6396 6.36 48.1596 6.008C48.6796 5.656 49.2556 5.48 49.8876 5.48C50.5276 5.48 51.1076 5.656 51.6276 6.008C52.1476 6.36 52.5596 6.86 52.8636 7.508C53.1756 8.148 53.3316 8.912 53.3316 9.8C53.3316 10.68 53.1756 11.444 52.8636 12.092C52.5596 12.74 52.1476 13.24 51.6276 13.592C51.1156 13.944 50.5436 14.12 49.9116 14.12ZM49.8876 12.824C50.3036 12.824 50.6636 12.712 50.9676 12.488C51.2716 12.264 51.5076 11.928 51.6756 11.48C51.8516 11.032 51.9396 10.468 51.9396 9.788C51.9396 9.116 51.8516 8.556 51.6756 8.108C51.5076 7.66 51.2676 7.328 50.9556 7.112C50.6516 6.888 50.2956 6.776 49.8876 6.776C49.4796 6.776 49.1196 6.888 48.8076 7.112C48.5036 7.328 48.2676 7.66 48.0996 8.108C47.9316 8.548 47.8476 9.108 47.8476 9.788C47.8476 10.468 47.9316 11.032 48.0996 11.48C48.2676 11.928 48.5036 12.264 48.8076 12.488C49.1196 12.712 49.4796 12.824 49.8876 12.824ZM56.1669 8.876C55.8549 8.876 55.5669 8.8 55.3029 8.648C55.0469 8.496 54.8429 8.292 54.6909 8.036C54.5389 7.78 54.4629 7.492 54.4629 7.172C54.4629 6.852 54.5389 6.568 54.6909 6.32C54.8429 6.064 55.0469 5.86 55.3029 5.708C55.5589 5.556 55.8469 5.48 56.1669 5.48C56.4869 5.48 56.7749 5.556 57.0309 5.708C57.2949 5.86 57.5029 6.064 57.6549 6.32C57.8069 6.568 57.8829 6.852 57.8829 7.172C57.8829 7.492 57.8069 7.78 57.6549 8.036C57.5029 8.292 57.2989 8.496 57.0429 8.648C56.7869 8.8 56.4949 8.876 56.1669 8.876ZM56.1669 7.856C56.3669 7.856 56.5269 7.792 56.6469 7.664C56.7669 7.536 56.8269 7.372 56.8269 7.172C56.8269 6.972 56.7629 6.812 56.6349 6.692C56.5149 6.564 56.3589 6.5 56.1669 6.5C55.9749 6.5 55.8189 6.564 55.6989 6.692C55.5789 6.812 55.5189 6.972 55.5189 7.172C55.5189 7.372 55.5789 7.536 55.6989 7.664C55.8189 7.792 55.9749 7.856 56.1669 7.856ZM59.6829 14.12C59.3709 14.12 59.0829 14.044 58.8189 13.892C58.5629 13.74 58.3589 13.536 58.2069 13.28C58.0549 13.024 57.9789 12.736 57.9789 12.416C57.9789 12.096 58.0549 11.812 58.2069 11.564C58.3589 11.308 58.5629 11.104 58.8189 10.952C59.0749 10.8 59.3629 10.724 59.6829 10.724C60.0029 10.724 60.2909 10.8 60.5469 10.952C60.8109 11.104 61.0189 11.308 61.1709 11.564C61.3229 11.812 61.3989 12.096 61.3989 12.416C61.3989 12.736 61.3229 13.024 61.1709 13.28C61.0189 13.536 60.8149 13.74 60.5589 13.892C60.3029 14.044 60.0109 14.12 59.6829 14.12ZM59.6829 13.1C59.8829 13.1 60.0429 13.036 60.1629 12.908C60.2909 12.78 60.3549 12.616 60.3549 12.416C60.3549 12.224 60.2909 12.064 60.1629 11.936C60.0349 11.808 59.8749 11.744 59.6829 11.744C59.4909 11.744 59.3349 11.808 59.2149 11.936C59.0949 12.064 59.0349 12.224 59.0349 12.416C59.0349 12.616 59.0949 12.78 59.2149 12.908C59.3349 13.036 59.4909 13.1 59.6829 13.1ZM54.5829 14L59.9709 5.6H61.2789L55.8909 14H54.5829Z" fill="#010101"/>
</svg>
