<svg width="63" height="20" viewBox="0 0 63 20" fill="none" xmlns="http://www.w3.org/2000/svg">
<circle cx="6" cy="10" r="4" fill="#B03B3B"/>
<path d="M15.86 14V12.8H18.272C18.696 12.8 19.024 12.668 19.256 12.404C19.488 12.14 19.604 11.836 19.604 11.492C19.604 11.26 19.552 11.044 19.448 10.844C19.344 10.644 19.192 10.484 18.992 10.364C18.792 10.244 18.552 10.184 18.272 10.184H15.86V8.984H18.068C18.428 8.984 18.716 8.892 18.932 8.708C19.148 8.524 19.256 8.252 19.256 7.892C19.256 7.532 19.148 7.26 18.932 7.076C18.716 6.892 18.428 6.8 18.068 6.8H15.86V5.6H18.104C18.672 5.6 19.144 5.704 19.52 5.912C19.896 6.12 20.176 6.388 20.36 6.716C20.544 7.044 20.636 7.396 20.636 7.772C20.636 8.212 20.512 8.6 20.264 8.936C20.024 9.272 19.668 9.544 19.196 9.752L19.304 9.32C19.832 9.536 20.244 9.84 20.54 10.232C20.836 10.624 20.984 11.084 20.984 11.612C20.984 12.044 20.876 12.44 20.66 12.8C20.452 13.16 20.14 13.452 19.724 13.676C19.316 13.892 18.812 14 18.212 14H15.86ZM14.912 14V5.6H16.292V14H14.912ZM23.4808 10.436V9.296H25.6048C26.0288 9.296 26.3568 9.188 26.5888 8.972C26.8288 8.748 26.9488 8.44 26.9488 8.048C26.9488 7.696 26.8328 7.4 26.6008 7.16C26.3688 6.92 26.0408 6.8 25.6168 6.8H23.4808V5.6H25.6768C26.2048 5.6 26.6688 5.708 27.0688 5.924C27.4688 6.132 27.7768 6.42 27.9928 6.788C28.2168 7.148 28.3288 7.56 28.3288 8.024C28.3288 8.512 28.2168 8.936 27.9928 9.296C27.7768 9.656 27.4688 9.936 27.0688 10.136C26.6688 10.336 26.2048 10.436 25.6768 10.436H23.4808ZM22.5328 14V5.6H23.9128V14H22.5328ZM27.1408 14L24.2008 10.352L25.4848 9.884L28.8808 14H27.1408ZM31.7618 14V5.84H33.1418V14H31.7618ZM29.0258 6.86V5.6H35.8778V6.86H29.0258ZM39.0303 13.184L42.1263 9.896C42.3823 9.624 42.5903 9.38 42.7503 9.164C42.9103 8.948 43.0263 8.744 43.0983 8.552C43.1703 8.36 43.2063 8.164 43.2063 7.964C43.2063 7.588 43.0823 7.296 42.8343 7.088C42.5943 6.872 42.2863 6.764 41.9103 6.764C41.5103 6.764 41.1583 6.864 40.8543 7.064C40.5503 7.264 40.2783 7.576 40.0383 8L39.0783 7.208C39.4063 6.64 39.8103 6.212 40.2903 5.924C40.7703 5.628 41.3263 5.48 41.9583 5.48C42.4783 5.48 42.9343 5.584 43.3263 5.792C43.7183 6 44.0223 6.292 44.2383 6.668C44.4543 7.036 44.5623 7.464 44.5623 7.952C44.5623 8.304 44.5183 8.62 44.4303 8.9C44.3503 9.172 44.2103 9.448 44.0103 9.728C43.8103 10 43.5343 10.32 43.1823 10.688L40.8063 13.148L39.0303 13.184ZM39.0303 14V13.184L40.2183 12.764H44.7303V14H39.0303ZM48.7145 14.12C48.1545 14.12 47.6505 13.992 47.2025 13.736C46.7545 13.472 46.3985 13.12 46.1345 12.68C45.8785 12.24 45.7505 11.752 45.7505 11.216C45.7505 10.448 46.0185 9.672 46.5545 8.888L48.8465 5.6H50.4425L47.9945 9.044L47.4905 9.344C47.5705 9.16 47.6705 9.004 47.7905 8.876C47.9185 8.74 48.0825 8.636 48.2825 8.564C48.4905 8.492 48.7465 8.456 49.0505 8.456C49.5385 8.456 49.9785 8.572 50.3705 8.804C50.7705 9.028 51.0905 9.344 51.3305 9.752C51.5705 10.152 51.6905 10.624 51.6905 11.168C51.6905 11.712 51.5585 12.208 51.2945 12.656C51.0305 13.104 50.6705 13.46 50.2145 13.724C49.7665 13.988 49.2665 14.12 48.7145 14.12ZM48.7145 12.824C49.0185 12.824 49.2905 12.752 49.5305 12.608C49.7705 12.464 49.9585 12.268 50.0945 12.02C50.2385 11.764 50.3105 11.48 50.3105 11.168C50.3105 10.856 50.2385 10.576 50.0945 10.328C49.9585 10.08 49.7705 9.888 49.5305 9.752C49.2905 9.608 49.0185 9.536 48.7145 9.536C48.4105 9.536 48.1385 9.608 47.8985 9.752C47.6585 9.896 47.4705 10.092 47.3345 10.34C47.1985 10.58 47.1305 10.856 47.1305 11.168C47.1305 11.48 47.1985 11.764 47.3345 12.02C47.4705 12.268 47.6585 12.464 47.8985 12.608C48.1385 12.752 48.4105 12.824 48.7145 12.824ZM54.4208 8.876C54.1088 8.876 53.8208 8.8 53.5568 8.648C53.3008 8.496 53.0968 8.292 52.9448 8.036C52.7928 7.78 52.7168 7.492 52.7168 7.172C52.7168 6.852 52.7928 6.568 52.9448 6.32C53.0968 6.064 53.3008 5.86 53.5568 5.708C53.8128 5.556 54.1008 5.48 54.4208 5.48C54.7408 5.48 55.0288 5.556 55.2848 5.708C55.5488 5.86 55.7568 6.064 55.9088 6.32C56.0608 6.568 56.1368 6.852 56.1368 7.172C56.1368 7.492 56.0608 7.78 55.9088 8.036C55.7568 8.292 55.5528 8.496 55.2968 8.648C55.0408 8.8 54.7488 8.876 54.4208 8.876ZM54.4208 7.856C54.6208 7.856 54.7808 7.792 54.9008 7.664C55.0208 7.536 55.0808 7.372 55.0808 7.172C55.0808 6.972 55.0168 6.812 54.8888 6.692C54.7688 6.564 54.6128 6.5 54.4208 6.5C54.2288 6.5 54.0728 6.564 53.9528 6.692C53.8328 6.812 53.7728 6.972 53.7728 7.172C53.7728 7.372 53.8328 7.536 53.9528 7.664C54.0728 7.792 54.2288 7.856 54.4208 7.856ZM57.9368 14.12C57.6248 14.12 57.3368 14.044 57.0728 13.892C56.8168 13.74 56.6128 13.536 56.4608 13.28C56.3088 13.024 56.2328 12.736 56.2328 12.416C56.2328 12.096 56.3088 11.812 56.4608 11.564C56.6128 11.308 56.8168 11.104 57.0728 10.952C57.3288 10.8 57.6168 10.724 57.9368 10.724C58.2568 10.724 58.5448 10.8 58.8008 10.952C59.0648 11.104 59.2728 11.308 59.4248 11.564C59.5768 11.812 59.6528 12.096 59.6528 12.416C59.6528 12.736 59.5768 13.024 59.4248 13.28C59.2728 13.536 59.0688 13.74 58.8128 13.892C58.5568 14.044 58.2648 14.12 57.9368 14.12ZM57.9368 13.1C58.1368 13.1 58.2968 13.036 58.4168 12.908C58.5448 12.78 58.6088 12.616 58.6088 12.416C58.6088 12.224 58.5448 12.064 58.4168 11.936C58.2888 11.808 58.1288 11.744 57.9368 11.744C57.7448 11.744 57.5888 11.808 57.4688 11.936C57.3488 12.064 57.2888 12.224 57.2888 12.416C57.2888 12.616 57.3488 12.78 57.4688 12.908C57.5888 13.036 57.7448 13.1 57.9368 13.1ZM52.8368 14L58.2248 5.6H59.5328L54.1448 14H52.8368Z" fill="#010101"/>
</svg>
