<svg width="134" height="32" viewBox="0 0 134 32" fill="none" xmlns="http://www.w3.org/2000/svg">
<path d="M0 0H133H0ZM133 32H0H133ZM0 32V0V32ZM125 0C129.971 0 134 4.02944 134 9V23C134 27.9706 129.971 32 125 32C128.866 32 132 28.4183 132 24V8C132 3.58172 128.866 0 125 0Z" fill="#F18500"/>
<path d="M12 17H18C18.55 17 19 16.55 19 16V8C19 7.45 18.55 7 18 7H12C11.45 7 11 7.45 11 8V16C11 16.55 11.45 17 12 17ZM12 25H18C18.55 25 19 24.55 19 24V20C19 19.45 18.55 19 18 19H12C11.45 19 11 19.45 11 20V24C11 24.55 11.45 25 12 25ZM22 25H28C28.55 25 29 24.55 29 24V16C29 15.45 28.55 15 28 15H22C21.45 15 21 15.45 21 16V24C21 24.55 21.45 25 22 25ZM21 8V12C21 12.55 21.45 13 22 13H28C28.55 13 29 12.55 29 12V8C29 7.45 28.55 7 28 7H22C21.45 7 21 7.45 21 8Z" fill="#F18500"/>
<path d="M43.152 23V11.752H45.328V23H43.152ZM50.208 23V11.752H52.384V23H50.208ZM44.528 18.152V16.232H50.816V18.152H44.528ZM58.2993 23.16C57.5206 23.16 56.8166 22.984 56.1873 22.632C55.5686 22.2693 55.0726 21.784 54.6993 21.176C54.3366 20.5573 54.1553 19.8693 54.1553 19.112C54.1553 18.3547 54.3366 17.6773 54.6993 17.08C55.0619 16.472 55.5579 15.992 56.1873 15.64C56.8166 15.2773 57.5153 15.096 58.2833 15.096C59.0726 15.096 59.7766 15.2773 60.3953 15.64C61.0246 15.992 61.5206 16.472 61.8833 17.08C62.2459 17.6773 62.4273 18.3547 62.4273 19.112C62.4273 19.8693 62.2459 20.5573 61.8833 21.176C61.5206 21.784 61.0246 22.2693 60.3953 22.632C59.7766 22.984 59.0779 23.16 58.2993 23.16ZM58.2833 21.208C58.6779 21.208 59.0246 21.1227 59.3233 20.952C59.6326 20.7707 59.8673 20.5253 60.0273 20.216C60.1979 19.896 60.2833 19.5333 60.2833 19.128C60.2833 18.7227 60.1979 18.3653 60.0273 18.056C59.8566 17.7467 59.6219 17.5067 59.3233 17.336C59.0246 17.1547 58.6779 17.064 58.2833 17.064C57.8993 17.064 57.5579 17.1547 57.2593 17.336C56.9606 17.5067 56.7259 17.7467 56.5553 18.056C56.3846 18.3653 56.2993 18.7227 56.2993 19.128C56.2993 19.5333 56.3846 19.896 56.5553 20.216C56.7259 20.5253 56.9606 20.7707 57.2593 20.952C57.5579 21.1227 57.8993 21.208 58.2833 21.208ZM63.9846 23V15.272H66.0806V23H63.9846ZM69.0246 23V18.44C69.0246 17.992 68.8806 17.6453 68.5926 17.4C68.3153 17.144 67.9686 17.016 67.5526 17.016C67.2753 17.016 67.0246 17.0747 66.8006 17.192C66.5766 17.2987 66.4006 17.4587 66.2726 17.672C66.1446 17.8853 66.0806 18.1413 66.0806 18.44L65.2646 18.04C65.2646 17.4427 65.3926 16.9253 65.6486 16.488C65.9153 16.0507 66.2726 15.7147 66.7206 15.48C67.1686 15.2347 67.6753 15.112 68.2406 15.112C68.774 15.112 69.2593 15.2347 69.6966 15.48C70.134 15.7147 70.4806 16.0507 70.7366 16.488C70.9926 16.9147 71.1206 17.432 71.1206 18.04V23H69.0246ZM74.0646 23V18.44C74.0646 17.992 73.9206 17.6453 73.6326 17.4C73.3553 17.144 73.0086 17.016 72.5926 17.016C72.326 17.016 72.0753 17.0747 71.8406 17.192C71.6166 17.2987 71.4406 17.4587 71.3126 17.672C71.1846 17.8853 71.1206 18.1413 71.1206 18.44L69.9206 18.152C69.9633 17.5333 70.1286 17 70.4166 16.552C70.7046 16.0933 71.0833 15.7413 71.5526 15.496C72.022 15.24 72.5446 15.112 73.1206 15.112C73.6966 15.112 74.214 15.2347 74.6726 15.48C75.1313 15.7147 75.494 16.056 75.7606 16.504C76.0273 16.952 76.1606 17.4853 76.1606 18.104V23H74.0646ZM81.7636 23.16C80.953 23.16 80.233 22.9893 79.6036 22.648C78.9743 22.296 78.473 21.816 78.0996 21.208C77.737 20.6 77.5556 19.9067 77.5556 19.128C77.5556 18.36 77.7316 17.6773 78.0836 17.08C78.4463 16.472 78.937 15.992 79.5556 15.64C80.1743 15.2773 80.8623 15.096 81.6196 15.096C82.3663 15.096 83.0223 15.2667 83.5876 15.608C84.1636 15.9387 84.6116 16.3973 84.9316 16.984C85.2623 17.56 85.4276 18.216 85.4276 18.952C85.4276 19.0907 85.417 19.2347 85.3956 19.384C85.385 19.5227 85.3583 19.6827 85.3156 19.864L78.8196 19.88V18.312L84.3396 18.296L83.4916 18.952C83.4703 18.4933 83.385 18.1093 83.2356 17.8C83.097 17.4907 82.889 17.256 82.6116 17.096C82.345 16.9253 82.0143 16.84 81.6196 16.84C81.2036 16.84 80.841 16.936 80.5316 17.128C80.2223 17.3093 79.9823 17.5707 79.8116 17.912C79.6516 18.2427 79.5716 18.6373 79.5716 19.096C79.5716 19.5653 79.657 19.976 79.8276 20.328C80.009 20.6693 80.265 20.936 80.5956 21.128C80.9263 21.3093 81.3103 21.4 81.7476 21.4C82.1423 21.4 82.4996 21.336 82.8196 21.208C83.1396 21.0693 83.417 20.8667 83.6516 20.6L84.8836 21.832C84.5103 22.2693 84.0516 22.6 83.5076 22.824C82.9743 23.048 82.393 23.16 81.7636 23.16Z" fill="white"/>
</svg>
