<svg width="34" height="35" viewBox="0 0 34 35" fill="none" xmlns="http://www.w3.org/2000/svg">
<rect x="1" y="1.5" width="32" height="32" rx="12" stroke="white" stroke-width="2"/>
<path d="M16.993 6.83349C17.3654 6.83349 17.7322 6.85619 18.0734 6.9096C18.4094 6.95096 18.741 7.01976 19.0643 7.11523C19.3884 7.20736 19.7054 7.32219 20.0225 7.46639C20.331 7.60392 20.648 7.77216 20.965 7.95508C21.501 8.27553 22.0284 8.53457 22.5658 8.74153C23.6237 9.1392 24.7423 9.37584 25.8796 9.44252C26.4568 9.48124 27.0496 9.50394 27.6666 9.50394V14.8448C27.6666 15.8596 27.5287 16.821 27.2529 17.7369C26.988 18.6398 26.6115 19.5105 26.1312 20.3313C25.6529 21.1509 25.0871 21.9226 24.4423 22.6345C23.7877 23.3626 23.0789 24.0462 22.3212 24.6801C21.5536 25.3158 20.7451 25.9067 19.9002 26.4492C19.0558 26.9994 18.2028 27.5107 17.3498 27.9754L17.0086 28.1663L16.6674 27.9754C15.7906 27.4986 14.9341 26.9895 14.0999 26.4492C13.2504 25.9128 12.4414 25.3216 11.6789 24.6801C10.9217 24.0462 10.2134 23.3626 9.55925 22.6345C8.91624 21.9196 8.34782 21.1483 7.86182 20.3313C7.38974 19.5069 7.01368 18.637 6.74015 17.7369C6.46261 16.7952 6.32577 15.8219 6.33357 14.8448V9.50394C6.95198 9.50394 7.5448 9.48124 8.12198 9.44252C8.69015 9.40545 9.25465 9.32914 9.81088 9.2142C10.3554 9.09937 10.8999 8.94715 11.4358 8.74153C11.992 8.53071 12.5252 8.27003 13.028 7.96309C13.6536 7.58122 14.2876 7.29949 14.9131 7.11389C15.5868 6.91993 16.2884 6.82533 16.993 6.83349ZM26.2364 10.8165C25.1603 10.7674 24.0942 10.5984 23.0605 10.3131C22.0323 10.025 21.0529 9.60107 20.1518 9.05397C19.6844 8.76582 19.1768 8.53981 18.6435 8.38235C18.1107 8.23112 17.5566 8.15639 17.0001 8.16071C16.4394 8.1573 15.8812 8.23199 15.3439 8.38235C14.8097 8.53469 14.3028 8.76106 13.8398 9.05397C12.9371 9.60405 11.9552 10.0299 10.924 10.3184C9.91608 10.5935 8.86123 10.7617 7.7552 10.8231V14.8515C7.7552 15.7368 7.87746 16.5833 8.12198 17.3991C8.37109 18.2078 8.71435 18.9883 9.14556 19.7264C9.58193 20.4722 10.0962 21.1753 10.6809 21.8254C11.2737 22.481 11.9064 23.0912 12.5888 23.6706C13.2711 24.2515 13.9862 24.7856 14.734 25.2809C15.4889 25.7776 16.2452 26.2276 17.0001 26.6388C17.773 26.2162 18.5267 25.7632 19.2591 25.2809C20.0118 24.7871 20.7306 24.2493 21.4114 23.6706C22.0938 23.0912 22.7278 22.481 23.3207 21.8254C23.9054 21.1753 24.4197 20.4722 24.856 19.7264C25.2853 18.9892 25.6235 18.2084 25.864 17.3991C26.1159 16.5708 26.2413 15.713 26.2364 14.8515V10.8165Z" fill="white"/>
<path fill-rule="evenodd" clip-rule="evenodd" d="M22.2932 13.1209L21.6676 12.6162L21.0905 12.6629L14.8921 19.5367L12.781 16.706L12.2124 16.6152L11.5541 17.0572L11.4561 17.5912L14.17 21.2311L14.4784 21.3913L15.1281 21.4287L15.4608 21.2925L22.3344 13.6617L22.2932 13.1209Z" fill="white"/>
</svg>
