<svg width="87" height="20" viewBox="0 0 87 20" fill="none" xmlns="http://www.w3.org/2000/svg">
<circle cx="6" cy="10" r="4" fill="#41E327"/>
<path d="M18.776 14.12C18.176 14.12 17.616 14.008 17.096 13.784C16.576 13.56 16.12 13.252 15.728 12.86C15.336 12.46 15.028 12 14.804 11.48C14.588 10.952 14.48 10.388 14.48 9.788C14.48 9.188 14.588 8.628 14.804 8.108C15.028 7.588 15.332 7.132 15.716 6.74C16.108 6.34 16.56 6.032 17.072 5.816C17.592 5.592 18.152 5.48 18.752 5.48C19.352 5.48 19.908 5.592 20.42 5.816C20.94 6.032 21.396 6.34 21.788 6.74C22.18 7.132 22.484 7.592 22.7 8.12C22.924 8.64 23.036 9.2 23.036 9.8C23.036 10.4 22.924 10.964 22.7 11.492C22.484 12.012 22.18 12.468 21.788 12.86C21.404 13.252 20.952 13.56 20.432 13.784C19.92 14.008 19.368 14.12 18.776 14.12ZM18.752 12.8C19.32 12.8 19.816 12.672 20.24 12.416C20.672 12.16 21.008 11.808 21.248 11.36C21.496 10.904 21.62 10.38 21.62 9.788C21.62 9.348 21.548 8.948 21.404 8.588C21.268 8.22 21.072 7.904 20.816 7.64C20.56 7.368 20.256 7.16 19.904 7.016C19.56 6.872 19.176 6.8 18.752 6.8C18.192 6.8 17.696 6.928 17.264 7.184C16.84 7.432 16.504 7.78 16.256 8.228C16.016 8.676 15.896 9.196 15.896 9.788C15.896 10.228 15.964 10.636 16.1 11.012C16.244 11.38 16.44 11.696 16.688 11.96C16.944 12.224 17.248 12.432 17.6 12.584C17.952 12.728 18.336 12.8 18.752 12.8ZM26.1448 14V5.84H27.5248V14H26.1448ZM23.4088 6.86V5.6H30.2608V6.86H23.4088ZM31.6185 14V5.6H32.9985V14H31.6185ZM36.9585 14V5.6H38.3385V14H36.9585ZM32.5665 10.28V9.02H37.2585V10.28H32.5665ZM40.3175 14V5.6H41.6975V14H40.3175ZM41.2655 14V12.74H45.9695V14H41.2655ZM41.2655 10.316V9.104H45.5615V10.316H41.2655ZM41.2655 6.86V5.6H45.9095V6.86H41.2655ZM48.4996 10.436V9.296H50.6236C51.0476 9.296 51.3756 9.188 51.6076 8.972C51.8476 8.748 51.9676 8.44 51.9676 8.048C51.9676 7.696 51.8516 7.4 51.6196 7.16C51.3876 6.92 51.0596 6.8 50.6356 6.8H48.4996V5.6H50.6956C51.2236 5.6 51.6876 5.708 52.0876 5.924C52.4876 6.132 52.7956 6.42 53.0116 6.788C53.2356 7.148 53.3476 7.56 53.3476 8.024C53.3476 8.512 53.2356 8.936 53.0116 9.296C52.7956 9.656 52.4876 9.936 52.0876 10.136C51.6876 10.336 51.2236 10.436 50.6956 10.436H48.4996ZM47.5516 14V5.6H48.9316V14H47.5516ZM52.1596 14L49.2196 10.352L50.5036 9.884L53.8996 14H52.1596ZM57.1726 14.12C56.5086 14.12 55.9446 14 55.4806 13.76C55.0166 13.52 54.6006 13.168 54.2326 12.704L55.1686 11.768C55.4006 12.104 55.6766 12.368 55.9966 12.56C56.3166 12.744 56.7246 12.836 57.2206 12.836C57.6846 12.836 58.0526 12.74 58.3246 12.548C58.6046 12.356 58.7446 12.092 58.7446 11.756C58.7446 11.476 58.6726 11.248 58.5286 11.072C58.3846 10.896 58.1926 10.752 57.9526 10.64C57.7206 10.52 57.4606 10.416 57.1726 10.328C56.8926 10.232 56.6086 10.128 56.3206 10.016C56.0406 9.896 55.7806 9.748 55.5406 9.572C55.3086 9.396 55.1206 9.168 54.9766 8.888C54.8326 8.608 54.7606 8.252 54.7606 7.82C54.7606 7.324 54.8806 6.904 55.1206 6.56C55.3686 6.208 55.7006 5.94 56.1166 5.756C56.5326 5.572 56.9966 5.48 57.5086 5.48C58.0606 5.48 58.5526 5.588 58.9846 5.804C59.4246 6.02 59.7806 6.296 60.0526 6.632L59.1166 7.568C58.8766 7.296 58.6246 7.096 58.3606 6.968C58.1046 6.832 57.8086 6.764 57.4726 6.764C57.0566 6.764 56.7286 6.848 56.4886 7.016C56.2566 7.184 56.1406 7.42 56.1406 7.724C56.1406 7.98 56.2126 8.188 56.3566 8.348C56.5006 8.5 56.6886 8.632 56.9206 8.744C57.1606 8.848 57.4206 8.948 57.7006 9.044C57.9886 9.14 58.2726 9.248 58.5526 9.368C58.8406 9.488 59.1006 9.644 59.3326 9.836C59.5726 10.02 59.7646 10.26 59.9086 10.556C60.0526 10.852 60.1246 11.224 60.1246 11.672C60.1246 12.424 59.8566 13.02 59.3206 13.46C58.7926 13.9 58.0766 14.12 57.1726 14.12ZM63.6389 13.184L66.7349 9.896C66.9909 9.624 67.1989 9.38 67.3589 9.164C67.5189 8.948 67.6349 8.744 67.7069 8.552C67.7789 8.36 67.8149 8.164 67.8149 7.964C67.8149 7.588 67.6909 7.296 67.4429 7.088C67.2029 6.872 66.8949 6.764 66.5189 6.764C66.1189 6.764 65.7669 6.864 65.4629 7.064C65.1589 7.264 64.8869 7.576 64.6469 8L63.6869 7.208C64.0149 6.64 64.4189 6.212 64.8989 5.924C65.3789 5.628 65.9349 5.48 66.5669 5.48C67.0869 5.48 67.5429 5.584 67.9349 5.792C68.3269 6 68.6309 6.292 68.8469 6.668C69.0629 7.036 69.1709 7.464 69.1709 7.952C69.1709 8.304 69.1269 8.62 69.0389 8.9C68.9589 9.172 68.8189 9.448 68.6189 9.728C68.4189 10 68.1429 10.32 67.7909 10.688L65.4149 13.148L63.6389 13.184ZM63.6389 14V13.184L64.8269 12.764H69.3389V14H63.6389ZM71.5951 14L74.0551 10.556L74.5471 10.256C74.4671 10.432 74.3631 10.588 74.2351 10.724C74.1151 10.86 73.9551 10.964 73.7551 11.036C73.5551 11.108 73.2991 11.144 72.9871 11.144C72.5071 11.144 72.0671 11.032 71.6671 10.808C71.2671 10.576 70.9471 10.256 70.7071 9.848C70.4671 9.44 70.3471 8.968 70.3471 8.432C70.3471 7.888 70.4791 7.392 70.7431 6.944C71.0151 6.496 71.3751 6.14 71.8231 5.876C72.2711 5.612 72.7711 5.48 73.3231 5.48C73.8831 5.48 74.3871 5.612 74.8351 5.876C75.2831 6.132 75.6351 6.48 75.8911 6.92C76.1551 7.352 76.2871 7.84 76.2871 8.384C76.2871 9.152 76.0191 9.928 75.4831 10.712L73.1911 14H71.5951ZM73.3231 10.064C73.6271 10.064 73.8991 9.992 74.1391 9.848C74.3791 9.704 74.5671 9.508 74.7031 9.26C74.8391 9.012 74.9071 8.736 74.9071 8.432C74.9071 8.112 74.8391 7.828 74.7031 7.58C74.5671 7.332 74.3791 7.136 74.1391 6.992C73.8991 6.848 73.6271 6.776 73.3231 6.776C73.0191 6.776 72.7471 6.848 72.5071 6.992C72.2671 7.136 72.0751 7.332 71.9311 7.58C71.7951 7.828 71.7271 8.112 71.7271 8.432C71.7271 8.744 71.7951 9.024 71.9311 9.272C72.0751 9.512 72.2671 9.704 72.5071 9.848C72.7551 9.992 73.0271 10.064 73.3231 10.064ZM79.0294 8.876C78.7174 8.876 78.4294 8.8 78.1654 8.648C77.9094 8.496 77.7054 8.292 77.5534 8.036C77.4014 7.78 77.3254 7.492 77.3254 7.172C77.3254 6.852 77.4014 6.568 77.5534 6.32C77.7054 6.064 77.9094 5.86 78.1654 5.708C78.4214 5.556 78.7094 5.48 79.0294 5.48C79.3494 5.48 79.6374 5.556 79.8934 5.708C80.1574 5.86 80.3654 6.064 80.5174 6.32C80.6694 6.568 80.7454 6.852 80.7454 7.172C80.7454 7.492 80.6694 7.78 80.5174 8.036C80.3654 8.292 80.1614 8.496 79.9054 8.648C79.6494 8.8 79.3574 8.876 79.0294 8.876ZM79.0294 7.856C79.2294 7.856 79.3894 7.792 79.5094 7.664C79.6294 7.536 79.6894 7.372 79.6894 7.172C79.6894 6.972 79.6254 6.812 79.4974 6.692C79.3774 6.564 79.2214 6.5 79.0294 6.5C78.8374 6.5 78.6814 6.564 78.5614 6.692C78.4414 6.812 78.3814 6.972 78.3814 7.172C78.3814 7.372 78.4414 7.536 78.5614 7.664C78.6814 7.792 78.8374 7.856 79.0294 7.856ZM82.5454 14.12C82.2334 14.12 81.9454 14.044 81.6814 13.892C81.4254 13.74 81.2214 13.536 81.0694 13.28C80.9174 13.024 80.8414 12.736 80.8414 12.416C80.8414 12.096 80.9174 11.812 81.0694 11.564C81.2214 11.308 81.4254 11.104 81.6814 10.952C81.9374 10.8 82.2254 10.724 82.5454 10.724C82.8654 10.724 83.1534 10.8 83.4094 10.952C83.6734 11.104 83.8814 11.308 84.0334 11.564C84.1854 11.812 84.2614 12.096 84.2614 12.416C84.2614 12.736 84.1854 13.024 84.0334 13.28C83.8814 13.536 83.6774 13.74 83.4214 13.892C83.1654 14.044 82.8734 14.12 82.5454 14.12ZM82.5454 13.1C82.7454 13.1 82.9054 13.036 83.0254 12.908C83.1534 12.78 83.2174 12.616 83.2174 12.416C83.2174 12.224 83.1534 12.064 83.0254 11.936C82.8974 11.808 82.7374 11.744 82.5454 11.744C82.3534 11.744 82.1974 11.808 82.0774 11.936C81.9574 12.064 81.8974 12.224 81.8974 12.416C81.8974 12.616 81.9574 12.78 82.0774 12.908C82.1974 13.036 82.3534 13.1 82.5454 13.1ZM77.4454 14L82.8334 5.6H84.1414L78.7534 14H77.4454Z" fill="#010101"/>
</svg>
