<svg width="40" height="384" viewBox="0 0 40 384" fill="none" xmlns="http://www.w3.org/2000/svg">
<path d="M5.992 16V7.6H7.348V16H5.992ZM4.312 8.836V7.6H7.228V8.836H4.312ZM12.3696 16.12C11.7376 16.12 11.1576 15.944 10.6296 15.592C10.1096 15.232 9.69363 14.728 9.38163 14.08C9.06963 13.432 8.91363 12.668 8.91363 11.788C8.91363 10.908 9.06563 10.148 9.36963 9.508C9.68163 8.86 10.0976 8.36 10.6176 8.008C11.1376 7.656 11.7136 7.48 12.3456 7.48C12.9856 7.48 13.5656 7.656 14.0856 8.008C14.6056 8.36 15.0176 8.86 15.3216 9.508C15.6336 10.148 15.7896 10.912 15.7896 11.8C15.7896 12.68 15.6336 13.444 15.3216 14.092C15.0176 14.74 14.6056 15.24 14.0856 15.592C13.5736 15.944 13.0016 16.12 12.3696 16.12ZM12.3456 14.824C12.7616 14.824 13.1216 14.712 13.4256 14.488C13.7296 14.264 13.9656 13.928 14.1336 13.48C14.3096 13.032 14.3976 12.468 14.3976 11.788C14.3976 11.116 14.3096 10.556 14.1336 10.108C13.9656 9.66 13.7256 9.328 13.4136 9.112C13.1096 8.888 12.7536 8.776 12.3456 8.776C11.9376 8.776 11.5776 8.888 11.2656 9.112C10.9616 9.328 10.7256 9.66 10.5576 10.108C10.3896 10.548 10.3056 11.108 10.3056 11.788C10.3056 12.468 10.3896 13.032 10.5576 13.48C10.7256 13.928 10.9616 14.264 11.2656 14.488C11.5776 14.712 11.9376 14.824 12.3456 14.824ZM20.3889 16.12C19.7569 16.12 19.1769 15.944 18.6489 15.592C18.1289 15.232 17.7129 14.728 17.4009 14.08C17.0889 13.432 16.9329 12.668 16.9329 11.788C16.9329 10.908 17.0849 10.148 17.3889 9.508C17.7009 8.86 18.1169 8.36 18.6369 8.008C19.1569 7.656 19.7329 7.48 20.3649 7.48C21.0049 7.48 21.5849 7.656 22.1049 8.008C22.6249 8.36 23.0369 8.86 23.3409 9.508C23.6529 10.148 23.8089 10.912 23.8089 11.8C23.8089 12.68 23.6529 13.444 23.3409 14.092C23.0369 14.74 22.6249 15.24 22.1049 15.592C21.5929 15.944 21.0209 16.12 20.3889 16.12ZM20.3649 14.824C20.7809 14.824 21.1409 14.712 21.4449 14.488C21.7489 14.264 21.9849 13.928 22.1529 13.48C22.3289 13.032 22.4169 12.468 22.4169 11.788C22.4169 11.116 22.3289 10.556 22.1529 10.108C21.9849 9.66 21.7449 9.328 21.4329 9.112C21.1289 8.888 20.7729 8.776 20.3649 8.776C19.9569 8.776 19.5969 8.888 19.2849 9.112C18.9809 9.328 18.7449 9.66 18.5769 10.108C18.4089 10.548 18.3249 11.108 18.3249 11.788C18.3249 12.468 18.4089 13.032 18.5769 13.48C18.7449 13.928 18.9809 14.264 19.2849 14.488C19.5969 14.712 19.9569 14.824 20.3649 14.824ZM26.6442 10.876C26.3322 10.876 26.0442 10.8 25.7802 10.648C25.5242 10.496 25.3202 10.292 25.1682 10.036C25.0162 9.78 24.9402 9.492 24.9402 9.172C24.9402 8.852 25.0162 8.568 25.1682 8.32C25.3202 8.064 25.5242 7.86 25.7802 7.708C26.0362 7.556 26.3242 7.48 26.6442 7.48C26.9642 7.48 27.2522 7.556 27.5082 7.708C27.7722 7.86 27.9802 8.064 28.1322 8.32C28.2842 8.568 28.3602 8.852 28.3602 9.172C28.3602 9.492 28.2842 9.78 28.1322 10.036C27.9802 10.292 27.7762 10.496 27.5202 10.648C27.2642 10.8 26.9722 10.876 26.6442 10.876ZM26.6442 9.856C26.8442 9.856 27.0042 9.792 27.1242 9.664C27.2442 9.536 27.3042 9.372 27.3042 9.172C27.3042 8.972 27.2402 8.812 27.1122 8.692C26.9922 8.564 26.8362 8.5 26.6442 8.5C26.4522 8.5 26.2962 8.564 26.1762 8.692C26.0562 8.812 25.9962 8.972 25.9962 9.172C25.9962 9.372 26.0562 9.536 26.1762 9.664C26.2962 9.792 26.4522 9.856 26.6442 9.856ZM30.1602 16.12C29.8482 16.12 29.5602 16.044 29.2962 15.892C29.0402 15.74 28.8362 15.536 28.6842 15.28C28.5322 15.024 28.4562 14.736 28.4562 14.416C28.4562 14.096 28.5322 13.812 28.6842 13.564C28.8362 13.308 29.0402 13.104 29.2962 12.952C29.5522 12.8 29.8402 12.724 30.1602 12.724C30.4802 12.724 30.7682 12.8 31.0242 12.952C31.2882 13.104 31.4962 13.308 31.6482 13.564C31.8002 13.812 31.8762 14.096 31.8762 14.416C31.8762 14.736 31.8002 15.024 31.6482 15.28C31.4962 15.536 31.2922 15.74 31.0362 15.892C30.7802 16.044 30.4882 16.12 30.1602 16.12ZM30.1602 15.1C30.3602 15.1 30.5202 15.036 30.6402 14.908C30.7682 14.78 30.8322 14.616 30.8322 14.416C30.8322 14.224 30.7682 14.064 30.6402 13.936C30.5122 13.808 30.3522 13.744 30.1602 13.744C29.9682 13.744 29.8122 13.808 29.6922 13.936C29.5722 14.064 29.5122 14.224 29.5122 14.416C29.5122 14.616 29.5722 14.78 29.6922 14.908C29.8122 15.036 29.9682 15.1 30.1602 15.1ZM25.0602 16L30.4482 7.6H31.7562L26.3682 16H25.0602Z" fill="#010101"/>
<path d="M5.644 52L8.104 48.556L8.596 48.256C8.516 48.432 8.412 48.588 8.284 48.724C8.164 48.86 8.004 48.964 7.804 49.036C7.604 49.108 7.348 49.144 7.036 49.144C6.556 49.144 6.116 49.032 5.716 48.808C5.316 48.576 4.996 48.256 4.756 47.848C4.516 47.44 4.396 46.968 4.396 46.432C4.396 45.888 4.528 45.392 4.792 44.944C5.064 44.496 5.424 44.14 5.872 43.876C6.32 43.612 6.82 43.48 7.372 43.48C7.932 43.48 8.436 43.612 8.884 43.876C9.332 44.132 9.684 44.48 9.94 44.92C10.204 45.352 10.336 45.84 10.336 46.384C10.336 47.152 10.068 47.928 9.532 48.712L7.24 52H5.644ZM7.372 48.064C7.676 48.064 7.948 47.992 8.188 47.848C8.428 47.704 8.616 47.508 8.752 47.26C8.888 47.012 8.956 46.736 8.956 46.432C8.956 46.112 8.888 45.828 8.752 45.58C8.616 45.332 8.428 45.136 8.188 44.992C7.948 44.848 7.676 44.776 7.372 44.776C7.068 44.776 6.796 44.848 6.556 44.992C6.316 45.136 6.124 45.332 5.98 45.58C5.844 45.828 5.776 46.112 5.776 46.432C5.776 46.744 5.844 47.024 5.98 47.272C6.124 47.512 6.316 47.704 6.556 47.848C6.804 47.992 7.076 48.064 7.372 48.064ZM14.8423 52.12C14.2103 52.12 13.6303 51.944 13.1023 51.592C12.5823 51.232 12.1663 50.728 11.8543 50.08C11.5423 49.432 11.3863 48.668 11.3863 47.788C11.3863 46.908 11.5383 46.148 11.8423 45.508C12.1543 44.86 12.5703 44.36 13.0903 44.008C13.6103 43.656 14.1863 43.48 14.8183 43.48C15.4583 43.48 16.0383 43.656 16.5583 44.008C17.0783 44.36 17.4903 44.86 17.7943 45.508C18.1063 46.148 18.2623 46.912 18.2623 47.8C18.2623 48.68 18.1063 49.444 17.7943 50.092C17.4903 50.74 17.0783 51.24 16.5583 51.592C16.0463 51.944 15.4743 52.12 14.8423 52.12ZM14.8183 50.824C15.2343 50.824 15.5943 50.712 15.8983 50.488C16.2023 50.264 16.4383 49.928 16.6063 49.48C16.7823 49.032 16.8703 48.468 16.8703 47.788C16.8703 47.116 16.7823 46.556 16.6063 46.108C16.4383 45.66 16.1983 45.328 15.8863 45.112C15.5823 44.888 15.2263 44.776 14.8183 44.776C14.4103 44.776 14.0503 44.888 13.7383 45.112C13.4343 45.328 13.1983 45.66 13.0303 46.108C12.8623 46.548 12.7783 47.108 12.7783 47.788C12.7783 48.468 12.8623 49.032 13.0303 49.48C13.1983 49.928 13.4343 50.264 13.7383 50.488C14.0503 50.712 14.4103 50.824 14.8183 50.824ZM21.0976 46.876C20.7856 46.876 20.4976 46.8 20.2336 46.648C19.9776 46.496 19.7736 46.292 19.6216 46.036C19.4696 45.78 19.3936 45.492 19.3936 45.172C19.3936 44.852 19.4696 44.568 19.6216 44.32C19.7736 44.064 19.9776 43.86 20.2336 43.708C20.4896 43.556 20.7776 43.48 21.0976 43.48C21.4176 43.48 21.7056 43.556 21.9616 43.708C22.2256 43.86 22.4336 44.064 22.5856 44.32C22.7376 44.568 22.8136 44.852 22.8136 45.172C22.8136 45.492 22.7376 45.78 22.5856 46.036C22.4336 46.292 22.2296 46.496 21.9736 46.648C21.7176 46.8 21.4256 46.876 21.0976 46.876ZM21.0976 45.856C21.2976 45.856 21.4576 45.792 21.5776 45.664C21.6976 45.536 21.7576 45.372 21.7576 45.172C21.7576 44.972 21.6936 44.812 21.5656 44.692C21.4456 44.564 21.2896 44.5 21.0976 44.5C20.9056 44.5 20.7496 44.564 20.6296 44.692C20.5096 44.812 20.4496 44.972 20.4496 45.172C20.4496 45.372 20.5096 45.536 20.6296 45.664C20.7496 45.792 20.9056 45.856 21.0976 45.856ZM24.6136 52.12C24.3016 52.12 24.0136 52.044 23.7496 51.892C23.4936 51.74 23.2896 51.536 23.1376 51.28C22.9856 51.024 22.9096 50.736 22.9096 50.416C22.9096 50.096 22.9856 49.812 23.1376 49.564C23.2896 49.308 23.4936 49.104 23.7496 48.952C24.0056 48.8 24.2936 48.724 24.6136 48.724C24.9336 48.724 25.2216 48.8 25.4776 48.952C25.7416 49.104 25.9496 49.308 26.1016 49.564C26.2536 49.812 26.3296 50.096 26.3296 50.416C26.3296 50.736 26.2536 51.024 26.1016 51.28C25.9496 51.536 25.7456 51.74 25.4896 51.892C25.2336 52.044 24.9416 52.12 24.6136 52.12ZM24.6136 51.1C24.8136 51.1 24.9736 51.036 25.0936 50.908C25.2216 50.78 25.2856 50.616 25.2856 50.416C25.2856 50.224 25.2216 50.064 25.0936 49.936C24.9656 49.808 24.8056 49.744 24.6136 49.744C24.4216 49.744 24.2656 49.808 24.1456 49.936C24.0256 50.064 23.9656 50.224 23.9656 50.416C23.9656 50.616 24.0256 50.78 24.1456 50.908C24.2656 51.036 24.4216 51.1 24.6136 51.1ZM19.5136 52L24.9016 43.6H26.2096L20.8216 52H19.5136Z" fill="#010101"/>
<path d="M7.288 88.12C6.712 88.12 6.212 88.016 5.788 87.808C5.364 87.6 5.032 87.312 4.792 86.944C4.56 86.568 4.444 86.144 4.444 85.672C4.444 85.296 4.516 84.952 4.66 84.64C4.812 84.32 5.028 84.048 5.308 83.824C5.596 83.6 5.936 83.44 6.328 83.344L6.292 83.728C5.972 83.64 5.7 83.496 5.476 83.296C5.26 83.096 5.096 82.86 4.984 82.588C4.872 82.316 4.816 82.032 4.816 81.736C4.816 81.288 4.92 80.896 5.128 80.56C5.344 80.216 5.64 79.948 6.016 79.756C6.392 79.564 6.816 79.468 7.288 79.468C7.768 79.468 8.192 79.564 8.56 79.756C8.936 79.948 9.228 80.216 9.436 80.56C9.652 80.896 9.76 81.288 9.76 81.736C9.76 82.032 9.704 82.316 9.592 82.588C9.48 82.86 9.316 83.096 9.1 83.296C8.884 83.496 8.612 83.64 8.284 83.728L8.248 83.344C8.648 83.44 8.988 83.6 9.268 83.824C9.548 84.048 9.76 84.32 9.904 84.64C10.056 84.952 10.132 85.296 10.132 85.672C10.132 86.144 10.016 86.568 9.784 86.944C9.552 87.312 9.22 87.6 8.788 87.808C8.364 88.016 7.864 88.12 7.288 88.12ZM7.288 86.872C7.584 86.872 7.844 86.812 8.068 86.692C8.3 86.572 8.48 86.408 8.608 86.2C8.744 85.992 8.812 85.756 8.812 85.492C8.812 85.22 8.744 84.984 8.608 84.784C8.48 84.576 8.3 84.412 8.068 84.292C7.844 84.172 7.584 84.112 7.288 84.112C6.992 84.112 6.728 84.172 6.496 84.292C6.272 84.412 6.092 84.576 5.956 84.784C5.828 84.984 5.764 85.22 5.764 85.492C5.764 85.756 5.828 85.992 5.956 86.2C6.092 86.408 6.272 86.572 6.496 86.692C6.728 86.812 6.992 86.872 7.288 86.872ZM7.288 83.032C7.64 83.032 7.928 82.92 8.152 82.696C8.376 82.472 8.488 82.184 8.488 81.832C8.488 81.48 8.376 81.196 8.152 80.98C7.928 80.756 7.64 80.644 7.288 80.644C6.944 80.644 6.656 80.756 6.424 80.98C6.2 81.196 6.088 81.48 6.088 81.832C6.088 82.184 6.2 82.472 6.424 82.696C6.656 82.92 6.944 83.032 7.288 83.032ZM14.6782 88.12C14.0462 88.12 13.4662 87.944 12.9382 87.592C12.4182 87.232 12.0022 86.728 11.6902 86.08C11.3782 85.432 11.2222 84.668 11.2222 83.788C11.2222 82.908 11.3742 82.148 11.6782 81.508C11.9902 80.86 12.4062 80.36 12.9262 80.008C13.4462 79.656 14.0222 79.48 14.6542 79.48C15.2942 79.48 15.8742 79.656 16.3942 80.008C16.9142 80.36 17.3262 80.86 17.6302 81.508C17.9422 82.148 18.0982 82.912 18.0982 83.8C18.0982 84.68 17.9422 85.444 17.6302 86.092C17.3262 86.74 16.9142 87.24 16.3942 87.592C15.8822 87.944 15.3102 88.12 14.6782 88.12ZM14.6542 86.824C15.0702 86.824 15.4302 86.712 15.7342 86.488C16.0382 86.264 16.2742 85.928 16.4422 85.48C16.6182 85.032 16.7062 84.468 16.7062 83.788C16.7062 83.116 16.6182 82.556 16.4422 82.108C16.2742 81.66 16.0342 81.328 15.7222 81.112C15.4182 80.888 15.0622 80.776 14.6542 80.776C14.2462 80.776 13.8862 80.888 13.5742 81.112C13.2702 81.328 13.0342 81.66 12.8662 82.108C12.6982 82.548 12.6142 83.108 12.6142 83.788C12.6142 84.468 12.6982 85.032 12.8662 85.48C13.0342 85.928 13.2702 86.264 13.5742 86.488C13.8862 86.712 14.2462 86.824 14.6542 86.824ZM20.9335 82.876C20.6215 82.876 20.3335 82.8 20.0695 82.648C19.8135 82.496 19.6095 82.292 19.4575 82.036C19.3055 81.78 19.2295 81.492 19.2295 81.172C19.2295 80.852 19.3055 80.568 19.4575 80.32C19.6095 80.064 19.8135 79.86 20.0695 79.708C20.3255 79.556 20.6135 79.48 20.9335 79.48C21.2535 79.48 21.5415 79.556 21.7975 79.708C22.0615 79.86 22.2695 80.064 22.4215 80.32C22.5735 80.568 22.6495 80.852 22.6495 81.172C22.6495 81.492 22.5735 81.78 22.4215 82.036C22.2695 82.292 22.0655 82.496 21.8095 82.648C21.5535 82.8 21.2615 82.876 20.9335 82.876ZM20.9335 81.856C21.1335 81.856 21.2935 81.792 21.4135 81.664C21.5335 81.536 21.5935 81.372 21.5935 81.172C21.5935 80.972 21.5295 80.812 21.4015 80.692C21.2815 80.564 21.1255 80.5 20.9335 80.5C20.7415 80.5 20.5855 80.564 20.4655 80.692C20.3455 80.812 20.2855 80.972 20.2855 81.172C20.2855 81.372 20.3455 81.536 20.4655 81.664C20.5855 81.792 20.7415 81.856 20.9335 81.856ZM24.4495 88.12C24.1375 88.12 23.8495 88.044 23.5855 87.892C23.3295 87.74 23.1255 87.536 22.9735 87.28C22.8215 87.024 22.7455 86.736 22.7455 86.416C22.7455 86.096 22.8215 85.812 22.9735 85.564C23.1255 85.308 23.3295 85.104 23.5855 84.952C23.8415 84.8 24.1295 84.724 24.4495 84.724C24.7695 84.724 25.0575 84.8 25.3135 84.952C25.5775 85.104 25.7855 85.308 25.9375 85.564C26.0895 85.812 26.1655 86.096 26.1655 86.416C26.1655 86.736 26.0895 87.024 25.9375 87.28C25.7855 87.536 25.5815 87.74 25.3255 87.892C25.0695 88.044 24.7775 88.12 24.4495 88.12ZM24.4495 87.1C24.6495 87.1 24.8095 87.036 24.9295 86.908C25.0575 86.78 25.1215 86.616 25.1215 86.416C25.1215 86.224 25.0575 86.064 24.9295 85.936C24.8015 85.808 24.6415 85.744 24.4495 85.744C24.2575 85.744 24.1015 85.808 23.9815 85.936C23.8615 86.064 23.8015 86.224 23.8015 86.416C23.8015 86.616 23.8615 86.78 23.9815 86.908C24.1015 87.036 24.2575 87.1 24.4495 87.1ZM19.3495 88L24.7375 79.6H26.0455L20.6575 88H19.3495Z" fill="#010101"/>
<path d="M5.512 124L8.572 116.44H9.94L6.952 124H5.512ZM4.312 116.836V115.6H9.94V116.44L9.352 116.836H4.312ZM14.186 124.12C13.554 124.12 12.974 123.944 12.446 123.592C11.926 123.232 11.51 122.728 11.198 122.08C10.886 121.432 10.73 120.668 10.73 119.788C10.73 118.908 10.882 118.148 11.186 117.508C11.498 116.86 11.914 116.36 12.434 116.008C12.954 115.656 13.53 115.48 14.162 115.48C14.802 115.48 15.382 115.656 15.902 116.008C16.422 116.36 16.834 116.86 17.138 117.508C17.45 118.148 17.606 118.912 17.606 119.8C17.606 120.68 17.45 121.444 17.138 122.092C16.834 122.74 16.422 123.24 15.902 123.592C15.39 123.944 14.818 124.12 14.186 124.12ZM14.162 122.824C14.578 122.824 14.938 122.712 15.242 122.488C15.546 122.264 15.782 121.928 15.95 121.48C16.126 121.032 16.214 120.468 16.214 119.788C16.214 119.116 16.126 118.556 15.95 118.108C15.782 117.66 15.542 117.328 15.23 117.112C14.926 116.888 14.57 116.776 14.162 116.776C13.754 116.776 13.394 116.888 13.082 117.112C12.778 117.328 12.542 117.66 12.374 118.108C12.206 118.548 12.122 119.108 12.122 119.788C12.122 120.468 12.206 121.032 12.374 121.48C12.542 121.928 12.778 122.264 13.082 122.488C13.394 122.712 13.754 122.824 14.162 122.824ZM20.4413 118.876C20.1293 118.876 19.8413 118.8 19.5773 118.648C19.3213 118.496 19.1173 118.292 18.9653 118.036C18.8133 117.78 18.7373 117.492 18.7373 117.172C18.7373 116.852 18.8133 116.568 18.9653 116.32C19.1173 116.064 19.3213 115.86 19.5773 115.708C19.8333 115.556 20.1213 115.48 20.4413 115.48C20.7613 115.48 21.0493 115.556 21.3053 115.708C21.5693 115.86 21.7773 116.064 21.9293 116.32C22.0813 116.568 22.1573 116.852 22.1573 117.172C22.1573 117.492 22.0813 117.78 21.9293 118.036C21.7773 118.292 21.5733 118.496 21.3173 118.648C21.0613 118.8 20.7693 118.876 20.4413 118.876ZM20.4413 117.856C20.6413 117.856 20.8013 117.792 20.9213 117.664C21.0413 117.536 21.1013 117.372 21.1013 117.172C21.1013 116.972 21.0373 116.812 20.9093 116.692C20.7893 116.564 20.6333 116.5 20.4413 116.5C20.2493 116.5 20.0933 116.564 19.9733 116.692C19.8533 116.812 19.7933 116.972 19.7933 117.172C19.7933 117.372 19.8533 117.536 19.9733 117.664C20.0933 117.792 20.2493 117.856 20.4413 117.856ZM23.9573 124.12C23.6453 124.12 23.3573 124.044 23.0933 123.892C22.8373 123.74 22.6333 123.536 22.4813 123.28C22.3293 123.024 22.2533 122.736 22.2533 122.416C22.2533 122.096 22.3293 121.812 22.4813 121.564C22.6333 121.308 22.8373 121.104 23.0933 120.952C23.3493 120.8 23.6373 120.724 23.9573 120.724C24.2773 120.724 24.5653 120.8 24.8213 120.952C25.0853 121.104 25.2933 121.308 25.4453 121.564C25.5973 121.812 25.6733 122.096 25.6733 122.416C25.6733 122.736 25.5973 123.024 25.4453 123.28C25.2933 123.536 25.0893 123.74 24.8333 123.892C24.5773 124.044 24.2853 124.12 23.9573 124.12ZM23.9573 123.1C24.1573 123.1 24.3173 123.036 24.4373 122.908C24.5653 122.78 24.6293 122.616 24.6293 122.416C24.6293 122.224 24.5653 122.064 24.4373 121.936C24.3093 121.808 24.1493 121.744 23.9573 121.744C23.7653 121.744 23.6093 121.808 23.4893 121.936C23.3693 122.064 23.3093 122.224 23.3093 122.416C23.3093 122.616 23.3693 122.78 23.4893 122.908C23.6093 123.036 23.7653 123.1 23.9573 123.1ZM18.8573 124L24.2453 115.6H25.5533L20.1653 124H18.8573Z" fill="#010101"/>
<path d="M7.372 160.12C6.812 160.12 6.308 159.992 5.86 159.736C5.412 159.472 5.056 159.12 4.792 158.68C4.536 158.24 4.408 157.752 4.408 157.216C4.408 156.448 4.676 155.672 5.212 154.888L7.504 151.6H9.1L6.652 155.044L6.148 155.344C6.228 155.16 6.328 155.004 6.448 154.876C6.576 154.74 6.74 154.636 6.94 154.564C7.148 154.492 7.404 154.456 7.708 154.456C8.196 154.456 8.636 154.572 9.028 154.804C9.428 155.028 9.748 155.344 9.988 155.752C10.228 156.152 10.348 156.624 10.348 157.168C10.348 157.712 10.216 158.208 9.952 158.656C9.688 159.104 9.328 159.46 8.872 159.724C8.424 159.988 7.924 160.12 7.372 160.12ZM7.372 158.824C7.676 158.824 7.948 158.752 8.188 158.608C8.428 158.464 8.616 158.268 8.752 158.02C8.896 157.764 8.968 157.48 8.968 157.168C8.968 156.856 8.896 156.576 8.752 156.328C8.616 156.08 8.428 155.888 8.188 155.752C7.948 155.608 7.676 155.536 7.372 155.536C7.068 155.536 6.796 155.608 6.556 155.752C6.316 155.896 6.128 156.092 5.992 156.34C5.856 156.58 5.788 156.856 5.788 157.168C5.788 157.48 5.856 157.764 5.992 158.02C6.128 158.268 6.316 158.464 6.556 158.608C6.796 158.752 7.068 158.824 7.372 158.824ZM14.8423 160.12C14.2103 160.12 13.6303 159.944 13.1023 159.592C12.5823 159.232 12.1663 158.728 11.8543 158.08C11.5423 157.432 11.3863 156.668 11.3863 155.788C11.3863 154.908 11.5383 154.148 11.8423 153.508C12.1543 152.86 12.5703 152.36 13.0903 152.008C13.6103 151.656 14.1863 151.48 14.8183 151.48C15.4583 151.48 16.0383 151.656 16.5583 152.008C17.0783 152.36 17.4903 152.86 17.7943 153.508C18.1063 154.148 18.2623 154.912 18.2623 155.8C18.2623 156.68 18.1063 157.444 17.7943 158.092C17.4903 158.74 17.0783 159.24 16.5583 159.592C16.0463 159.944 15.4743 160.12 14.8423 160.12ZM14.8183 158.824C15.2343 158.824 15.5943 158.712 15.8983 158.488C16.2023 158.264 16.4383 157.928 16.6063 157.48C16.7823 157.032 16.8703 156.468 16.8703 155.788C16.8703 155.116 16.7823 154.556 16.6063 154.108C16.4383 153.66 16.1983 153.328 15.8863 153.112C15.5823 152.888 15.2263 152.776 14.8183 152.776C14.4103 152.776 14.0503 152.888 13.7383 153.112C13.4343 153.328 13.1983 153.66 13.0303 154.108C12.8623 154.548 12.7783 155.108 12.7783 155.788C12.7783 156.468 12.8623 157.032 13.0303 157.48C13.1983 157.928 13.4343 158.264 13.7383 158.488C14.0503 158.712 14.4103 158.824 14.8183 158.824ZM21.0976 154.876C20.7856 154.876 20.4976 154.8 20.2336 154.648C19.9776 154.496 19.7736 154.292 19.6216 154.036C19.4696 153.78 19.3936 153.492 19.3936 153.172C19.3936 152.852 19.4696 152.568 19.6216 152.32C19.7736 152.064 19.9776 151.86 20.2336 151.708C20.4896 151.556 20.7776 151.48 21.0976 151.48C21.4176 151.48 21.7056 151.556 21.9616 151.708C22.2256 151.86 22.4336 152.064 22.5856 152.32C22.7376 152.568 22.8136 152.852 22.8136 153.172C22.8136 153.492 22.7376 153.78 22.5856 154.036C22.4336 154.292 22.2296 154.496 21.9736 154.648C21.7176 154.8 21.4256 154.876 21.0976 154.876ZM21.0976 153.856C21.2976 153.856 21.4576 153.792 21.5776 153.664C21.6976 153.536 21.7576 153.372 21.7576 153.172C21.7576 152.972 21.6936 152.812 21.5656 152.692C21.4456 152.564 21.2896 152.5 21.0976 152.5C20.9056 152.5 20.7496 152.564 20.6296 152.692C20.5096 152.812 20.4496 152.972 20.4496 153.172C20.4496 153.372 20.5096 153.536 20.6296 153.664C20.7496 153.792 20.9056 153.856 21.0976 153.856ZM24.6136 160.12C24.3016 160.12 24.0136 160.044 23.7496 159.892C23.4936 159.74 23.2896 159.536 23.1376 159.28C22.9856 159.024 22.9096 158.736 22.9096 158.416C22.9096 158.096 22.9856 157.812 23.1376 157.564C23.2896 157.308 23.4936 157.104 23.7496 156.952C24.0056 156.8 24.2936 156.724 24.6136 156.724C24.9336 156.724 25.2216 156.8 25.4776 156.952C25.7416 157.104 25.9496 157.308 26.1016 157.564C26.2536 157.812 26.3296 158.096 26.3296 158.416C26.3296 158.736 26.2536 159.024 26.1016 159.28C25.9496 159.536 25.7456 159.74 25.4896 159.892C25.2336 160.044 24.9416 160.12 24.6136 160.12ZM24.6136 159.1C24.8136 159.1 24.9736 159.036 25.0936 158.908C25.2216 158.78 25.2856 158.616 25.2856 158.416C25.2856 158.224 25.2216 158.064 25.0936 157.936C24.9656 157.808 24.8056 157.744 24.6136 157.744C24.4216 157.744 24.2656 157.808 24.1456 157.936C24.0256 158.064 23.9656 158.224 23.9656 158.416C23.9656 158.616 24.0256 158.78 24.1456 158.908C24.2656 159.036 24.4216 159.1 24.6136 159.1ZM19.5136 160L24.9016 151.6H26.2096L20.8216 160H19.5136Z" fill="#010101"/>
<path d="M6.964 196.12C6.38 196.12 5.86 196.02 5.404 195.82C4.948 195.612 4.564 195.312 4.252 194.92L5.188 193.984C5.356 194.24 5.592 194.444 5.896 194.596C6.208 194.748 6.556 194.824 6.94 194.824C7.292 194.824 7.6 194.76 7.864 194.632C8.128 194.504 8.336 194.32 8.488 194.08C8.64 193.84 8.716 193.556 8.716 193.228C8.716 192.884 8.64 192.6 8.488 192.376C8.344 192.144 8.148 191.972 7.9 191.86C7.66 191.74 7.4 191.68 7.12 191.68C6.8 191.68 6.512 191.716 6.256 191.788C6.008 191.86 5.764 191.988 5.524 192.172L5.56 191.308C5.688 191.14 5.836 191.004 6.004 190.9C6.172 190.788 6.368 190.704 6.592 190.648C6.816 190.592 7.08 190.564 7.384 190.564C7.976 190.564 8.472 190.688 8.872 190.936C9.28 191.184 9.588 191.516 9.796 191.932C10.004 192.34 10.108 192.796 10.108 193.3C10.108 193.844 9.972 194.328 9.7 194.752C9.436 195.176 9.068 195.512 8.596 195.76C8.124 196 7.58 196.12 6.964 196.12ZM5.524 192.172L4.768 191.416L5.14 187.6H6.4L5.968 191.572L5.524 192.172ZM5.38 188.836L5.14 187.6H9.64V188.836H5.38ZM14.6431 196.12C14.0111 196.12 13.4311 195.944 12.9031 195.592C12.3831 195.232 11.9671 194.728 11.6551 194.08C11.3431 193.432 11.1871 192.668 11.1871 191.788C11.1871 190.908 11.3391 190.148 11.6431 189.508C11.9551 188.86 12.3711 188.36 12.8911 188.008C13.4111 187.656 13.9871 187.48 14.6191 187.48C15.2591 187.48 15.8391 187.656 16.3591 188.008C16.8791 188.36 17.2911 188.86 17.5951 189.508C17.9071 190.148 18.0631 190.912 18.0631 191.8C18.0631 192.68 17.9071 193.444 17.5951 194.092C17.2911 194.74 16.8791 195.24 16.3591 195.592C15.8471 195.944 15.2751 196.12 14.6431 196.12ZM14.6191 194.824C15.0351 194.824 15.3951 194.712 15.6991 194.488C16.0031 194.264 16.2391 193.928 16.4071 193.48C16.5831 193.032 16.6711 192.468 16.6711 191.788C16.6711 191.116 16.5831 190.556 16.4071 190.108C16.2391 189.66 15.9991 189.328 15.6871 189.112C15.3831 188.888 15.0271 188.776 14.6191 188.776C14.2111 188.776 13.8511 188.888 13.5391 189.112C13.2351 189.328 12.9991 189.66 12.8311 190.108C12.6631 190.548 12.5791 191.108 12.5791 191.788C12.5791 192.468 12.6631 193.032 12.8311 193.48C12.9991 193.928 13.2351 194.264 13.5391 194.488C13.8511 194.712 14.2111 194.824 14.6191 194.824ZM20.8983 190.876C20.5863 190.876 20.2983 190.8 20.0343 190.648C19.7783 190.496 19.5743 190.292 19.4223 190.036C19.2703 189.78 19.1943 189.492 19.1943 189.172C19.1943 188.852 19.2703 188.568 19.4223 188.32C19.5743 188.064 19.7783 187.86 20.0343 187.708C20.2903 187.556 20.5783 187.48 20.8983 187.48C21.2183 187.48 21.5063 187.556 21.7623 187.708C22.0263 187.86 22.2343 188.064 22.3863 188.32C22.5383 188.568 22.6143 188.852 22.6143 189.172C22.6143 189.492 22.5383 189.78 22.3863 190.036C22.2343 190.292 22.0303 190.496 21.7743 190.648C21.5183 190.8 21.2263 190.876 20.8983 190.876ZM20.8983 189.856C21.0983 189.856 21.2583 189.792 21.3783 189.664C21.4983 189.536 21.5583 189.372 21.5583 189.172C21.5583 188.972 21.4943 188.812 21.3663 188.692C21.2463 188.564 21.0903 188.5 20.8983 188.5C20.7063 188.5 20.5503 188.564 20.4303 188.692C20.3103 188.812 20.2503 188.972 20.2503 189.172C20.2503 189.372 20.3103 189.536 20.4303 189.664C20.5503 189.792 20.7063 189.856 20.8983 189.856ZM24.4143 196.12C24.1023 196.12 23.8143 196.044 23.5503 195.892C23.2943 195.74 23.0903 195.536 22.9383 195.28C22.7863 195.024 22.7103 194.736 22.7103 194.416C22.7103 194.096 22.7863 193.812 22.9383 193.564C23.0903 193.308 23.2943 193.104 23.5503 192.952C23.8063 192.8 24.0943 192.724 24.4143 192.724C24.7343 192.724 25.0223 192.8 25.2783 192.952C25.5423 193.104 25.7503 193.308 25.9023 193.564C26.0543 193.812 26.1303 194.096 26.1303 194.416C26.1303 194.736 26.0543 195.024 25.9023 195.28C25.7503 195.536 25.5463 195.74 25.2903 195.892C25.0343 196.044 24.7423 196.12 24.4143 196.12ZM24.4143 195.1C24.6143 195.1 24.7743 195.036 24.8943 194.908C25.0223 194.78 25.0863 194.616 25.0863 194.416C25.0863 194.224 25.0223 194.064 24.8943 193.936C24.7663 193.808 24.6063 193.744 24.4143 193.744C24.2223 193.744 24.0663 193.808 23.9463 193.936C23.8263 194.064 23.7663 194.224 23.7663 194.416C23.7663 194.616 23.8263 194.78 23.9463 194.908C24.0663 195.036 24.2223 195.1 24.4143 195.1ZM19.3143 196L24.7023 187.6H26.0103L20.6223 196H19.3143Z" fill="#010101"/>
<path d="M4.336 229L7.324 223.6H8.884L5.824 229H4.336ZM4.336 229.84V229L4.924 228.604H10.852V229.84H4.336ZM8.32 232V226.504H9.676V232H8.32ZM15.2876 232.12C14.6556 232.12 14.0756 231.944 13.5476 231.592C13.0276 231.232 12.6116 230.728 12.2996 230.08C11.9876 229.432 11.8316 228.668 11.8316 227.788C11.8316 226.908 11.9836 226.148 12.2876 225.508C12.5996 224.86 13.0156 224.36 13.5356 224.008C14.0556 223.656 14.6316 223.48 15.2636 223.48C15.9036 223.48 16.4836 223.656 17.0036 224.008C17.5236 224.36 17.9356 224.86 18.2396 225.508C18.5516 226.148 18.7076 226.912 18.7076 227.8C18.7076 228.68 18.5516 229.444 18.2396 230.092C17.9356 230.74 17.5236 231.24 17.0036 231.592C16.4916 231.944 15.9196 232.12 15.2876 232.12ZM15.2636 230.824C15.6796 230.824 16.0396 230.712 16.3436 230.488C16.6476 230.264 16.8836 229.928 17.0516 229.48C17.2276 229.032 17.3156 228.468 17.3156 227.788C17.3156 227.116 17.2276 226.556 17.0516 226.108C16.8836 225.66 16.6436 225.328 16.3316 225.112C16.0276 224.888 15.6716 224.776 15.2636 224.776C14.8556 224.776 14.4956 224.888 14.1836 225.112C13.8796 225.328 13.6436 225.66 13.4756 226.108C13.3076 226.548 13.2236 227.108 13.2236 227.788C13.2236 228.468 13.3076 229.032 13.4756 229.48C13.6436 229.928 13.8796 230.264 14.1836 230.488C14.4956 230.712 14.8556 230.824 15.2636 230.824ZM21.5429 226.876C21.2309 226.876 20.9429 226.8 20.6789 226.648C20.4229 226.496 20.2189 226.292 20.0669 226.036C19.9149 225.78 19.8389 225.492 19.8389 225.172C19.8389 224.852 19.9149 224.568 20.0669 224.32C20.2189 224.064 20.4229 223.86 20.6789 223.708C20.9349 223.556 21.2229 223.48 21.5429 223.48C21.8629 223.48 22.1509 223.556 22.4069 223.708C22.6709 223.86 22.8789 224.064 23.0309 224.32C23.1829 224.568 23.2589 224.852 23.2589 225.172C23.2589 225.492 23.1829 225.78 23.0309 226.036C22.8789 226.292 22.6749 226.496 22.4189 226.648C22.1629 226.8 21.8709 226.876 21.5429 226.876ZM21.5429 225.856C21.7429 225.856 21.9029 225.792 22.0229 225.664C22.1429 225.536 22.2029 225.372 22.2029 225.172C22.2029 224.972 22.1389 224.812 22.0109 224.692C21.8909 224.564 21.7349 224.5 21.5429 224.5C21.3509 224.5 21.1949 224.564 21.0749 224.692C20.9549 224.812 20.8949 224.972 20.8949 225.172C20.8949 225.372 20.9549 225.536 21.0749 225.664C21.1949 225.792 21.3509 225.856 21.5429 225.856ZM25.0589 232.12C24.7469 232.12 24.4589 232.044 24.1949 231.892C23.9389 231.74 23.7349 231.536 23.5829 231.28C23.4309 231.024 23.3549 230.736 23.3549 230.416C23.3549 230.096 23.4309 229.812 23.5829 229.564C23.7349 229.308 23.9389 229.104 24.1949 228.952C24.4509 228.8 24.7389 228.724 25.0589 228.724C25.3789 228.724 25.6669 228.8 25.9229 228.952C26.1869 229.104 26.3949 229.308 26.5469 229.564C26.6989 229.812 26.7749 230.096 26.7749 230.416C26.7749 230.736 26.6989 231.024 26.5469 231.28C26.3949 231.536 26.1909 231.74 25.9349 231.892C25.6789 232.044 25.3869 232.12 25.0589 232.12ZM25.0589 231.1C25.2589 231.1 25.4189 231.036 25.5389 230.908C25.6669 230.78 25.7309 230.616 25.7309 230.416C25.7309 230.224 25.6669 230.064 25.5389 229.936C25.4109 229.808 25.2509 229.744 25.0589 229.744C24.8669 229.744 24.7109 229.808 24.5909 229.936C24.4709 230.064 24.4109 230.224 24.4109 230.416C24.4109 230.616 24.4709 230.78 24.5909 230.908C24.7109 231.036 24.8669 231.1 25.0589 231.1ZM19.9589 232L25.3469 223.6H26.6549L21.2669 232H19.9589Z" fill="#010101"/>
<path d="M6.952 268.12C6.392 268.12 5.884 268.02 5.428 267.82C4.98 267.612 4.6 267.312 4.288 266.92L5.224 265.984C5.392 266.24 5.628 266.444 5.932 266.596C6.236 266.748 6.568 266.824 6.928 266.824C7.272 266.824 7.568 266.76 7.816 266.632C8.064 266.504 8.256 266.324 8.392 266.092C8.536 265.86 8.608 265.592 8.608 265.288C8.608 264.968 8.536 264.696 8.392 264.472C8.256 264.248 8.056 264.076 7.792 263.956C7.536 263.828 7.224 263.764 6.856 263.764C6.712 263.764 6.564 263.776 6.412 263.8C6.26 263.816 6.124 263.844 6.004 263.884L6.616 263.092C6.784 263.028 6.96 262.976 7.144 262.936C7.336 262.888 7.52 262.864 7.696 262.864C8.128 262.864 8.516 262.968 8.86 263.176C9.212 263.384 9.488 263.676 9.688 264.052C9.896 264.42 10 264.856 10 265.36C10 265.904 9.872 266.384 9.616 266.8C9.36 267.216 9.004 267.54 8.548 267.772C8.092 268.004 7.56 268.12 6.952 268.12ZM6.004 263.884V263.068L8.248 260.452L9.904 260.416L7.564 263.104L6.004 263.884ZM4.708 260.836V259.6H9.904V260.416L8.716 260.836H4.708ZM14.5845 268.12C13.9525 268.12 13.3725 267.944 12.8445 267.592C12.3245 267.232 11.9085 266.728 11.5965 266.08C11.2845 265.432 11.1285 264.668 11.1285 263.788C11.1285 262.908 11.2805 262.148 11.5845 261.508C11.8965 260.86 12.3125 260.36 12.8325 260.008C13.3525 259.656 13.9285 259.48 14.5605 259.48C15.2005 259.48 15.7805 259.656 16.3005 260.008C16.8205 260.36 17.2325 260.86 17.5365 261.508C17.8485 262.148 18.0045 262.912 18.0045 263.8C18.0045 264.68 17.8485 265.444 17.5365 266.092C17.2325 266.74 16.8205 267.24 16.3005 267.592C15.7885 267.944 15.2165 268.12 14.5845 268.12ZM14.5605 266.824C14.9765 266.824 15.3365 266.712 15.6405 266.488C15.9445 266.264 16.1805 265.928 16.3485 265.48C16.5245 265.032 16.6125 264.468 16.6125 263.788C16.6125 263.116 16.5245 262.556 16.3485 262.108C16.1805 261.66 15.9405 261.328 15.6285 261.112C15.3245 260.888 14.9685 260.776 14.5605 260.776C14.1525 260.776 13.7925 260.888 13.4805 261.112C13.1765 261.328 12.9405 261.66 12.7725 262.108C12.6045 262.548 12.5205 263.108 12.5205 263.788C12.5205 264.468 12.6045 265.032 12.7725 265.48C12.9405 265.928 13.1765 266.264 13.4805 266.488C13.7925 266.712 14.1525 266.824 14.5605 266.824ZM20.8398 262.876C20.5278 262.876 20.2398 262.8 19.9758 262.648C19.7198 262.496 19.5158 262.292 19.3638 262.036C19.2118 261.78 19.1358 261.492 19.1358 261.172C19.1358 260.852 19.2118 260.568 19.3638 260.32C19.5158 260.064 19.7198 259.86 19.9758 259.708C20.2318 259.556 20.5198 259.48 20.8398 259.48C21.1598 259.48 21.4478 259.556 21.7038 259.708C21.9678 259.86 22.1758 260.064 22.3278 260.32C22.4798 260.568 22.5558 260.852 22.5558 261.172C22.5558 261.492 22.4798 261.78 22.3278 262.036C22.1758 262.292 21.9718 262.496 21.7158 262.648C21.4598 262.8 21.1678 262.876 20.8398 262.876ZM20.8398 261.856C21.0398 261.856 21.1998 261.792 21.3198 261.664C21.4398 261.536 21.4998 261.372 21.4998 261.172C21.4998 260.972 21.4358 260.812 21.3078 260.692C21.1878 260.564 21.0318 260.5 20.8398 260.5C20.6478 260.5 20.4918 260.564 20.3718 260.692C20.2518 260.812 20.1918 260.972 20.1918 261.172C20.1918 261.372 20.2518 261.536 20.3718 261.664C20.4918 261.792 20.6478 261.856 20.8398 261.856ZM24.3558 268.12C24.0438 268.12 23.7558 268.044 23.4918 267.892C23.2358 267.74 23.0318 267.536 22.8798 267.28C22.7278 267.024 22.6518 266.736 22.6518 266.416C22.6518 266.096 22.7278 265.812 22.8798 265.564C23.0318 265.308 23.2358 265.104 23.4918 264.952C23.7478 264.8 24.0358 264.724 24.3558 264.724C24.6758 264.724 24.9638 264.8 25.2198 264.952C25.4838 265.104 25.6918 265.308 25.8438 265.564C25.9958 265.812 26.0718 266.096 26.0718 266.416C26.0718 266.736 25.9958 267.024 25.8438 267.28C25.6918 267.536 25.4878 267.74 25.2318 267.892C24.9758 268.044 24.6838 268.12 24.3558 268.12ZM24.3558 267.1C24.5558 267.1 24.7158 267.036 24.8358 266.908C24.9638 266.78 25.0278 266.616 25.0278 266.416C25.0278 266.224 24.9638 266.064 24.8358 265.936C24.7078 265.808 24.5478 265.744 24.3558 265.744C24.1638 265.744 24.0078 265.808 23.8878 265.936C23.7678 266.064 23.7078 266.224 23.7078 266.416C23.7078 266.616 23.7678 266.78 23.8878 266.908C24.0078 267.036 24.1638 267.1 24.3558 267.1ZM19.2558 268L24.6438 259.6H25.9518L20.5638 268H19.2558Z" fill="#010101"/>
<path d="M4.336 303.184L7.432 299.896C7.688 299.624 7.896 299.38 8.056 299.164C8.216 298.948 8.332 298.744 8.404 298.552C8.476 298.36 8.512 298.164 8.512 297.964C8.512 297.588 8.388 297.296 8.14 297.088C7.9 296.872 7.592 296.764 7.216 296.764C6.816 296.764 6.464 296.864 6.16 297.064C5.856 297.264 5.584 297.576 5.344 298L4.384 297.208C4.712 296.64 5.116 296.212 5.596 295.924C6.076 295.628 6.632 295.48 7.264 295.48C7.784 295.48 8.24 295.584 8.632 295.792C9.024 296 9.328 296.292 9.544 296.668C9.76 297.036 9.868 297.464 9.868 297.952C9.868 298.304 9.824 298.62 9.736 298.9C9.656 299.172 9.516 299.448 9.316 299.728C9.116 300 8.84 300.32 8.488 300.688L6.112 303.148L4.336 303.184ZM4.336 304V303.184L5.524 302.764H10.036V304H4.336ZM14.5962 304.12C13.9642 304.12 13.3842 303.944 12.8562 303.592C12.3362 303.232 11.9202 302.728 11.6082 302.08C11.2962 301.432 11.1402 300.668 11.1402 299.788C11.1402 298.908 11.2922 298.148 11.5962 297.508C11.9082 296.86 12.3242 296.36 12.8442 296.008C13.3642 295.656 13.9402 295.48 14.5722 295.48C15.2122 295.48 15.7922 295.656 16.3122 296.008C16.8322 296.36 17.2442 296.86 17.5482 297.508C17.8602 298.148 18.0162 298.912 18.0162 299.8C18.0162 300.68 17.8602 301.444 17.5482 302.092C17.2442 302.74 16.8322 303.24 16.3122 303.592C15.8002 303.944 15.2282 304.12 14.5962 304.12ZM14.5722 302.824C14.9882 302.824 15.3482 302.712 15.6522 302.488C15.9562 302.264 16.1922 301.928 16.3602 301.48C16.5362 301.032 16.6242 300.468 16.6242 299.788C16.6242 299.116 16.5362 298.556 16.3602 298.108C16.1922 297.66 15.9522 297.328 15.6402 297.112C15.3362 296.888 14.9802 296.776 14.5722 296.776C14.1642 296.776 13.8042 296.888 13.4922 297.112C13.1882 297.328 12.9522 297.66 12.7842 298.108C12.6162 298.548 12.5322 299.108 12.5322 299.788C12.5322 300.468 12.6162 301.032 12.7842 301.48C12.9522 301.928 13.1882 302.264 13.4922 302.488C13.8042 302.712 14.1642 302.824 14.5722 302.824ZM20.8515 298.876C20.5395 298.876 20.2515 298.8 19.9875 298.648C19.7315 298.496 19.5275 298.292 19.3755 298.036C19.2235 297.78 19.1475 297.492 19.1475 297.172C19.1475 296.852 19.2235 296.568 19.3755 296.32C19.5275 296.064 19.7315 295.86 19.9875 295.708C20.2435 295.556 20.5315 295.48 20.8515 295.48C21.1715 295.48 21.4595 295.556 21.7155 295.708C21.9795 295.86 22.1875 296.064 22.3395 296.32C22.4915 296.568 22.5675 296.852 22.5675 297.172C22.5675 297.492 22.4915 297.78 22.3395 298.036C22.1875 298.292 21.9835 298.496 21.7275 298.648C21.4715 298.8 21.1795 298.876 20.8515 298.876ZM20.8515 297.856C21.0515 297.856 21.2115 297.792 21.3315 297.664C21.4515 297.536 21.5115 297.372 21.5115 297.172C21.5115 296.972 21.4475 296.812 21.3195 296.692C21.1995 296.564 21.0435 296.5 20.8515 296.5C20.6595 296.5 20.5035 296.564 20.3835 296.692C20.2635 296.812 20.2035 296.972 20.2035 297.172C20.2035 297.372 20.2635 297.536 20.3835 297.664C20.5035 297.792 20.6595 297.856 20.8515 297.856ZM24.3675 304.12C24.0555 304.12 23.7675 304.044 23.5035 303.892C23.2475 303.74 23.0435 303.536 22.8915 303.28C22.7395 303.024 22.6635 302.736 22.6635 302.416C22.6635 302.096 22.7395 301.812 22.8915 301.564C23.0435 301.308 23.2475 301.104 23.5035 300.952C23.7595 300.8 24.0475 300.724 24.3675 300.724C24.6875 300.724 24.9755 300.8 25.2315 300.952C25.4955 301.104 25.7035 301.308 25.8555 301.564C26.0075 301.812 26.0835 302.096 26.0835 302.416C26.0835 302.736 26.0075 303.024 25.8555 303.28C25.7035 303.536 25.4995 303.74 25.2435 303.892C24.9875 304.044 24.6955 304.12 24.3675 304.12ZM24.3675 303.1C24.5675 303.1 24.7275 303.036 24.8475 302.908C24.9755 302.78 25.0395 302.616 25.0395 302.416C25.0395 302.224 24.9755 302.064 24.8475 301.936C24.7195 301.808 24.5595 301.744 24.3675 301.744C24.1755 301.744 24.0195 301.808 23.8995 301.936C23.7795 302.064 23.7195 302.224 23.7195 302.416C23.7195 302.616 23.7795 302.78 23.8995 302.908C24.0195 303.036 24.1755 303.1 24.3675 303.1ZM19.2675 304L24.6555 295.6H25.9635L20.5755 304H19.2675Z" fill="#010101"/>
<path d="M5.992 340V331.6H7.348V340H5.992ZM4.312 332.836V331.6H7.228V332.836H4.312ZM12.3696 340.12C11.7376 340.12 11.1576 339.944 10.6296 339.592C10.1096 339.232 9.69363 338.728 9.38163 338.08C9.06963 337.432 8.91363 336.668 8.91363 335.788C8.91363 334.908 9.06563 334.148 9.36963 333.508C9.68163 332.86 10.0976 332.36 10.6176 332.008C11.1376 331.656 11.7136 331.48 12.3456 331.48C12.9856 331.48 13.5656 331.656 14.0856 332.008C14.6056 332.36 15.0176 332.86 15.3216 333.508C15.6336 334.148 15.7896 334.912 15.7896 335.8C15.7896 336.68 15.6336 337.444 15.3216 338.092C15.0176 338.74 14.6056 339.24 14.0856 339.592C13.5736 339.944 13.0016 340.12 12.3696 340.12ZM12.3456 338.824C12.7616 338.824 13.1216 338.712 13.4256 338.488C13.7296 338.264 13.9656 337.928 14.1336 337.48C14.3096 337.032 14.3976 336.468 14.3976 335.788C14.3976 335.116 14.3096 334.556 14.1336 334.108C13.9656 333.66 13.7256 333.328 13.4136 333.112C13.1096 332.888 12.7536 332.776 12.3456 332.776C11.9376 332.776 11.5776 332.888 11.2656 333.112C10.9616 333.328 10.7256 333.66 10.5576 334.108C10.3896 334.548 10.3056 335.108 10.3056 335.788C10.3056 336.468 10.3896 337.032 10.5576 337.48C10.7256 337.928 10.9616 338.264 11.2656 338.488C11.5776 338.712 11.9376 338.824 12.3456 338.824ZM18.6249 334.876C18.3129 334.876 18.0249 334.8 17.7609 334.648C17.5049 334.496 17.3009 334.292 17.1489 334.036C16.9969 333.78 16.9209 333.492 16.9209 333.172C16.9209 332.852 16.9969 332.568 17.1489 332.32C17.3009 332.064 17.5049 331.86 17.7609 331.708C18.0169 331.556 18.3049 331.48 18.6249 331.48C18.9449 331.48 19.2329 331.556 19.4889 331.708C19.7529 331.86 19.9609 332.064 20.1129 332.32C20.2649 332.568 20.3409 332.852 20.3409 333.172C20.3409 333.492 20.2649 333.78 20.1129 334.036C19.9609 334.292 19.7569 334.496 19.5009 334.648C19.2449 334.8 18.9529 334.876 18.6249 334.876ZM18.6249 333.856C18.8249 333.856 18.9849 333.792 19.1049 333.664C19.2249 333.536 19.2849 333.372 19.2849 333.172C19.2849 332.972 19.2209 332.812 19.0929 332.692C18.9729 332.564 18.8169 332.5 18.6249 332.5C18.4329 332.5 18.2769 332.564 18.1569 332.692C18.0369 332.812 17.9769 332.972 17.9769 333.172C17.9769 333.372 18.0369 333.536 18.1569 333.664C18.2769 333.792 18.4329 333.856 18.6249 333.856ZM22.1409 340.12C21.8289 340.12 21.5409 340.044 21.2769 339.892C21.0209 339.74 20.8169 339.536 20.6649 339.28C20.5129 339.024 20.4369 338.736 20.4369 338.416C20.4369 338.096 20.5129 337.812 20.6649 337.564C20.8169 337.308 21.0209 337.104 21.2769 336.952C21.5329 336.8 21.8209 336.724 22.1409 336.724C22.4609 336.724 22.7489 336.8 23.0049 336.952C23.2689 337.104 23.4769 337.308 23.6289 337.564C23.7809 337.812 23.8569 338.096 23.8569 338.416C23.8569 338.736 23.7809 339.024 23.6289 339.28C23.4769 339.536 23.2729 339.74 23.0169 339.892C22.7609 340.044 22.4689 340.12 22.1409 340.12ZM22.1409 339.1C22.3409 339.1 22.5009 339.036 22.6209 338.908C22.7489 338.78 22.8129 338.616 22.8129 338.416C22.8129 338.224 22.7489 338.064 22.6209 337.936C22.4929 337.808 22.3329 337.744 22.1409 337.744C21.9489 337.744 21.7929 337.808 21.6729 337.936C21.5529 338.064 21.4929 338.224 21.4929 338.416C21.4929 338.616 21.5529 338.78 21.6729 338.908C21.7929 339.036 21.9489 339.1 22.1409 339.1ZM17.0409 340L22.4289 331.6H23.7369L18.3489 340H17.0409Z" fill="#010101"/>
<path d="M7.948 376.12C7.316 376.12 6.736 375.944 6.208 375.592C5.688 375.232 5.272 374.728 4.96 374.08C4.648 373.432 4.492 372.668 4.492 371.788C4.492 370.908 4.644 370.148 4.948 369.508C5.26 368.86 5.676 368.36 6.196 368.008C6.716 367.656 7.292 367.48 7.924 367.48C8.564 367.48 9.144 367.656 9.664 368.008C10.184 368.36 10.596 368.86 10.9 369.508C11.212 370.148 11.368 370.912 11.368 371.8C11.368 372.68 11.212 373.444 10.9 374.092C10.596 374.74 10.184 375.24 9.664 375.592C9.152 375.944 8.58 376.12 7.948 376.12ZM7.924 374.824C8.34 374.824 8.7 374.712 9.004 374.488C9.308 374.264 9.544 373.928 9.712 373.48C9.888 373.032 9.976 372.468 9.976 371.788C9.976 371.116 9.888 370.556 9.712 370.108C9.544 369.66 9.304 369.328 8.992 369.112C8.688 368.888 8.332 368.776 7.924 368.776C7.516 368.776 7.156 368.888 6.844 369.112C6.54 369.328 6.304 369.66 6.136 370.108C5.968 370.548 5.884 371.108 5.884 371.788C5.884 372.468 5.968 373.032 6.136 373.48C6.304 373.928 6.54 374.264 6.844 374.488C7.156 374.712 7.516 374.824 7.924 374.824ZM14.2033 370.876C13.8913 370.876 13.6033 370.8 13.3393 370.648C13.0833 370.496 12.8793 370.292 12.7273 370.036C12.5753 369.78 12.4993 369.492 12.4993 369.172C12.4993 368.852 12.5753 368.568 12.7273 368.32C12.8793 368.064 13.0833 367.86 13.3393 367.708C13.5953 367.556 13.8833 367.48 14.2033 367.48C14.5233 367.48 14.8113 367.556 15.0673 367.708C15.3313 367.86 15.5393 368.064 15.6913 368.32C15.8433 368.568 15.9193 368.852 15.9193 369.172C15.9193 369.492 15.8433 369.78 15.6913 370.036C15.5393 370.292 15.3353 370.496 15.0793 370.648C14.8233 370.8 14.5313 370.876 14.2033 370.876ZM14.2033 369.856C14.4033 369.856 14.5633 369.792 14.6833 369.664C14.8033 369.536 14.8633 369.372 14.8633 369.172C14.8633 368.972 14.7993 368.812 14.6713 368.692C14.5513 368.564 14.3953 368.5 14.2033 368.5C14.0113 368.5 13.8553 368.564 13.7353 368.692C13.6153 368.812 13.5553 368.972 13.5553 369.172C13.5553 369.372 13.6153 369.536 13.7353 369.664C13.8553 369.792 14.0113 369.856 14.2033 369.856ZM17.7193 376.12C17.4073 376.12 17.1193 376.044 16.8553 375.892C16.5993 375.74 16.3953 375.536 16.2433 375.28C16.0913 375.024 16.0153 374.736 16.0153 374.416C16.0153 374.096 16.0913 373.812 16.2433 373.564C16.3953 373.308 16.5993 373.104 16.8553 372.952C17.1113 372.8 17.3993 372.724 17.7193 372.724C18.0393 372.724 18.3273 372.8 18.5833 372.952C18.8473 373.104 19.0553 373.308 19.2073 373.564C19.3593 373.812 19.4353 374.096 19.4353 374.416C19.4353 374.736 19.3593 375.024 19.2073 375.28C19.0553 375.536 18.8513 375.74 18.5953 375.892C18.3393 376.044 18.0473 376.12 17.7193 376.12ZM17.7193 375.1C17.9193 375.1 18.0793 375.036 18.1993 374.908C18.3273 374.78 18.3913 374.616 18.3913 374.416C18.3913 374.224 18.3273 374.064 18.1993 373.936C18.0713 373.808 17.9113 373.744 17.7193 373.744C17.5273 373.744 17.3713 373.808 17.2513 373.936C17.1313 374.064 17.0713 374.224 17.0713 374.416C17.0713 374.616 17.1313 374.78 17.2513 374.908C17.3713 375.036 17.5273 375.1 17.7193 375.1ZM12.6193 376L18.0073 367.6H19.3153L13.9273 376H12.6193Z" fill="#010101"/>
</svg>
