<svg width="60" height="20" viewBox="0 0 60 20" fill="none" xmlns="http://www.w3.org/2000/svg">
<circle cx="6" cy="10" r="4" fill="#FAE579"/>
<path d="M14.912 14V5.6H16.292V14H14.912ZM15.86 14V12.74H20.564V14H15.86ZM15.86 10.316V9.104H20.156V10.316H15.86ZM15.86 6.86V5.6H20.504V6.86H15.86ZM23.9652 14V5.84H25.3452V14H23.9652ZM21.2292 6.86V5.6H28.0812V6.86H21.2292ZM32.6923 14.12C32.0843 14.12 31.5203 14.012 31.0003 13.796C30.4883 13.572 30.0403 13.264 29.6563 12.872C29.2723 12.472 28.9763 12.012 28.7683 11.492C28.5603 10.964 28.4563 10.4 28.4563 9.8C28.4563 9.2 28.5603 8.64 28.7683 8.12C28.9763 7.592 29.2723 7.132 29.6563 6.74C30.0403 6.348 30.4883 6.04 31.0003 5.816C31.5203 5.592 32.0843 5.48 32.6923 5.48C33.3723 5.48 33.9603 5.592 34.4563 5.816C34.9523 6.04 35.3923 6.344 35.7763 6.728L34.8403 7.664C34.5923 7.392 34.2883 7.18 33.9283 7.028C33.5763 6.876 33.1643 6.8 32.6923 6.8C32.2763 6.8 31.8963 6.872 31.5523 7.016C31.2083 7.16 30.9083 7.368 30.6523 7.64C30.4043 7.904 30.2123 8.22 30.0763 8.588C29.9403 8.956 29.8723 9.36 29.8723 9.8C29.8723 10.24 29.9403 10.644 30.0763 11.012C30.2123 11.38 30.4043 11.7 30.6523 11.972C30.9083 12.236 31.2083 12.44 31.5523 12.584C31.8963 12.728 32.2763 12.8 32.6923 12.8C33.2043 12.8 33.6363 12.724 33.9883 12.572C34.3483 12.412 34.6523 12.196 34.9003 11.924L35.8363 12.86C35.4523 13.252 35.0003 13.56 34.4803 13.784C33.9603 14.008 33.3643 14.12 32.6923 14.12ZM40.8621 14V5.6H42.2181V14H40.8621ZM39.1821 6.836V5.6H42.0981V6.836H39.1821ZM46.2557 14.12C45.6717 14.12 45.1517 14.02 44.6957 13.82C44.2397 13.612 43.8557 13.312 43.5437 12.92L44.4797 11.984C44.6477 12.24 44.8837 12.444 45.1877 12.596C45.4997 12.748 45.8477 12.824 46.2317 12.824C46.5837 12.824 46.8917 12.76 47.1557 12.632C47.4197 12.504 47.6277 12.32 47.7797 12.08C47.9317 11.84 48.0077 11.556 48.0077 11.228C48.0077 10.884 47.9317 10.6 47.7797 10.376C47.6357 10.144 47.4397 9.972 47.1917 9.86C46.9517 9.74 46.6917 9.68 46.4117 9.68C46.0917 9.68 45.8037 9.716 45.5477 9.788C45.2997 9.86 45.0557 9.988 44.8157 10.172L44.8517 9.308C44.9797 9.14 45.1277 9.004 45.2957 8.9C45.4637 8.788 45.6597 8.704 45.8837 8.648C46.1077 8.592 46.3717 8.564 46.6757 8.564C47.2677 8.564 47.7637 8.688 48.1637 8.936C48.5717 9.184 48.8797 9.516 49.0877 9.932C49.2957 10.34 49.3997 10.796 49.3997 11.3C49.3997 11.844 49.2637 12.328 48.9917 12.752C48.7277 13.176 48.3597 13.512 47.8877 13.76C47.4157 14 46.8717 14.12 46.2557 14.12ZM44.8157 10.172L44.0597 9.416L44.4317 5.6H45.6917L45.2597 9.572L44.8157 10.172ZM44.6717 6.836L44.4317 5.6H48.9317V6.836H44.6717ZM52.1708 8.876C51.8588 8.876 51.5708 8.8 51.3068 8.648C51.0508 8.496 50.8468 8.292 50.6948 8.036C50.5428 7.78 50.4668 7.492 50.4668 7.172C50.4668 6.852 50.5428 6.568 50.6948 6.32C50.8468 6.064 51.0508 5.86 51.3068 5.708C51.5628 5.556 51.8508 5.48 52.1708 5.48C52.4908 5.48 52.7788 5.556 53.0348 5.708C53.2988 5.86 53.5068 6.064 53.6588 6.32C53.8108 6.568 53.8868 6.852 53.8868 7.172C53.8868 7.492 53.8108 7.78 53.6588 8.036C53.5068 8.292 53.3028 8.496 53.0468 8.648C52.7908 8.8 52.4988 8.876 52.1708 8.876ZM52.1708 7.856C52.3708 7.856 52.5308 7.792 52.6508 7.664C52.7708 7.536 52.8308 7.372 52.8308 7.172C52.8308 6.972 52.7668 6.812 52.6388 6.692C52.5188 6.564 52.3628 6.5 52.1708 6.5C51.9788 6.5 51.8228 6.564 51.7028 6.692C51.5828 6.812 51.5228 6.972 51.5228 7.172C51.5228 7.372 51.5828 7.536 51.7028 7.664C51.8228 7.792 51.9788 7.856 52.1708 7.856ZM55.6868 14.12C55.3748 14.12 55.0868 14.044 54.8228 13.892C54.5668 13.74 54.3628 13.536 54.2108 13.28C54.0588 13.024 53.9828 12.736 53.9828 12.416C53.9828 12.096 54.0588 11.812 54.2108 11.564C54.3628 11.308 54.5668 11.104 54.8228 10.952C55.0788 10.8 55.3668 10.724 55.6868 10.724C56.0068 10.724 56.2948 10.8 56.5508 10.952C56.8148 11.104 57.0228 11.308 57.1748 11.564C57.3268 11.812 57.4028 12.096 57.4028 12.416C57.4028 12.736 57.3268 13.024 57.1748 13.28C57.0228 13.536 56.8188 13.74 56.5628 13.892C56.3068 14.044 56.0148 14.12 55.6868 14.12ZM55.6868 13.1C55.8868 13.1 56.0468 13.036 56.1668 12.908C56.2948 12.78 56.3588 12.616 56.3588 12.416C56.3588 12.224 56.2948 12.064 56.1668 11.936C56.0388 11.808 55.8788 11.744 55.6868 11.744C55.4948 11.744 55.3388 11.808 55.2188 11.936C55.0988 12.064 55.0388 12.224 55.0388 12.416C55.0388 12.616 55.0988 12.78 55.2188 12.908C55.3388 13.036 55.4948 13.1 55.6868 13.1ZM50.5868 14L55.9748 5.6H57.2828L51.8948 14H50.5868Z" fill="#010101"/>
</svg>
