<svg width="62" height="62" viewBox="0 0 62 62" fill="none" xmlns="http://www.w3.org/2000/svg">
<rect x="1" y="1" width="60" height="60" rx="20" stroke="black" stroke-width="2"/>
<path d="M30.987 11.0009C31.6853 11.0009 32.3731 11.0435 33.0128 11.1436C33.6429 11.2212 34.2645 11.3502 34.8707 11.5292C35.4784 11.7019 36.0729 11.9172 36.6673 12.1876C37.2457 12.4455 37.8401 12.7609 38.4345 13.1039C39.4395 13.7047 40.4284 14.1904 41.436 14.5785C43.4195 15.3241 45.517 15.7678 47.6494 15.8928C48.7316 15.9654 49.8431 16.008 51 16.008V26.0222C51 27.9249 50.7414 29.7274 50.2243 31.4448C49.7276 33.1378 49.0217 34.7703 48.1212 36.3092C47.2244 37.846 46.1634 39.293 44.9545 40.6278C43.7271 41.993 42.3981 43.2747 40.9775 44.4632C39.5381 45.6553 38.0221 46.7631 36.438 47.7804C34.8547 48.8119 33.2554 49.7708 31.656 50.642L31.0163 51L30.3766 50.642C28.7324 49.748 27.1265 48.7934 25.5626 47.7804C23.9696 46.7746 22.4528 45.6662 21.0231 44.4632C19.6034 43.2747 18.2753 41.993 17.0487 40.6278C15.8431 39.2873 14.7773 37.8411 13.8661 36.3092C12.9809 34.7635 12.2758 33.1326 11.7629 31.4448C11.2425 29.6792 10.986 27.8542 11.0006 26.0222V16.008C12.1601 16.008 13.2716 15.9654 14.3539 15.8928C15.4192 15.8233 16.4776 15.6802 17.5206 15.4647C18.5415 15.2494 19.5624 14.964 20.5673 14.5785C21.6101 14.1832 22.6098 13.6944 23.5527 13.1189C24.7256 12.4029 25.9144 11.8746 27.0873 11.5267C28.3504 11.163 29.6659 10.9856 30.987 11.0009ZM48.3184 18.469C46.3007 18.377 44.3017 18.0602 42.3636 17.5251C40.4357 16.985 38.5994 16.1901 36.9098 15.1643C36.0335 14.624 35.0817 14.2002 34.0817 13.905C33.0827 13.6215 32.0439 13.4813 31.0003 13.4894C29.949 13.483 28.9025 13.6231 27.8949 13.905C26.8934 14.1907 25.9429 14.6151 25.0748 15.1643C23.3823 16.1957 21.5412 16.9941 19.6077 17.5352C17.7178 18.0509 15.74 18.3663 13.6662 18.4815V26.0347C13.6662 27.6945 13.8954 29.2818 14.3539 30.8114C14.8209 32.3278 15.4646 33.7912 16.2731 35.1751C17.0913 36.5734 18.0556 37.8918 19.1519 39.1107C20.2634 40.3399 21.4496 41.484 22.7291 42.5706C24.0085 43.6596 25.3493 44.661 26.7514 45.5898C28.1668 46.5212 29.5849 47.3649 31.0003 48.1359C32.4496 47.3435 33.8627 46.494 35.2359 45.5898C36.6472 44.664 37.9951 43.6555 39.2715 42.5706C40.551 41.484 41.7398 40.3399 42.8514 39.1107C43.9478 37.8919 44.9121 36.5735 45.7302 35.1751C46.5351 33.7929 47.1692 32.3289 47.6201 30.8114C48.0925 29.2583 48.3276 27.65 48.3184 26.0347V18.469Z" fill="black"/>
<path fill-rule="evenodd" clip-rule="evenodd" d="M40.925 22.7901L39.7521 21.8438L38.6699 21.9314L27.0481 34.8196L23.0897 29.5121L22.0235 29.3419L20.7893 30.1705L20.6054 31.1719L25.694 37.9966L26.2724 38.297L27.4906 38.3671L28.1143 38.1118L41.0023 23.804L40.925 22.7901Z" fill="black"/>
</svg>
