<svg width="62" height="62" viewBox="0 0 62 62" fill="none" xmlns="http://www.w3.org/2000/svg">
<rect x="1" y="1" width="60" height="60" rx="20" stroke="black" stroke-width="2"/>
<path d="M14.3334 24.3335L30.5534 16.2235C30.6921 16.1542 30.845 16.1182 31 16.1182C31.1551 16.1182 31.308 16.1542 31.4467 16.2235L47.6667 24.3335M31.8367 26.2168L35.2517 27.1018C35.6917 27.2168 36.0017 27.6168 35.9867 28.0718C35.71 36.3868 31 37.6668 31 37.6668C31 37.6668 26.29 36.3868 26.0134 28.0718C26.0074 27.8507 26.077 27.6341 26.2106 27.4578C26.3442 27.2814 26.5339 27.1559 26.7484 27.1018L30.165 26.2185C30.7132 26.0765 31.2885 26.0748 31.8367 26.2168Z" stroke="#000019" stroke-width="2" stroke-linecap="round" stroke-linejoin="round"/>
<path d="M44.3334 29.333V42.6663C44.3334 43.5504 43.9822 44.3982 43.3571 45.0234C42.732 45.6485 41.8841 45.9997 41.0001 45.9997H21.0001C20.116 45.9997 19.2682 45.6485 18.6431 45.0234C18.0179 44.3982 17.6667 43.5504 17.6667 42.6663V29.333" stroke="#000019" stroke-width="2" stroke-linecap="round" stroke-linejoin="round"/>
</svg>
