<svg width="32" height="32" viewBox="0 0 32 32" fill="none" xmlns="http://www.w3.org/2000/svg">
<rect width="32" height="32" rx="12" fill="#000019"/>
<path d="M11.8775 6.32951C12.5692 6.58365 13.2272 6.93496 13.8347 7.37447C14.6928 7.13662 15.575 7.01713 16.4606 7.01883C17.3752 7.01883 18.2576 7.1427 19.0847 7.37347C19.692 6.93439 20.3497 6.58342 21.041 6.32951C21.6829 6.09275 22.5975 5.70913 23.1409 6.36148C23.5094 6.80504 23.6015 7.5483 23.6669 8.11574C23.7405 8.74911 23.758 9.57429 23.5646 10.3935C24.3042 11.4295 24.75 12.6652 24.75 14.0119C24.75 16.0519 23.7313 17.8231 22.2236 19.0499C21.498 19.6328 20.6932 20.0899 19.8381 20.4046C20.0352 20.8941 20.1448 21.4355 20.1448 22.004V25.001C20.1448 25.2659 20.0478 25.52 19.875 25.7074C19.7023 25.8947 19.468 26 19.2238 26H13.6975C13.4532 26 13.219 25.8947 13.0462 25.7074C12.8735 25.52 12.7765 25.2659 12.7765 25.001V24.011C11.8969 24.1279 11.1591 24.024 10.5319 23.7352C9.8761 23.4335 9.41926 22.966 9.07572 22.5185C8.74967 22.0949 8.39414 21.1398 7.8802 20.954C7.76542 20.9125 7.65929 20.847 7.56787 20.761C7.47645 20.6751 7.40153 20.5705 7.34739 20.4531C7.23805 20.2161 7.21999 19.9417 7.29718 19.6903C7.37438 19.4388 7.54049 19.2309 7.759 19.1123C7.9775 18.9937 8.23048 18.9742 8.4623 19.0579C9.07572 19.2797 9.47545 19.7592 9.749 20.1448C10.1911 20.7642 10.5503 21.5734 11.2503 21.8961C11.5386 22.0289 11.9613 22.1159 12.6226 22.0179L12.7765 21.984C12.7782 21.4403 12.8826 20.9028 13.0832 20.4046C12.2281 20.0899 11.4233 19.6329 10.6977 19.0499C9.18992 17.8231 8.17125 16.0529 8.17125 14.0119C8.17125 12.6672 8.61612 11.4324 9.35387 10.3975C9.16045 9.57829 9.17703 8.75111 9.25071 8.11674L9.25532 8.07878C9.32255 7.49735 9.40084 6.81303 9.77663 6.36148C10.32 5.70913 11.2356 6.09374 11.8766 6.33051L11.8775 6.32951Z" fill="#FFFFF0"/>
</svg>
