<svg width="40" height="40" viewBox="0 0 40 40" fill="none" xmlns="http://www.w3.org/2000/svg">
<path d="M20 40C31.0457 40 40 31.0457 40 20C40 8.9543 31.0457 0 20 0C8.9543 0 0 8.9543 0 20C0 31.0457 8.9543 40 20 40Z" fill="#F7931A"/>
<path d="M28.9863 17.5249C29.3788 14.9049 27.3825 13.4962 24.655 12.5562L25.54 9.00619L23.38 8.46869L22.5175 11.9249C21.95 11.7824 21.3675 11.6499 20.7863 11.5174L21.655 8.03869L19.495 7.49994L18.61 11.0487C18.14 10.9412 17.6775 10.8362 17.23 10.7237L17.2325 10.7124L14.2525 9.96869L13.6775 12.2762C13.6775 12.2762 15.2813 12.6437 15.2475 12.6662C16.1225 12.8849 16.28 13.4637 16.2538 13.9237L15.2463 17.9674C15.3063 17.9824 15.3838 18.0049 15.4713 18.0387L15.2425 17.9824L13.83 23.6474C13.7225 23.9124 13.4513 24.3112 12.8388 24.1599C12.8613 24.1912 11.2688 23.7687 11.2688 23.7687L10.1963 26.2412L13.0088 26.9424C13.5313 27.0737 14.0438 27.2112 14.5475 27.3399L13.6538 30.9299L15.8125 31.4674L16.6975 27.9174C17.2875 28.0762 17.86 28.2237 18.42 28.3637L17.5375 31.8987L19.6975 32.4362L20.5913 28.8537C24.2763 29.5512 27.0463 29.2699 28.2125 25.9374C29.1525 23.2549 28.1663 21.7062 26.2275 20.6974C27.64 20.3724 28.7025 19.4437 28.9863 17.5249ZM24.0488 24.4474C23.3825 27.1312 18.8638 25.6799 17.3988 25.3162L18.5863 20.5599C20.0513 20.9262 24.7475 21.6499 24.0488 24.4474ZM24.7175 17.4862C24.1088 19.9274 20.3488 18.6862 19.13 18.3824L20.205 14.0699C21.4238 14.3737 25.3525 14.9399 24.7175 17.4862Z" fill="white"/>
</svg>
