<svg width="36" height="34" viewBox="0 0 36 34" fill="none" xmlns="http://www.w3.org/2000/svg">
<path d="M9.42105 9.42105C14.0719 9.42105 17.8421 7.53594 17.8421 5.21053C17.8421 2.88512 14.0719 1 9.42105 1C4.77023 1 1 2.88512 1 5.21053C1 7.53594 4.77023 9.42105 9.42105 9.42105Z" stroke="#F18500" stroke-width="2" stroke-linecap="round" stroke-linejoin="round"/>
<path d="M1 5.21045C1 5.21045 1 8.7798 1 11.1052C1 13.4306 4.77023 15.3157 9.42105 15.3157C14.0718 15.3157 17.8421 13.4306 17.8421 11.1052C17.8421 9.72784 17.8421 5.21045 17.8421 5.21045" stroke="#F18500" stroke-width="2" stroke-linecap="round" stroke-linejoin="round"/>
<path d="M1 11.1055C1 11.1055 1 14.6748 1 17.0002C1 19.3256 4.77023 21.2107 9.42105 21.2107C14.0718 21.2107 17.8421 19.3256 17.8421 17.0002C17.8421 15.6229 17.8421 11.1055 17.8421 11.1055" stroke="#F18500" stroke-width="2" stroke-linecap="round" stroke-linejoin="round"/>
<path d="M1 17C1 17 1 20.5693 1 22.8947C1 25.2201 4.77023 27.1053 9.42105 27.1053C14.0718 27.1053 17.8421 25.2201 17.8421 22.8947C17.8421 21.5174 17.8421 17 17.8421 17" stroke="#F18500" stroke-width="2" stroke-linecap="round" stroke-linejoin="round"/>
<path d="M1 22.8945C1 22.8945 1 26.4639 1 28.7893C1 31.1147 4.77023 32.9998 9.42105 32.9998C14.0718 32.9998 17.8421 31.1147 17.8421 28.7893C17.8421 27.4119 17.8421 22.8945 17.8421 22.8945" stroke="#F18500" stroke-width="2" stroke-linecap="round" stroke-linejoin="round"/>
<path d="M26.2632 21.2106C30.914 21.2106 34.6843 19.3255 34.6843 17.0001C34.6843 14.6747 30.914 12.7896 26.2632 12.7896C21.6124 12.7896 17.8422 14.6747 17.8422 17.0001C17.8422 19.3255 21.6124 21.2106 26.2632 21.2106Z" stroke="#F18500" stroke-width="2" stroke-linecap="round" stroke-linejoin="round"/>
<path d="M17.8422 17C17.8422 17 17.8422 20.5693 17.8422 22.8947C17.8422 25.2201 21.6124 27.1053 26.2632 27.1053C30.914 27.1053 34.6843 25.2201 34.6843 22.8947C34.6843 21.5174 34.6843 17 34.6843 17" stroke="#F18500" stroke-width="2" stroke-linecap="round" stroke-linejoin="round"/>
<path d="M17.8422 22.8945C17.8422 22.8945 17.8422 26.4639 17.8422 28.7893C17.8422 31.1147 21.6124 32.9998 26.2632 32.9998C30.914 32.9998 34.6843 31.1147 34.6843 28.7893C34.6843 27.4119 34.6843 22.8945 34.6843 22.8945" stroke="#F18500" stroke-width="2" stroke-linecap="round" stroke-linejoin="round"/>
</svg>
