<svg width="172" height="22" viewBox="0 0 172 22" fill="none" xmlns="http://www.w3.org/2000/svg">
<path d="M4.46 22C3.75067 22 3.09733 21.8227 2.5 21.468C1.92133 21.1133 1.45467 20.6467 1.1 20.068C0.745333 19.4707 0.568 18.8173 0.568 18.108V5.732C0.568 5.02267 0.745333 4.37867 1.1 3.8C1.45467 3.20267 1.92133 2.72667 2.5 2.372C3.09733 2.01733 3.75067 1.84 4.46 1.84H16.808C17.5173 1.84 18.1707 2.01733 18.768 2.372C19.3653 2.72667 19.8413 3.20267 20.196 3.8C20.5507 4.37867 20.728 5.02267 20.728 5.732V7.3H17.004V5.9C17.004 5.80667 16.9667 5.732 16.892 5.676C16.8173 5.60133 16.7333 5.564 16.64 5.564H4.6C4.50667 5.564 4.42267 5.60133 4.348 5.676C4.292 5.732 4.264 5.80667 4.264 5.9V17.94C4.264 18.0333 4.292 18.1173 4.348 18.192C4.42267 18.248 4.50667 18.276 4.6 18.276H16.64C16.7333 18.276 16.8173 18.248 16.892 18.192C16.9667 18.1173 17.004 18.0333 17.004 17.94V14.3H12.44V10.576H20.728V18.108C20.728 18.8173 20.5507 19.4707 20.196 20.068C19.8413 20.6467 19.3653 21.1133 18.768 21.468C18.1707 21.8227 17.5173 22 16.808 22H4.46ZM23.6982 22V9.624C23.6982 8.91467 23.8755 8.27067 24.2302 7.692C24.5849 7.11333 25.0515 6.64667 25.6302 6.292C26.2275 5.93733 26.8715 5.76 27.5622 5.76H36.5782V9.428H27.7022C27.6089 9.428 27.5249 9.46533 27.4502 9.54C27.3942 9.596 27.3662 9.67067 27.3662 9.764V22H23.6982ZM42.2178 22C41.5084 22 40.8644 21.8227 40.2858 21.468C39.7071 21.1133 39.2404 20.6467 38.8858 20.068C38.5311 19.4893 38.3538 18.8453 38.3538 18.136V9.624C38.3538 8.91467 38.5311 8.27067 38.8858 7.692C39.2404 7.11333 39.7071 6.64667 40.2858 6.292C40.8644 5.93733 41.5084 5.76 42.2178 5.76H50.9818C51.6911 5.76 52.3351 5.93733 52.9138 6.292C53.5111 6.64667 53.9778 7.11333 54.3138 7.692C54.6684 8.27067 54.8458 8.91467 54.8458 9.624V18.136C54.8458 18.8453 54.6684 19.4893 54.3138 20.068C53.9778 20.6467 53.5204 21.1133 52.9418 21.468C52.3631 21.8227 51.7098 22 50.9818 22H42.2178ZM42.3578 18.332H50.8418C50.9351 18.332 51.0098 18.304 51.0658 18.248C51.1404 18.1733 51.1778 18.0893 51.1778 17.996V9.764C51.1778 9.67067 51.1404 9.596 51.0658 9.54C51.0098 9.46533 50.9351 9.428 50.8418 9.428H42.3578C42.2644 9.428 42.1804 9.46533 42.1058 9.54C42.0498 9.596 42.0218 9.67067 42.0218 9.764V17.996C42.0218 18.0893 42.0498 18.1733 42.1058 18.248C42.1804 18.304 42.2644 18.332 42.3578 18.332ZM62.0085 22L55.6245 5.76H59.5165L63.4645 15.336L67.6085 5.76H71.4165L75.8405 15.392L79.5085 5.76H83.4005L77.2965 22H74.4405L69.5405 11.164L64.8645 22H62.0085Z" fill="white"/>
<path d="M89.6332 22C88.9238 22 88.2798 21.8227 87.7012 21.468C87.1225 21.1133 86.6558 20.6467 86.3012 20.068C85.9465 19.4893 85.7692 18.8453 85.7692 18.136V0.776H89.4372V5.76H95.7652V9.428H89.4372V17.996C89.4372 18.0893 89.4652 18.1733 89.5212 18.248C89.5958 18.304 89.6798 18.332 89.7732 18.332H95.7652V22H89.6332ZM101.855 22C101.145 22 100.501 21.8227 99.9225 21.468C99.3438 21.1133 98.8772 20.6467 98.5225 20.068C98.1678 19.4893 97.9905 18.8453 97.9905 18.136V9.624C97.9905 8.91467 98.1678 8.27067 98.5225 7.692C98.8772 7.11333 99.3438 6.64667 99.9225 6.292C100.501 5.93733 101.145 5.76 101.855 5.76H110.619C111.328 5.76 111.972 5.93733 112.551 6.292C113.148 6.64667 113.615 7.11333 113.951 7.692C114.305 8.27067 114.483 8.91467 114.483 9.624V18.136C114.483 18.8453 114.305 19.4893 113.951 20.068C113.615 20.6467 113.157 21.1133 112.579 21.468C112 21.8227 111.347 22 110.619 22H101.855ZM101.995 18.332H110.479C110.572 18.332 110.647 18.304 110.702 18.248C110.777 18.1733 110.815 18.0893 110.815 17.996V9.764C110.815 9.67067 110.777 9.596 110.702 9.54C110.647 9.46533 110.572 9.428 110.479 9.428H101.995C101.901 9.428 101.817 9.46533 101.743 9.54C101.687 9.596 101.659 9.67067 101.659 9.764V17.996C101.659 18.0893 101.687 18.1733 101.743 18.248C101.817 18.304 101.901 18.332 101.995 18.332ZM117.461 22V0.439999H121.129V12.032H124.013L129.809 5.76H133.729V6.768L127.261 13.88L133.701 20.992V22H129.809L124.013 15.728H121.129V22H117.461ZM139.315 22C138.606 22 137.962 21.8227 137.383 21.468C136.805 21.1133 136.338 20.6467 135.983 20.068C135.629 19.4893 135.451 18.8453 135.451 18.136V9.624C135.451 8.91467 135.629 8.27067 135.983 7.692C136.338 7.11333 136.805 6.64667 137.383 6.292C137.962 5.93733 138.606 5.76 139.315 5.76H148.079C148.789 5.76 149.433 5.93733 150.011 6.292C150.609 6.64667 151.075 7.11333 151.411 7.692C151.766 8.27067 151.943 8.91467 151.943 9.624V15.728H139.119V17.996C139.119 18.0893 139.147 18.1733 139.203 18.248C139.278 18.304 139.362 18.332 139.455 18.332H151.943V22H139.315ZM139.119 12.424H148.275V9.764C148.275 9.67067 148.238 9.596 148.163 9.54C148.107 9.46533 148.033 9.428 147.939 9.428H139.455C139.362 9.428 139.278 9.46533 139.203 9.54C139.147 9.596 139.119 9.67067 139.119 9.764V12.424ZM154.922 22V5.76H167.55C168.259 5.76 168.903 5.93733 169.482 6.292C170.079 6.64667 170.546 7.11333 170.882 7.692C171.237 8.27067 171.414 8.91467 171.414 9.624V22H167.746V9.764C167.746 9.67067 167.709 9.596 167.634 9.54C167.578 9.46533 167.503 9.428 167.41 9.428H158.926C158.833 9.428 158.749 9.46533 158.674 9.54C158.618 9.596 158.59 9.67067 158.59 9.764V22H154.922Z" fill="#F18500"/>
</svg>
