<svg width="20" height="21" viewBox="0 0 20 21" fill="none" xmlns="http://www.w3.org/2000/svg">
<path fill-rule="evenodd" clip-rule="evenodd" d="M17.4749 3.60712L17.0637 3.5417L16.9558 3.1392L17.5762 2.97253L17.4749 3.60712ZM11.9666 9.36962L11.612 9.58795L11.6112 9.58712L11.6099 9.58503L11.6058 9.57837L11.5916 9.55462C11.5799 9.53462 11.5624 9.50545 11.5416 9.46837C11.4832 9.36635 11.427 9.26313 11.3728 9.15878C11.2016 8.83077 11.0521 8.49184 10.9253 8.1442C10.7845 7.75087 10.6637 7.30045 10.6449 6.86462C10.6266 6.43045 10.7074 5.9592 11.0308 5.58962C11.3212 5.25795 11.8687 4.95253 12.4441 4.68837C13.0403 4.41378 13.742 4.15045 14.4066 3.92253C15.2298 3.6414 16.0613 3.38517 16.8999 3.1542L16.9416 3.14253L16.9562 3.13837L17.0645 3.54128L17.4758 3.6067L17.4733 3.62212L17.4662 3.66628C17.4246 3.9219 17.381 4.17719 17.3353 4.43212C17.2243 5.05903 17.1032 5.68412 16.972 6.30712C16.8237 7.00753 16.6512 7.7417 16.4683 8.35628C16.3871 8.63739 16.2915 8.91414 16.182 9.18545C16.087 9.41462 15.9745 9.63712 15.8378 9.79378C15.5453 10.128 15.0899 10.2325 14.692 10.2592C14.277 10.2871 13.817 10.2367 13.4033 10.1634C13.0343 10.0969 12.6688 10.0121 12.3083 9.9092C12.1607 9.86765 12.014 9.8232 11.8683 9.77587L11.842 9.7667L11.8349 9.7642L11.8328 9.76378H11.832L11.967 9.3692L11.9666 9.36962ZM11.9666 9.36962L11.612 9.58795L11.6903 9.71503L11.832 9.76378L11.9666 9.36962ZM12.2466 9.02253C12.6732 9.15568 13.1074 9.26283 13.547 9.34337C13.932 9.41128 14.317 9.44962 14.6362 9.42795C14.9733 9.40545 15.1424 9.32295 15.2103 9.24545C15.2537 9.19545 15.3245 9.07712 15.412 8.86628C15.5104 8.62181 15.5962 8.37246 15.6691 8.1192C15.8428 7.53587 16.0099 6.82628 16.1566 6.13503C16.2973 5.46625 16.4262 4.79504 16.5433 4.1217L16.4145 4.1592C15.9524 4.29545 15.3283 4.48753 14.677 4.71087C14.0245 4.93462 13.3524 5.18753 12.792 5.44545C12.2103 5.71295 11.8178 5.95587 11.6578 6.13878C11.5299 6.28462 11.4641 6.5092 11.4778 6.82878C11.4912 7.1467 11.5824 7.50795 11.7099 7.86253C11.8559 8.2636 12.0354 8.65164 12.2466 9.02253ZM4.27618 4.65587L4.16826 5.05837L3.75659 5.12378L3.65576 4.48962L4.27659 4.65628L4.27618 4.65587ZM8.31034 9.79462L8.66493 10.0125L8.66576 10.0117L8.66659 10.01L8.66993 10.0046L8.68201 9.98462C8.74484 9.87759 8.80486 9.76895 8.86201 9.65878C8.97201 9.44712 9.11243 9.1517 9.22993 8.82503C9.34576 8.5017 9.44659 8.12712 9.46201 7.76212C9.47784 7.39837 9.41034 6.99253 9.12951 6.6717C8.88118 6.38753 8.42159 6.1342 7.95493 5.9192C7.46701 5.69462 6.89409 5.47962 6.35284 5.2942C5.68248 5.06524 5.00537 4.85654 4.32243 4.66837L4.28826 4.6592L4.27618 4.65587L4.16826 5.05837L3.75659 5.12378L3.75868 5.13628L3.76451 5.17253L3.78701 5.30837C3.89944 5.98234 4.026 6.65387 4.16659 7.32253C4.28743 7.89253 4.42826 8.49128 4.57743 8.99337C4.65243 9.2442 4.73076 9.47795 4.81284 9.67503C4.89076 9.86253 4.98618 10.0538 5.10618 10.1905C5.36451 10.4863 5.76159 10.5738 6.09034 10.5955C6.43701 10.6188 6.81743 10.5767 7.15701 10.5171C7.58338 10.4406 8.00386 10.3342 8.41535 10.1988L8.43659 10.1917L8.44284 10.1896L8.44493 10.1888L8.31034 9.79462ZM8.31034 9.79462L8.66493 10.0125L8.58659 10.14L8.44493 10.1888L8.31034 9.79462ZM8.02993 9.44712C8.19274 9.15781 8.33167 8.85569 8.44534 8.54378C8.54743 8.2592 8.61909 7.97378 8.62951 7.72628C8.64035 7.47712 8.58784 7.31795 8.50243 7.22003C8.38451 7.08587 8.08035 6.8942 7.6066 6.67628C7.15493 6.46837 6.61159 6.26378 6.08243 6.08253C5.62146 5.92517 5.15718 5.77763 4.68993 5.64003L4.6916 5.65045C4.76243 6.05045 4.86326 6.59045 4.98201 7.15003C5.10076 7.71087 5.23618 8.28462 5.37618 8.75587C5.44659 8.9917 5.51576 9.19545 5.58243 9.35545C5.65326 9.52503 5.70659 9.61128 5.73326 9.64212C5.76743 9.68087 5.87785 9.74628 6.14618 9.7642C6.3966 9.78087 6.70243 9.75087 7.01243 9.69628C7.35644 9.63427 7.69627 9.55133 8.02993 9.44712ZM7.11743 13.4196C7.0116 13.4255 6.95993 13.4405 6.9466 13.4463C6.75785 13.5317 6.18451 13.7317 5.68951 13.9005C5.43534 13.9875 5.19159 14.0692 5.01159 14.1296L4.99993 14.1338V16.385C5.07326 16.3817 5.15201 16.3788 5.23243 16.3759C5.57743 16.3634 5.98785 16.3509 6.16576 16.3584C6.91243 16.388 7.47326 16.5646 7.99243 16.7284L8.00368 16.7321C8.49034 16.8855 8.94118 17.0263 9.53159 17.0709C9.69826 17.0834 9.86034 17.0996 10.0116 17.1146H10.0137C10.5945 17.173 10.977 17.2021 11.2733 17.0946C11.5037 17.0109 12.3474 16.6196 13.1983 16.1917C13.6191 15.98 14.0316 15.7646 14.3595 15.58C14.5241 15.4875 14.6637 15.405 14.7708 15.3359C14.8241 15.3013 14.8666 15.2721 14.8991 15.2484C14.9119 15.239 14.9244 15.2293 14.9366 15.2192L14.9483 15.2092C14.9899 15.1671 15.0341 15.0205 14.9624 14.8825C14.9287 14.818 14.873 14.7678 14.8053 14.7409C14.722 14.7046 14.5803 14.6767 14.3553 14.7138C13.8478 14.7971 13.2416 15.0413 12.6362 15.2875L12.6278 15.2913C12.3303 15.4121 12.032 15.5334 11.7674 15.6217C11.5133 15.7063 11.2312 15.7821 10.9853 15.7675C10.6478 15.7467 10.0558 15.6592 9.56743 15.58C9.28679 15.5347 9.00651 15.4872 8.72659 15.4375L8.67243 15.428L8.65326 15.4242L8.73243 14.5975L10.6366 14.6205H10.6408C10.663 14.618 10.685 14.6139 10.7066 14.608C10.7724 14.5913 10.8853 14.55 11.0274 14.4496C11.0712 14.4184 11.1287 14.3609 11.1824 14.2838C11.2032 14.2536 11.2222 14.2221 11.2391 14.1896C11.0069 14.1748 10.7763 14.1422 10.5491 14.0921C10.4254 14.0652 10.3027 14.0339 10.1812 13.9984L10.167 13.9942L7.83493 13.475L7.81284 13.4713C7.68869 13.4507 7.56372 13.4354 7.43826 13.4255C7.33155 13.4166 7.22439 13.4146 7.11743 13.4196ZM7.91659 13.0667L7.99201 12.6571L7.99951 12.6584L10.382 13.1884L10.3995 13.1938L10.4028 13.195L10.4187 13.1996L10.4845 13.2184C10.5424 13.2342 10.6258 13.2559 10.7249 13.2775C10.9274 13.3213 11.1808 13.3617 11.4149 13.3617C11.6495 13.3617 11.9045 13.4492 12.042 13.6984C12.1595 13.9117 12.1303 14.1425 12.0891 14.295C12.0508 14.4299 11.9937 14.5586 11.9195 14.6775C12.0462 14.6275 12.1808 14.5734 12.322 14.5159L12.3478 14.505C12.922 14.2717 13.6103 13.9917 14.2199 13.8913C14.9283 13.7755 15.4595 14.0296 15.7024 14.4996C15.9166 14.9142 15.8691 15.4609 15.542 15.7934C15.4599 15.8767 15.3378 15.9613 15.2212 16.0367C15.0726 16.1308 14.9214 16.2206 14.7678 16.3063C14.4241 16.4996 13.9987 16.7217 13.572 16.9363C12.7295 17.36 11.842 17.7746 11.557 17.878C11.0628 18.0571 10.4912 18 9.98326 17.9492L9.93035 17.9438C9.77663 17.928 9.62273 17.9141 9.46868 17.9021C8.77701 17.8496 8.24701 17.6825 7.76285 17.53L7.75243 17.5267C7.2316 17.3625 6.76243 17.2163 6.13243 17.1909C5.9941 17.1855 5.6216 17.1955 5.26243 17.2088C5.06017 17.2161 4.85795 17.2243 4.65576 17.2334L4.60201 17.2359L4.16618 17.2559V13.5325L4.5316 13.4113C4.8281 13.3127 5.12422 13.213 5.41993 13.1121C5.93826 12.935 6.46076 12.7513 6.60326 12.6871C6.75618 12.618 6.92993 12.5955 7.06909 12.5871C7.21701 12.5788 7.36909 12.585 7.50201 12.595C7.66201 12.6076 7.82134 12.6274 7.97951 12.6546L7.98826 12.6563H7.99076L7.99159 12.6567H7.99243L7.91659 13.0667Z" fill="#F18500"/>
<path fill-rule="evenodd" clip-rule="evenodd" d="M14.6458 6.01671C14.6874 6.05228 14.7215 6.09569 14.7463 6.14446C14.7712 6.19323 14.7861 6.24642 14.7904 6.30097C14.7946 6.35553 14.7881 6.41039 14.7712 6.46242C14.7542 6.51445 14.7272 6.56263 14.6916 6.60421C13.4495 8.05338 11.9033 10.1771 11.2208 11.9034C11.2006 11.9543 11.1707 12.0007 11.1326 12.04C11.0945 12.0793 11.0491 12.1107 10.9989 12.1325C10.9486 12.1542 10.8946 12.1659 10.8399 12.1667C10.7852 12.1676 10.7308 12.1577 10.6799 12.1375C10.6291 12.1174 10.5826 12.0875 10.5433 12.0494C10.504 12.0113 10.4726 11.9658 10.4508 11.9156C10.4291 11.8654 10.4175 11.8114 10.4166 11.7567C10.4157 11.702 10.4256 11.6476 10.4458 11.5967C11.1804 9.7388 12.8004 7.53005 14.0583 6.06213C14.1302 5.97826 14.2325 5.9264 14.3427 5.91797C14.4529 5.90953 14.5619 5.9452 14.6458 6.01713V6.01671ZM6.40827 7.35338C6.3653 7.3873 6.32944 7.42934 6.30273 7.47712C6.27602 7.5249 6.25898 7.57748 6.2526 7.63184C6.24622 7.68621 6.25061 7.7413 6.26552 7.79397C6.28043 7.84664 6.30558 7.89585 6.33952 7.9388C7.27369 9.12421 8.29369 10.6413 8.77785 11.8996C8.81942 12.0001 8.89859 12.0803 8.99847 12.1232C9.09835 12.166 9.21104 12.1682 9.31248 12.1292C9.41393 12.0901 9.4961 12.013 9.54148 11.9142C9.58685 11.8155 9.59183 11.7029 9.55536 11.6005C9.02577 10.2238 7.94369 8.62755 6.99369 7.42296C6.92533 7.33618 6.8253 7.2801 6.7156 7.26705C6.60589 7.254 6.49508 7.28506 6.40827 7.35338Z" fill="#F18500"/>
<path d="M2.5 12.5834H5V18H2.5V12.5834Z" fill="#F18500"/>
</svg>
