<svg width="24" height="24" viewBox="0 0 24 24" fill="none" xmlns="http://www.w3.org/2000/svg">
<path fill-rule="evenodd" clip-rule="evenodd" d="M9.16364 10.6274C9.09845 10.6675 9.04177 10.72 8.99684 10.782C8.95191 10.844 8.91961 10.9143 8.90178 10.9889C8.88395 11.0634 8.88095 11.1408 8.89295 11.2165C8.90495 11.2922 8.93171 11.3648 8.9717 11.4301C9.50622 12.3039 9.96048 13.1714 10.2629 13.9594C10.3183 14.1039 10.4286 14.2203 10.5696 14.2831C10.7106 14.346 10.8707 14.3501 11.0147 14.2946C11.1587 14.239 11.2748 14.1284 11.3375 13.987C11.4001 13.8456 11.4042 13.685 11.3488 13.5406C11.0127 12.6633 10.5194 11.7294 9.96339 10.8199C9.88278 10.6881 9.75324 10.5937 9.60326 10.5576C9.45328 10.5215 9.29515 10.5466 9.16364 10.6274ZM15.2208 10.0709C15.3453 10.1622 15.4285 10.2994 15.4521 10.4522C15.4758 10.605 15.438 10.761 15.347 10.8859C14.6741 11.8093 14.0814 13.0442 13.6643 13.9869C13.6333 14.0569 13.5889 14.1201 13.5335 14.1729C13.4781 14.2256 13.413 14.267 13.3417 14.2945C13.2704 14.322 13.1944 14.3352 13.118 14.3332C13.0416 14.3313 12.9664 14.3143 12.8966 14.2832C12.8268 14.2521 12.7638 14.2075 12.7111 14.152C12.6585 14.0964 12.6173 14.0311 12.5898 13.9596C12.5624 13.8881 12.5493 13.8118 12.5512 13.7352C12.5531 13.6587 12.5701 13.5832 12.6011 13.5132C13.0222 12.5624 13.6562 11.2289 14.4083 10.1975C14.4993 10.0727 14.636 9.98927 14.7884 9.96553C14.9408 9.9418 15.0963 9.97971 15.2208 10.0709Z" fill="#FEF3E5"/>
<path fill-rule="evenodd" clip-rule="evenodd" d="M13.854 5.02158C15.215 3.45941 22.5 1.5 22.5 1.5C22.5 1.5 21.2617 9.31374 20.1723 10.5632C19.3609 11.4942 16.7755 10.9127 15.5087 10.5551C16.4556 9.09849 17.5532 7.67574 18.5181 6.54641C18.6166 6.42873 18.6648 6.27686 18.6522 6.12376C18.6397 5.97066 18.5675 5.8287 18.4512 5.72869C18.3349 5.62869 18.184 5.57871 18.0313 5.58961C17.8785 5.60051 17.7362 5.67141 17.6352 5.78691C16.6621 6.92558 15.5343 8.38274 14.5467 9.89766C13.9918 8.86166 12.7768 6.25708 13.854 5.02158ZM4.40818 15.5H1.5V22.5H4.40818V21.3082C5.00145 21.2837 5.8774 21.2522 6.18043 21.2645C7.21982 21.3071 7.99514 21.5556 8.78035 21.807C9.51205 22.0409 10.2513 22.2777 11.2186 22.3518C11.4617 22.3705 11.6984 22.3944 11.9282 22.4171C12.7558 22.5011 13.4904 22.5758 14.0977 22.3518C14.8724 22.066 19.301 19.8919 19.8547 19.3196C20.4084 18.748 20.1316 17.2033 18.4152 17.4891C17.5683 17.6303 16.5871 18.0363 15.6966 18.4044C14.7828 18.7818 13.9651 19.1201 13.4881 19.091C12.547 19.0338 10.0565 18.5765 10.0565 18.5765L12.9164 18.6115C12.9164 18.6115 13.3206 18.6325 13.8761 18.2329C14.4315 17.8333 14.9277 16.6882 14.0971 16.6882C13.2671 16.6882 12.3813 16.4024 12.3813 16.4024L8.83793 15.6015C8.83793 15.6015 7.61998 15.3728 7.1221 15.6015C6.71147 15.7899 5.00029 16.4047 4.40818 16.6165V15.5ZM3.17395 3.64083C3.17395 3.64083 9.18517 5.25783 10.3089 6.54641C11.1773 7.54216 10.2414 9.61591 9.7703 10.5084C9.15271 9.53598 8.48606 8.59579 7.77295 7.69149C7.72564 7.63136 7.66697 7.58116 7.60031 7.54376C7.53365 7.50637 7.46029 7.48251 7.38444 7.47354C7.30858 7.46458 7.2317 7.47068 7.1582 7.49152C7.0847 7.51235 7.016 7.54749 6.95604 7.59495C6.89609 7.64241 6.84603 7.70124 6.80875 7.7681C6.77146 7.83496 6.74767 7.90852 6.73873 7.9846C6.72979 8.06068 6.73588 8.13778 6.75665 8.2115C6.77742 8.28521 6.81247 8.35411 6.85978 8.41424C7.55293 9.29321 8.20056 10.2073 8.80013 11.153C7.71363 11.4482 5.7349 11.8547 5.0951 11.1203C4.19589 10.089 3.17395 3.64025 3.17395 3.64025V3.64083Z" fill="#FEF3E5"/>
</svg>
