<svg width="7" height="306" viewBox="0 0 7 306" fill="none" xmlns="http://www.w3.org/2000/svg">
<path d="M3.5 305.692C4.97276 305.692 6.16667 304.498 6.16667 303.025C6.16667 301.553 4.97276 300.359 3.5 300.359C2.02724 300.359 0.833333 301.553 0.833333 303.025C0.833333 304.498 2.02724 305.692 3.5 305.692ZM3.5 5.69205C4.97276 5.69205 6.16667 4.49814 6.16667 3.02539C6.16667 1.55264 4.97276 0.358734 3.5 0.358734C2.02724 0.358734 0.833333 1.55264 0.833333 3.02539C0.833333 4.49814 2.02724 5.69205 3.5 5.69205ZM4 303.025L4 3.02539H3L3 303.025H4Z" fill="white"/>
</svg>
