<svg width="157" height="296" viewBox="0 0 157 296" fill="none" xmlns="http://www.w3.org/2000/svg">
<path d="M12 12H145H12ZM145 44H12H145ZM12 44V12V44ZM137 12C141.971 12 146 16.0294 146 21V35C146 39.9706 141.971 44 137 44C140.866 44 144 40.4183 144 36V20C144 15.5817 140.866 12 137 12Z" fill="#F18500"/>
<path d="M24 29H30C30.55 29 31 28.55 31 28V20C31 19.45 30.55 19 30 19H24C23.45 19 23 19.45 23 20V28C23 28.55 23.45 29 24 29ZM24 37H30C30.55 37 31 36.55 31 36V32C31 31.45 30.55 31 30 31H24C23.45 31 23 31.45 23 32V36C23 36.55 23.45 37 24 37ZM34 37H40C40.55 37 41 36.55 41 36V28C41 27.45 40.55 27 40 27H34C33.45 27 33 27.45 33 28V36C33 36.55 33.45 37 34 37ZM33 20V24C33 24.55 33.45 25 34 25H40C40.55 25 41 24.55 41 24V20C41 19.45 40.55 19 40 19H34C33.45 19 33 19.45 33 20Z" fill="#F18500"/>
<path d="M55.152 35V23.752H57.328V35H55.152ZM62.208 35V23.752H64.384V35H62.208ZM56.528 30.152V28.232H62.816V30.152H56.528ZM70.2993 35.16C69.5206 35.16 68.8166 34.984 68.1873 34.632C67.5686 34.2693 67.0726 33.784 66.6993 33.176C66.3366 32.5573 66.1553 31.8693 66.1553 31.112C66.1553 30.3547 66.3366 29.6773 66.6993 29.08C67.0619 28.472 67.5579 27.992 68.1873 27.64C68.8166 27.2773 69.5153 27.096 70.2833 27.096C71.0726 27.096 71.7766 27.2773 72.3953 27.64C73.0246 27.992 73.5206 28.472 73.8833 29.08C74.2459 29.6773 74.4273 30.3547 74.4273 31.112C74.4273 31.8693 74.2459 32.5573 73.8833 33.176C73.5206 33.784 73.0246 34.2693 72.3953 34.632C71.7766 34.984 71.0779 35.16 70.2993 35.16ZM70.2833 33.208C70.6779 33.208 71.0246 33.1227 71.3233 32.952C71.6326 32.7707 71.8673 32.5253 72.0273 32.216C72.1979 31.896 72.2833 31.5333 72.2833 31.128C72.2833 30.7227 72.1979 30.3653 72.0273 30.056C71.8566 29.7467 71.6219 29.5067 71.3233 29.336C71.0246 29.1547 70.6779 29.064 70.2833 29.064C69.8993 29.064 69.5579 29.1547 69.2593 29.336C68.9606 29.5067 68.7259 29.7467 68.5553 30.056C68.3846 30.3653 68.2993 30.7227 68.2993 31.128C68.2993 31.5333 68.3846 31.896 68.5553 32.216C68.7259 32.5253 68.9606 32.7707 69.2593 32.952C69.5579 33.1227 69.8993 33.208 70.2833 33.208ZM75.9846 35V27.272H78.0806V35H75.9846ZM81.0246 35V30.44C81.0246 29.992 80.8806 29.6453 80.5926 29.4C80.3153 29.144 79.9686 29.016 79.5526 29.016C79.2753 29.016 79.0246 29.0747 78.8006 29.192C78.5766 29.2987 78.4006 29.4587 78.2726 29.672C78.1446 29.8853 78.0806 30.1413 78.0806 30.44L77.2646 30.04C77.2646 29.4427 77.3926 28.9253 77.6486 28.488C77.9153 28.0507 78.2726 27.7147 78.7206 27.48C79.1686 27.2347 79.6753 27.112 80.2406 27.112C80.774 27.112 81.2593 27.2347 81.6966 27.48C82.134 27.7147 82.4806 28.0507 82.7366 28.488C82.9926 28.9147 83.1206 29.432 83.1206 30.04V35H81.0246ZM86.0646 35V30.44C86.0646 29.992 85.9206 29.6453 85.6326 29.4C85.3553 29.144 85.0086 29.016 84.5926 29.016C84.326 29.016 84.0753 29.0747 83.8406 29.192C83.6166 29.2987 83.4406 29.4587 83.3126 29.672C83.1846 29.8853 83.1206 30.1413 83.1206 30.44L81.9206 30.152C81.9633 29.5333 82.1286 29 82.4166 28.552C82.7046 28.0933 83.0833 27.7413 83.5526 27.496C84.022 27.24 84.5446 27.112 85.1206 27.112C85.6966 27.112 86.214 27.2347 86.6726 27.48C87.1313 27.7147 87.494 28.056 87.7606 28.504C88.0273 28.952 88.1606 29.4853 88.1606 30.104V35H86.0646ZM93.7636 35.16C92.953 35.16 92.233 34.9893 91.6036 34.648C90.9743 34.296 90.473 33.816 90.0996 33.208C89.737 32.6 89.5556 31.9067 89.5556 31.128C89.5556 30.36 89.7316 29.6773 90.0836 29.08C90.4463 28.472 90.937 27.992 91.5556 27.64C92.1743 27.2773 92.8623 27.096 93.6196 27.096C94.3663 27.096 95.0223 27.2667 95.5876 27.608C96.1636 27.9387 96.6116 28.3973 96.9316 28.984C97.2623 29.56 97.4276 30.216 97.4276 30.952C97.4276 31.0907 97.417 31.2347 97.3956 31.384C97.385 31.5227 97.3583 31.6827 97.3156 31.864L90.8196 31.88V30.312L96.3396 30.296L95.4916 30.952C95.4703 30.4933 95.385 30.1093 95.2356 29.8C95.097 29.4907 94.889 29.256 94.6116 29.096C94.345 28.9253 94.0143 28.84 93.6196 28.84C93.2036 28.84 92.841 28.936 92.5316 29.128C92.2223 29.3093 91.9823 29.5707 91.8116 29.912C91.6516 30.2427 91.5716 30.6373 91.5716 31.096C91.5716 31.5653 91.657 31.976 91.8276 32.328C92.009 32.6693 92.265 32.936 92.5956 33.128C92.9263 33.3093 93.3103 33.4 93.7476 33.4C94.1423 33.4 94.4996 33.336 94.8196 33.208C95.1396 33.0693 95.417 32.8667 95.6516 32.6L96.8836 33.832C96.5103 34.2693 96.0516 34.6 95.5076 34.824C94.9743 35.048 94.393 35.16 93.7636 35.16Z" fill="white"/>
<path fill-rule="evenodd" clip-rule="evenodd" d="M25.1636 86.6274C25.0985 86.6675 25.0418 86.72 24.9968 86.782C24.9519 86.844 24.9196 86.9143 24.9018 86.9889C24.884 87.0634 24.881 87.1408 24.893 87.2165C24.9049 87.2922 24.9317 87.3648 24.9717 87.4301C25.5062 88.3039 25.9605 89.1714 26.2629 89.9594C26.3183 90.1039 26.4286 90.2203 26.5696 90.2831C26.7106 90.346 26.8707 90.3501 27.0147 90.2946C27.1587 90.239 27.2748 90.1284 27.3375 89.987C27.4001 89.8456 27.4042 89.685 27.3488 89.5406C27.0127 88.6633 26.5194 87.7294 25.9634 86.8199C25.8828 86.6881 25.7532 86.5937 25.6033 86.5576C25.4533 86.5215 25.2951 86.5466 25.1636 86.6274ZM31.2208 86.0709C31.3453 86.1622 31.4285 86.2994 31.4521 86.4522C31.4758 86.605 31.438 86.761 31.347 86.8859C30.6741 87.8093 30.0814 89.0442 29.6643 89.9869C29.6333 90.0569 29.5889 90.1201 29.5335 90.1729C29.4781 90.2256 29.413 90.267 29.3417 90.2945C29.2704 90.322 29.1944 90.3352 29.118 90.3332C29.0416 90.3313 28.9664 90.3143 28.8966 90.2832C28.8268 90.2521 28.7638 90.2075 28.7111 90.152C28.6585 90.0964 28.6173 90.0311 28.5898 89.9596C28.5624 89.8881 28.5493 89.8118 28.5512 89.7352C28.5531 89.6587 28.5701 89.5832 28.6011 89.5132C29.0222 88.5624 29.6562 87.2289 30.4083 86.1975C30.4993 86.0727 30.636 85.9893 30.7884 85.9655C30.9408 85.9418 31.0963 85.9797 31.2208 86.0709Z" fill="#FEF3E5"/>
<path fill-rule="evenodd" clip-rule="evenodd" d="M29.854 81.0216C31.215 79.4594 38.5 77.5 38.5 77.5C38.5 77.5 37.2617 85.3137 36.1723 86.5632C35.3609 87.4942 32.7755 86.9127 31.5087 86.5551C32.4556 85.0985 33.5532 83.6757 34.5181 82.5464C34.6166 82.4287 34.6648 82.2769 34.6522 82.1238C34.6397 81.9707 34.5675 81.8287 34.4512 81.7287C34.3349 81.6287 34.184 81.5787 34.0313 81.5896C33.8785 81.6005 33.7362 81.6714 33.6352 81.7869C32.6621 82.9256 31.5343 84.3827 30.5467 85.8977C29.9918 84.8617 28.7768 82.2571 29.854 81.0216ZM20.4082 91.5H17.5V98.5H20.4082V97.3082C21.0015 97.2837 21.8774 97.2522 22.1804 97.2645C23.2198 97.3071 23.9951 97.5556 24.7803 97.807C25.512 98.0409 26.2513 98.2777 27.2186 98.3518C27.4617 98.3705 27.6984 98.3944 27.9282 98.4171C28.7558 98.5011 29.4904 98.5758 30.0977 98.3518C30.8724 98.066 35.301 95.8919 35.8547 95.3196C36.4084 94.748 36.1316 93.2033 34.4152 93.4891C33.5683 93.6303 32.5871 94.0363 31.6966 94.4044C30.7828 94.7818 29.9651 95.1201 29.4881 95.091C28.547 95.0338 26.0565 94.5765 26.0565 94.5765L28.9164 94.6115C28.9164 94.6115 29.3206 94.6325 29.8761 94.2329C30.4315 93.8333 30.9277 92.6882 30.0971 92.6882C29.2671 92.6882 28.3813 92.4024 28.3813 92.4024L24.8379 91.6015C24.8379 91.6015 23.62 91.3728 23.1221 91.6015C22.7115 91.7899 21.0003 92.4047 20.4082 92.6165V91.5ZM19.174 79.6408C19.174 79.6408 25.1852 81.2578 26.3089 82.5464C27.1773 83.5422 26.2414 85.6159 25.7703 86.5084C25.1527 85.536 24.4861 84.5958 23.773 83.6915C23.7256 83.6314 23.667 83.5812 23.6003 83.5438C23.5336 83.5064 23.4603 83.4825 23.3844 83.4735C23.3086 83.4646 23.2317 83.4707 23.1582 83.4915C23.0847 83.5123 23.016 83.5475 22.956 83.595C22.8961 83.6424 22.846 83.7012 22.8087 83.7681C22.7715 83.835 22.7477 83.9085 22.7387 83.9846C22.7298 84.0607 22.7359 84.1378 22.7566 84.2115C22.7774 84.2852 22.8125 84.3541 22.8598 84.4142C23.5529 85.2932 24.2006 86.2073 24.8001 87.153C23.7136 87.4482 21.7349 87.8547 21.0951 87.1203C20.1959 86.089 19.174 79.6402 19.174 79.6402V79.6408Z" fill="#FEF3E5"/>
<path d="M51.312 95V83.896H52.816V95H51.312ZM60.765 95V90.568C60.765 89.992 60.5837 89.5173 60.221 89.144C59.8583 88.7707 59.389 88.584 58.813 88.584C58.429 88.584 58.0877 88.6693 57.789 88.84C57.4903 89.0107 57.2557 89.2453 57.085 89.544C56.9143 89.8427 56.829 90.184 56.829 90.568L56.237 90.232C56.237 89.656 56.365 89.144 56.621 88.696C56.877 88.248 57.2343 87.896 57.693 87.64C58.1517 87.3733 58.669 87.24 59.245 87.24C59.821 87.24 60.3277 87.384 60.765 87.672C61.213 87.96 61.565 88.3387 61.821 88.808C62.077 89.2667 62.205 89.7573 62.205 90.28V95H60.765ZM55.389 95V87.4H56.829V95H55.389ZM66.9706 95L63.4826 87.4H65.0826L67.8826 93.816H66.9546L69.7706 87.4H71.3066L67.8186 95H66.9706ZM75.9656 95.16C75.2083 95.16 74.5256 94.9893 73.9176 94.648C73.3096 94.296 72.8296 93.8213 72.4776 93.224C72.1256 92.6267 71.9496 91.9493 71.9496 91.192C71.9496 90.4453 72.1203 89.7733 72.4616 89.176C72.8136 88.5787 73.283 88.1093 73.8696 87.768C74.467 87.416 75.1336 87.24 75.8696 87.24C76.5736 87.24 77.1923 87.4 77.7256 87.72C78.2696 88.04 78.691 88.4827 78.9896 89.048C79.299 89.6133 79.4536 90.2533 79.4536 90.968C79.4536 91.0747 79.4483 91.192 79.4376 91.32C79.427 91.4373 79.4056 91.576 79.3736 91.736H72.9576V90.536H78.6056L78.0776 91C78.0776 90.488 77.987 90.056 77.8056 89.704C77.6243 89.3413 77.3683 89.064 77.0376 88.872C76.707 88.6693 76.307 88.568 75.8376 88.568C75.347 88.568 74.915 88.6747 74.5416 88.888C74.1683 89.1013 73.8803 89.4 73.6776 89.784C73.475 90.168 73.3736 90.6213 73.3736 91.144C73.3736 91.6773 73.4803 92.1467 73.6936 92.552C73.907 92.9467 74.211 93.256 74.6056 93.48C75.0003 93.6933 75.4536 93.8 75.9656 93.8C76.3923 93.8 76.7816 93.7253 77.1336 93.576C77.4963 93.4267 77.8056 93.2027 78.0616 92.904L78.9896 93.848C78.627 94.2747 78.179 94.6 77.6456 94.824C77.123 95.048 76.563 95.16 75.9656 95.16ZM83.6478 95.16C83.2211 95.16 82.8158 95.1067 82.4318 95C82.0584 94.8827 81.7118 94.7227 81.3918 94.52C81.0718 94.3067 80.7944 94.056 80.5598 93.768L81.4878 92.84C81.7651 93.1813 82.0851 93.4373 82.4478 93.608C82.8104 93.768 83.2158 93.848 83.6638 93.848C84.1118 93.848 84.4584 93.7733 84.7038 93.624C84.9491 93.464 85.0718 93.2453 85.0718 92.968C85.0718 92.6907 84.9704 92.4773 84.7678 92.328C84.5758 92.168 84.3251 92.04 84.0158 91.944C83.7064 91.8373 83.3758 91.736 83.0238 91.64C82.6824 91.5333 82.3571 91.4 82.0478 91.24C81.7384 91.08 81.4824 90.8613 81.2798 90.584C81.0878 90.3067 80.9918 89.9387 80.9918 89.48C80.9918 89.0213 81.1038 88.6267 81.3278 88.296C81.5518 87.9547 81.8611 87.6933 82.2558 87.512C82.6611 87.3307 83.1464 87.24 83.7118 87.24C84.3091 87.24 84.8371 87.3467 85.2958 87.56C85.7651 87.7627 86.1491 88.072 86.4478 88.488L85.5198 89.416C85.3064 89.1387 85.0398 88.9253 84.7198 88.776C84.4104 88.6267 84.0584 88.552 83.6638 88.552C83.2478 88.552 82.9278 88.6267 82.7038 88.776C82.4904 88.9147 82.3838 89.112 82.3838 89.368C82.3838 89.624 82.4798 89.8213 82.6718 89.96C82.8638 90.0987 83.1144 90.216 83.4238 90.312C83.7438 90.408 84.0744 90.5093 84.4158 90.616C84.7571 90.712 85.0824 90.8453 85.3918 91.016C85.7011 91.1867 85.9518 91.416 86.1438 91.704C86.3464 91.992 86.4478 92.3707 86.4478 92.84C86.4478 93.5547 86.1918 94.12 85.6798 94.536C85.1784 94.952 84.5011 95.16 83.6478 95.16ZM89.4359 95V84.216H90.8759V95H89.4359ZM87.5639 88.712V87.4H92.7479V88.712H87.5639Z" fill="white"/>
<path fill-rule="evenodd" clip-rule="evenodd" d="M27 155C27 155.265 26.8946 155.52 26.7071 155.707C26.5196 155.895 26.2652 156 26 156C25.7348 156 25.4804 155.895 25.2929 155.707C25.1054 155.52 25 155.265 25 155V144C25 143.735 25.1054 143.48 25.2929 143.293C25.4804 143.105 25.7348 143 26 143C26.2652 143 26.5196 143.105 26.7071 143.293C26.8946 143.48 27 143.735 27 144V155ZM23 155C23 155.265 22.8946 155.52 22.7071 155.707C22.5196 155.895 22.2652 156 22 156C21.7348 156 21.4804 155.895 21.2929 155.707C21.1054 155.52 21 155.265 21 155V148C21 147.735 21.1054 147.48 21.2929 147.293C21.4804 147.105 21.7348 147 22 147C22.2652 147 22.5196 147.105 22.7071 147.293C22.8946 147.48 23 147.735 23 148V155ZM29 155V146C29 145.735 29.1054 145.48 29.2929 145.293C29.4804 145.105 29.7348 145 30 145C30.2652 145 30.5196 145.105 30.7071 145.293C30.8946 145.48 31 145.735 31 146V155C31 155.265 30.8946 155.52 30.7071 155.707C30.5196 155.895 30.2652 156 30 156C29.7348 156 29.4804 155.895 29.2929 155.707C29.1054 155.52 29 155.265 29 155ZM33 141C33 140.735 33.1054 140.48 33.2929 140.293C33.4804 140.105 33.7348 140 34 140C34.2652 140 34.5196 140.105 34.7071 140.293C34.8946 140.48 35 140.735 35 141V155C35 155.265 34.8946 155.52 34.7071 155.707C34.5196 155.895 34.2652 156 34 156C33.7348 156 33.4804 155.895 33.2929 155.707C33.1054 155.52 33 155.265 33 155V141Z" fill="#FEF3E5"/>
<path d="M50.496 155L55.04 143.896H56.128L60.656 155H59.024L55.296 145.608H55.856L52.096 155H50.496ZM52.656 152.488V151.176H58.496V152.488H52.656ZM65.3923 155.16C64.6456 155.16 63.9683 154.984 63.3603 154.632C62.7629 154.28 62.2883 153.805 61.9363 153.208C61.5949 152.6 61.4243 151.928 61.4243 151.192C61.4243 150.445 61.5949 149.773 61.9363 149.176C62.2883 148.579 62.7629 148.109 63.3603 147.768C63.9683 147.416 64.6456 147.24 65.3923 147.24C65.9789 147.24 66.5229 147.352 67.0243 147.576C67.5256 147.789 67.9576 148.104 68.3203 148.52L67.3603 149.48C67.1256 149.203 66.8376 148.995 66.4963 148.856C66.1656 148.707 65.7976 148.632 65.3923 148.632C64.9123 148.632 64.4856 148.744 64.1123 148.968C63.7389 149.181 63.4456 149.48 63.2323 149.864C63.0189 150.248 62.9123 150.691 62.9123 151.192C62.9123 151.693 63.0189 152.136 63.2323 152.52C63.4456 152.904 63.7389 153.208 64.1123 153.432C64.4856 153.656 64.9123 153.768 65.3923 153.768C65.7976 153.768 66.1656 153.699 66.4963 153.56C66.8376 153.411 67.1309 153.197 67.3763 152.92L68.3203 153.88C67.9683 154.285 67.5363 154.6 67.0243 154.824C66.5229 155.048 65.9789 155.16 65.3923 155.16ZM71.0306 155V144.216H72.4706V155H71.0306ZM69.1586 148.712V147.4H74.3426V148.712H69.1586ZM75.9773 155V147.4H77.4173V155H75.9773ZM76.6973 145.88C76.4306 145.88 76.2119 145.795 76.0413 145.624C75.8706 145.443 75.7853 145.219 75.7853 144.952C75.7853 144.696 75.8706 144.483 76.0413 144.312C76.2119 144.131 76.4306 144.04 76.6973 144.04C76.9639 144.04 77.1826 144.131 77.3533 144.312C77.5239 144.483 77.6093 144.696 77.6093 144.952C77.6093 145.219 77.5239 145.443 77.3533 145.624C77.1826 145.795 76.9639 145.88 76.6973 145.88ZM82.3554 155L78.8674 147.4H80.4674L83.2674 153.816H82.3394L85.1554 147.4H86.6914L83.2034 155H82.3554ZM88.1433 155V147.4H89.5833V155H88.1433ZM88.8633 145.88C88.5966 145.88 88.3779 145.795 88.2073 145.624C88.0366 145.443 87.9513 145.219 87.9513 144.952C87.9513 144.696 88.0366 144.483 88.2073 144.312C88.3779 144.131 88.5966 144.04 88.8633 144.04C89.1299 144.04 89.3486 144.131 89.5193 144.312C89.6899 144.483 89.7753 144.696 89.7753 144.952C89.7753 145.219 89.6899 145.443 89.5193 145.624C89.3486 145.795 89.1299 145.88 88.8633 145.88ZM93.0814 155V144.216H94.5214V155H93.0814ZM91.2094 148.712V147.4H96.3934V148.712H91.2094ZM100.508 155.064L97.212 147.4H98.812L101.26 153.4H100.748L103.324 147.4H104.924L101.372 155.064H100.508ZM98.332 158.184L100.572 153.592L101.372 155.064L99.932 158.184H98.332Z" fill="white"/>
<path d="M28.0001 218C29.1001 218 30.0001 217.1 30.0001 216H26.0001C26.0001 216.53 26.2108 217.039 26.5858 217.414C26.9609 217.789 27.4696 218 28.0001 218ZM34.0001 212V207C34.0001 203.93 32.3601 201.36 29.5001 200.68V200C29.5001 199.17 28.8301 198.5 28.0001 198.5C27.1701 198.5 26.5001 199.17 26.5001 200V200.68C23.6301 201.36 22.0001 203.92 22.0001 207V212L20.7101 213.29C20.0801 213.92 20.5201 215 21.4101 215H34.5801C35.4701 215 35.9201 213.92 35.2901 213.29L34.0001 212Z" fill="#FEF3E5"/>
<path d="M51.312 215V203.896H52.368L52.816 205.64V215H51.312ZM58.992 215L52.176 205.896L52.368 203.896L59.2 212.984L58.992 215ZM58.992 215L58.544 213.352V203.896H60.048V215H58.992ZM66.0954 215.16C65.3487 215.16 64.6767 214.984 64.0794 214.632C63.482 214.28 63.0074 213.805 62.6554 213.208C62.3034 212.6 62.1274 211.923 62.1274 211.176C62.1274 210.44 62.3034 209.779 62.6554 209.192C63.0074 208.595 63.482 208.12 64.0794 207.768C64.6767 207.416 65.3487 207.24 66.0954 207.24C66.8314 207.24 67.498 207.416 68.0954 207.768C68.7034 208.109 69.1834 208.579 69.5354 209.176C69.8874 209.773 70.0634 210.44 70.0634 211.176C70.0634 211.923 69.8874 212.6 69.5354 213.208C69.1834 213.805 68.7034 214.28 68.0954 214.632C67.498 214.984 66.8314 215.16 66.0954 215.16ZM66.0954 213.768C66.5754 213.768 67.002 213.656 67.3754 213.432C67.7487 213.208 68.042 212.904 68.2554 212.52C68.4687 212.125 68.5754 211.677 68.5754 211.176C68.5754 210.685 68.4634 210.248 68.2394 209.864C68.026 209.48 67.7327 209.181 67.3594 208.968C66.9967 208.744 66.5754 208.632 66.0954 208.632C65.6154 208.632 65.1887 208.744 64.8154 208.968C64.442 209.181 64.1487 209.48 63.9354 209.864C63.722 210.248 63.6154 210.685 63.6154 211.176C63.6154 211.677 63.722 212.125 63.9354 212.52C64.1487 212.904 64.442 213.208 64.8154 213.432C65.1887 213.656 65.6154 213.768 66.0954 213.768ZM72.8275 215V204.216H74.2675V215H72.8275ZM70.9555 208.712V207.4H76.1395V208.712H70.9555ZM77.7741 215V207.4H79.2141V215H77.7741ZM78.4941 205.88C78.2275 205.88 78.0088 205.795 77.8381 205.624C77.6675 205.443 77.5821 205.219 77.5821 204.952C77.5821 204.696 77.6675 204.483 77.8381 204.312C78.0088 204.131 78.2275 204.04 78.4941 204.04C78.7608 204.04 78.9795 204.131 79.1501 204.312C79.3208 204.483 79.4061 204.696 79.4061 204.952C79.4061 205.219 79.3208 205.443 79.1501 205.624C78.9795 205.795 78.7608 205.88 78.4941 205.88ZM82.6323 215V206.024C82.6323 205.523 82.7389 205.08 82.9523 204.696C83.1763 204.301 83.4856 203.992 83.8803 203.768C84.2749 203.533 84.7283 203.416 85.2403 203.416C85.6349 203.416 85.9816 203.485 86.2803 203.624C86.5789 203.752 86.8563 203.933 87.1123 204.168L86.1683 205.112C86.0296 204.995 85.8856 204.909 85.7363 204.856C85.5869 204.792 85.4216 204.76 85.2403 204.76C84.8669 204.76 84.5789 204.877 84.3763 205.112C84.1736 205.336 84.0723 205.64 84.0723 206.024V215H82.6323ZM80.7603 208.712V207.4H87.9763V208.712H80.7603ZM87.1443 215V207.4H88.6003V215H87.1443ZM87.8643 206.6C87.6083 206.6 87.3949 206.515 87.2243 206.344C87.0536 206.163 86.9683 205.939 86.9683 205.672C86.9683 205.416 87.0536 205.203 87.2243 205.032C87.3949 204.851 87.6083 204.76 87.8643 204.76C88.1416 204.76 88.3603 204.851 88.5203 205.032C88.6909 205.203 88.7763 205.416 88.7763 205.672C88.7763 205.939 88.6909 206.163 88.5203 206.344C88.3603 206.515 88.1416 206.6 87.8643 206.6ZM94.3961 215.16C93.6495 215.16 92.9721 214.984 92.3641 214.632C91.7668 214.28 91.2921 213.805 90.9401 213.208C90.5988 212.6 90.4281 211.928 90.4281 211.192C90.4281 210.445 90.5988 209.773 90.9401 209.176C91.2921 208.579 91.7668 208.109 92.3641 207.768C92.9721 207.416 93.6495 207.24 94.3961 207.24C94.9828 207.24 95.5268 207.352 96.0281 207.576C96.5295 207.789 96.9615 208.104 97.3241 208.52L96.3641 209.48C96.1295 209.203 95.8415 208.995 95.5001 208.856C95.1695 208.707 94.8015 208.632 94.3961 208.632C93.9161 208.632 93.4895 208.744 93.1161 208.968C92.7428 209.181 92.4495 209.48 92.2361 209.864C92.0228 210.248 91.9161 210.691 91.9161 211.192C91.9161 211.693 92.0228 212.136 92.2361 212.52C92.4495 212.904 92.7428 213.208 93.1161 213.432C93.4895 213.656 93.9161 213.768 94.3961 213.768C94.8015 213.768 95.1695 213.699 95.5001 213.56C95.8415 213.411 96.1348 213.197 96.3801 212.92L97.3241 213.88C96.9721 214.285 96.5401 214.6 96.0281 214.824C95.5268 215.048 94.9828 215.16 94.3961 215.16ZM102.036 215.16C101.343 215.16 100.713 214.989 100.148 214.648C99.5827 214.296 99.1347 213.821 98.804 213.224C98.484 212.627 98.324 211.955 98.324 211.208C98.324 210.461 98.484 209.789 98.804 209.192C99.1347 208.595 99.5773 208.12 100.132 207.768C100.697 207.416 101.332 207.24 102.036 207.24C102.612 207.24 103.124 207.363 103.572 207.608C104.031 207.843 104.399 208.173 104.676 208.6C104.953 209.016 105.108 209.501 105.14 210.056V212.344C105.108 212.888 104.953 213.373 104.676 213.8C104.409 214.227 104.047 214.563 103.588 214.808C103.14 215.043 102.623 215.16 102.036 215.16ZM102.276 213.8C102.991 213.8 103.567 213.56 104.004 213.08C104.441 212.589 104.66 211.965 104.66 211.208C104.66 210.685 104.559 210.232 104.356 209.848C104.164 209.453 103.887 209.149 103.524 208.936C103.161 208.712 102.74 208.6 102.26 208.6C101.78 208.6 101.353 208.712 100.98 208.936C100.617 209.16 100.329 209.469 100.116 209.864C99.9133 210.248 99.812 210.691 99.812 211.192C99.812 211.704 99.9133 212.157 100.116 212.552C100.329 212.936 100.623 213.24 100.996 213.464C101.369 213.688 101.796 213.8 102.276 213.8ZM104.564 215V212.952L104.836 211.096L104.564 209.256V207.4H106.02V215H104.564ZM109.461 215V204.216H110.901V215H109.461ZM107.589 208.712V207.4H112.773V208.712H107.589ZM114.408 215V207.4H115.848V215H114.408ZM115.128 205.88C114.861 205.88 114.643 205.795 114.472 205.624C114.301 205.443 114.216 205.219 114.216 204.952C114.216 204.696 114.301 204.483 114.472 204.312C114.643 204.131 114.861 204.04 115.128 204.04C115.395 204.04 115.613 204.131 115.784 204.312C115.955 204.483 116.04 204.696 116.04 204.952C116.04 205.219 115.955 205.443 115.784 205.624C115.613 205.795 115.395 205.88 115.128 205.88ZM121.65 215.16C120.903 215.16 120.231 214.984 119.634 214.632C119.037 214.28 118.562 213.805 118.21 213.208C117.858 212.6 117.682 211.923 117.682 211.176C117.682 210.44 117.858 209.779 118.21 209.192C118.562 208.595 119.037 208.12 119.634 207.768C120.231 207.416 120.903 207.24 121.65 207.24C122.386 207.24 123.053 207.416 123.65 207.768C124.258 208.109 124.738 208.579 125.09 209.176C125.442 209.773 125.618 210.44 125.618 211.176C125.618 211.923 125.442 212.6 125.09 213.208C124.738 213.805 124.258 214.28 123.65 214.632C123.053 214.984 122.386 215.16 121.65 215.16ZM121.65 213.768C122.13 213.768 122.557 213.656 122.93 213.432C123.303 213.208 123.597 212.904 123.81 212.52C124.023 212.125 124.13 211.677 124.13 211.176C124.13 210.685 124.018 210.248 123.794 209.864C123.581 209.48 123.287 209.181 122.914 208.968C122.551 208.744 122.13 208.632 121.65 208.632C121.17 208.632 120.743 208.744 120.37 208.968C119.997 209.181 119.703 209.48 119.49 209.864C119.277 210.248 119.17 210.685 119.17 211.176C119.17 211.677 119.277 212.125 119.49 212.52C119.703 212.904 119.997 213.208 120.37 213.432C120.743 213.656 121.17 213.768 121.65 213.768ZM132.825 215V210.568C132.825 209.992 132.643 209.517 132.281 209.144C131.918 208.771 131.449 208.584 130.873 208.584C130.489 208.584 130.147 208.669 129.849 208.84C129.55 209.011 129.315 209.245 129.145 209.544C128.974 209.843 128.889 210.184 128.889 210.568L128.297 210.232C128.297 209.656 128.425 209.144 128.681 208.696C128.937 208.248 129.294 207.896 129.753 207.64C130.211 207.373 130.729 207.24 131.305 207.24C131.881 207.24 132.387 207.384 132.825 207.672C133.273 207.96 133.625 208.339 133.881 208.808C134.137 209.267 134.265 209.757 134.265 210.28V215H132.825ZM127.449 215V207.4H128.889V215H127.449Z" fill="white"/>
<path d="M26.1667 271.167H32.8333V272.833H26.1667V275.333L22 272L26.1667 268.667V271.167ZM25.3333 277H27.59C28.5522 277.849 29.7389 278.402 31.0076 278.592C32.2763 278.783 33.5731 278.604 34.7425 278.076C35.9119 277.548 36.9041 276.694 37.6001 275.617C38.296 274.539 38.6663 273.283 38.6663 272C38.6663 270.717 38.296 269.461 37.6001 268.383C36.9041 267.306 35.9119 266.452 34.7425 265.924C33.5731 265.396 32.2763 265.217 31.0076 265.408C29.7389 265.598 28.5522 266.151 27.59 267H25.3333C26.1089 265.964 27.1153 265.124 28.2726 264.545C29.4298 263.966 30.7061 263.666 32 263.667C36.6025 263.667 40.3333 267.397 40.3333 272C40.3333 276.602 36.6025 280.333 32 280.333C30.7061 280.334 29.4298 280.034 28.2726 279.455C27.1153 278.876 26.1089 278.036 25.3333 277Z" fill="#D61F1F"/>
<path d="M55.312 279V267.896H56.816V279H55.312ZM56.336 279V277.624H62.704V279H56.336ZM56.336 273.976V272.664H62.176V273.976H56.336ZM56.336 269.272V267.896H62.624V269.272H56.336ZM69.6935 279L67.3255 275.672L67.0535 275.416L64.0615 271.4H65.8055L67.9655 274.36L68.2375 274.584L71.4375 279H69.6935ZM63.9175 279L67.0535 274.776L67.8695 275.832L65.6135 279H63.9175ZM68.3495 275.4L67.5175 274.376L69.6135 271.4H71.2935L68.3495 275.4ZM72.988 279V271.4H74.428V279H72.988ZM73.708 269.88C73.4413 269.88 73.2227 269.795 73.052 269.624C72.8813 269.443 72.796 269.219 72.796 268.952C72.796 268.696 72.8813 268.483 73.052 268.312C73.2227 268.131 73.4413 268.04 73.708 268.04C73.9747 268.04 74.1933 268.131 74.364 268.312C74.5347 268.483 74.62 268.696 74.62 268.952C74.62 269.219 74.5347 269.443 74.364 269.624C74.1933 269.795 73.9747 269.88 73.708 269.88ZM79.1741 279.16C78.7475 279.16 78.3421 279.107 77.9581 279C77.5848 278.883 77.2381 278.723 76.9181 278.52C76.5981 278.307 76.3208 278.056 76.0861 277.768L77.0141 276.84C77.2915 277.181 77.6115 277.437 77.9741 277.608C78.3368 277.768 78.7421 277.848 79.1901 277.848C79.6381 277.848 79.9848 277.773 80.2301 277.624C80.4755 277.464 80.5981 277.245 80.5981 276.968C80.5981 276.691 80.4968 276.477 80.2941 276.328C80.1021 276.168 79.8515 276.04 79.5421 275.944C79.2328 275.837 78.9021 275.736 78.5501 275.64C78.2088 275.533 77.8835 275.4 77.5741 275.24C77.2648 275.08 77.0088 274.861 76.8061 274.584C76.6141 274.307 76.5181 273.939 76.5181 273.48C76.5181 273.021 76.6301 272.627 76.8541 272.296C77.0781 271.955 77.3875 271.693 77.7821 271.512C78.1875 271.331 78.6728 271.24 79.2381 271.24C79.8355 271.24 80.3635 271.347 80.8221 271.56C81.2915 271.763 81.6755 272.072 81.9741 272.488L81.0461 273.416C80.8328 273.139 80.5661 272.925 80.2461 272.776C79.9368 272.627 79.5848 272.552 79.1901 272.552C78.7741 272.552 78.4541 272.627 78.2301 272.776C78.0168 272.915 77.9101 273.112 77.9101 273.368C77.9101 273.624 78.0061 273.821 78.1981 273.96C78.3901 274.099 78.6408 274.216 78.9501 274.312C79.2701 274.408 79.6008 274.509 79.9421 274.616C80.2835 274.712 80.6088 274.845 80.9181 275.016C81.2275 275.187 81.4781 275.416 81.6701 275.704C81.8728 275.992 81.9741 276.371 81.9741 276.84C81.9741 277.555 81.7181 278.12 81.2061 278.536C80.7048 278.952 80.0275 279.16 79.1741 279.16ZM84.9623 279V268.216H86.4023V279H84.9623ZM83.0903 272.712V271.4H88.2743V272.712H83.0903Z" fill="#D61F1F"/>
</svg>
