<svg width="712" height="512" viewBox="0 0 712 512" fill="none" xmlns="http://www.w3.org/2000/svg">
<rect width="712" height="512" rx="12" fill="white"/>
<mask id="path-2-inside-1_202_21755" fill="white">
<path d="M110 48H710V448H110V48Z"/>
</mask>
<path d="M110 448H109V449H110V448ZM710 447H110V449H710V447ZM111 448V48H109V448H111Z" fill="#000019" mask="url(#path-2-inside-1_202_21755)"/>
<path d="M147 222C147 216.477 151.477 212 157 212C162.523 212 167 216.477 167 222V448H147V222Z" fill="#F3BA2F"/>
<path d="M227 378C227 372.477 231.477 368 237 368C242.523 368 247 372.477 247 378V448H227V378Z" fill="#F7931A"/>
<path d="M314 264C314 258.477 318.477 254 324 254C329.523 254 334 258.477 334 264V448H314V264Z" fill="#F19F13"/>
<path d="M400 180C400 174.477 404.477 170 410 170C415.523 170 420 174.477 420 180V448H400V180Z" fill="#6F41D8"/>
<path d="M487 264C487 258.477 491.477 254 497 254C502.523 254 507 258.477 507 264V448H487V264Z" fill="#328332"/>
<path d="M147.86 476V474.8H150.272C150.696 474.8 151.024 474.668 151.256 474.404C151.488 474.14 151.604 473.836 151.604 473.492C151.604 473.26 151.552 473.044 151.448 472.844C151.344 472.644 151.192 472.484 150.992 472.364C150.792 472.244 150.552 472.184 150.272 472.184H147.86V470.984H150.068C150.428 470.984 150.716 470.892 150.932 470.708C151.148 470.524 151.256 470.252 151.256 469.892C151.256 469.532 151.148 469.26 150.932 469.076C150.716 468.892 150.428 468.8 150.068 468.8H147.86V467.6H150.104C150.672 467.6 151.144 467.704 151.52 467.912C151.896 468.12 152.176 468.388 152.36 468.716C152.544 469.044 152.636 469.396 152.636 469.772C152.636 470.212 152.512 470.6 152.264 470.936C152.024 471.272 151.668 471.544 151.196 471.752L151.304 471.32C151.832 471.536 152.244 471.84 152.54 472.232C152.836 472.624 152.984 473.084 152.984 473.612C152.984 474.044 152.876 474.44 152.66 474.8C152.452 475.16 152.14 475.452 151.724 475.676C151.316 475.892 150.812 476 150.212 476H147.86ZM146.912 476V467.6H148.292V476H146.912ZM158.265 476V472.676C158.265 472.292 158.141 471.976 157.893 471.728C157.653 471.48 157.341 471.356 156.957 471.356C156.701 471.356 156.473 471.412 156.273 471.524C156.073 471.636 155.917 471.792 155.805 471.992C155.693 472.192 155.637 472.42 155.637 472.676L155.121 472.388C155.121 471.948 155.217 471.56 155.409 471.224C155.601 470.88 155.865 470.612 156.201 470.42C156.545 470.22 156.929 470.12 157.353 470.12C157.785 470.12 158.169 470.232 158.505 470.456C158.841 470.672 159.105 470.956 159.297 471.308C159.489 471.652 159.585 472.012 159.585 472.388V476H158.265ZM154.317 476V470.24H155.637V476H154.317ZM164.13 476.12C163.69 476.12 163.298 476.028 162.954 475.844C162.61 475.652 162.338 475.392 162.138 475.064C161.946 474.736 161.85 474.364 161.85 473.948V472.292C161.85 471.876 161.95 471.504 162.15 471.176C162.35 470.848 162.622 470.592 162.966 470.408C163.31 470.216 163.698 470.12 164.13 470.12C164.65 470.12 165.118 470.256 165.534 470.528C165.958 470.792 166.29 471.152 166.53 471.608C166.778 472.056 166.902 472.564 166.902 473.132C166.902 473.692 166.778 474.2 166.53 474.656C166.29 475.104 165.958 475.46 165.534 475.724C165.118 475.988 164.65 476.12 164.13 476.12ZM163.914 474.872C164.234 474.872 164.514 474.8 164.754 474.656C165.002 474.504 165.194 474.296 165.33 474.032C165.474 473.768 165.546 473.464 165.546 473.12C165.546 472.776 165.474 472.472 165.33 472.208C165.194 471.944 165.002 471.74 164.754 471.596C164.514 471.444 164.234 471.368 163.914 471.368C163.594 471.368 163.31 471.444 163.062 471.596C162.814 471.74 162.622 471.944 162.486 472.208C162.35 472.472 162.282 472.776 162.282 473.12C162.282 473.464 162.35 473.768 162.486 474.032C162.622 474.296 162.814 474.504 163.062 474.656C163.31 474.8 163.594 474.872 163.914 474.872ZM161.046 476V467.36H162.366V471.656L162.138 473.048L162.366 474.452V476H161.046Z" fill="#010101"/>
<path d="M229.86 476V474.8H232.272C232.696 474.8 233.024 474.668 233.256 474.404C233.488 474.14 233.604 473.836 233.604 473.492C233.604 473.26 233.552 473.044 233.448 472.844C233.344 472.644 233.192 472.484 232.992 472.364C232.792 472.244 232.552 472.184 232.272 472.184H229.86V470.984H232.068C232.428 470.984 232.716 470.892 232.932 470.708C233.148 470.524 233.256 470.252 233.256 469.892C233.256 469.532 233.148 469.26 232.932 469.076C232.716 468.892 232.428 468.8 232.068 468.8H229.86V467.6H232.104C232.672 467.6 233.144 467.704 233.52 467.912C233.896 468.12 234.176 468.388 234.36 468.716C234.544 469.044 234.636 469.396 234.636 469.772C234.636 470.212 234.512 470.6 234.264 470.936C234.024 471.272 233.668 471.544 233.196 471.752L233.304 471.32C233.832 471.536 234.244 471.84 234.54 472.232C234.836 472.624 234.984 473.084 234.984 473.612C234.984 474.044 234.876 474.44 234.66 474.8C234.452 475.16 234.14 475.452 233.724 475.676C233.316 475.892 232.812 476 232.212 476H229.86ZM228.912 476V467.6H230.292V476H228.912ZM238.386 476V467.84H239.766V476H238.386ZM235.65 468.86V467.6H242.502V468.86H235.65ZM247.077 476.12C246.469 476.12 245.905 476.012 245.385 475.796C244.873 475.572 244.425 475.264 244.041 474.872C243.657 474.472 243.361 474.012 243.153 473.492C242.945 472.964 242.841 472.4 242.841 471.8C242.841 471.2 242.945 470.64 243.153 470.12C243.361 469.592 243.657 469.132 244.041 468.74C244.425 468.348 244.873 468.04 245.385 467.816C245.905 467.592 246.469 467.48 247.077 467.48C247.757 467.48 248.345 467.592 248.841 467.816C249.337 468.04 249.777 468.344 250.161 468.728L249.225 469.664C248.977 469.392 248.673 469.18 248.313 469.028C247.961 468.876 247.549 468.8 247.077 468.8C246.661 468.8 246.281 468.872 245.937 469.016C245.593 469.16 245.293 469.368 245.037 469.64C244.789 469.904 244.597 470.22 244.461 470.588C244.325 470.956 244.257 471.36 244.257 471.8C244.257 472.24 244.325 472.644 244.461 473.012C244.597 473.38 244.789 473.7 245.037 473.972C245.293 474.236 245.593 474.44 245.937 474.584C246.281 474.728 246.661 474.8 247.077 474.8C247.589 474.8 248.021 474.724 248.373 474.572C248.733 474.412 249.037 474.196 249.285 473.924L250.221 474.86C249.837 475.252 249.385 475.56 248.865 475.784C248.345 476.008 247.749 476.12 247.077 476.12Z" fill="#010101"/>
<path d="M312.86 476V474.8H315.272C315.696 474.8 316.024 474.668 316.256 474.404C316.488 474.14 316.604 473.836 316.604 473.492C316.604 473.26 316.552 473.044 316.448 472.844C316.344 472.644 316.192 472.484 315.992 472.364C315.792 472.244 315.552 472.184 315.272 472.184H312.86V470.984H315.068C315.428 470.984 315.716 470.892 315.932 470.708C316.148 470.524 316.256 470.252 316.256 469.892C316.256 469.532 316.148 469.26 315.932 469.076C315.716 468.892 315.428 468.8 315.068 468.8H312.86V467.6H315.104C315.672 467.6 316.144 467.704 316.52 467.912C316.896 468.12 317.176 468.388 317.36 468.716C317.544 469.044 317.636 469.396 317.636 469.772C317.636 470.212 317.512 470.6 317.264 470.936C317.024 471.272 316.668 471.544 316.196 471.752L316.304 471.32C316.832 471.536 317.244 471.84 317.54 472.232C317.836 472.624 317.984 473.084 317.984 473.612C317.984 474.044 317.876 474.44 317.66 474.8C317.452 475.16 317.14 475.452 316.724 475.676C316.316 475.892 315.812 476 315.212 476H312.86ZM311.912 476V467.6H313.292V476H311.912ZM318.873 476L322.329 467.6H323.289L326.721 476H325.233L322.545 469.196H323.049L320.337 476H318.873ZM320.577 474.38V473.18H325.029V474.38H320.577ZM328.897 476V474.8H331.309C331.733 474.8 332.061 474.668 332.293 474.404C332.525 474.14 332.641 473.836 332.641 473.492C332.641 473.26 332.589 473.044 332.485 472.844C332.381 472.644 332.229 472.484 332.029 472.364C331.829 472.244 331.589 472.184 331.309 472.184H328.897V470.984H331.105C331.465 470.984 331.753 470.892 331.969 470.708C332.185 470.524 332.293 470.252 332.293 469.892C332.293 469.532 332.185 469.26 331.969 469.076C331.753 468.892 331.465 468.8 331.105 468.8H328.897V467.6H331.141C331.709 467.6 332.181 467.704 332.557 467.912C332.933 468.12 333.213 468.388 333.397 468.716C333.581 469.044 333.673 469.396 333.673 469.772C333.673 470.212 333.549 470.6 333.301 470.936C333.061 471.272 332.705 471.544 332.233 471.752L332.341 471.32C332.869 471.536 333.281 471.84 333.577 472.232C333.873 472.624 334.021 473.084 334.021 473.612C334.021 474.044 333.913 474.44 333.697 474.8C333.489 475.16 333.177 475.452 332.761 475.676C332.353 475.892 331.849 476 331.249 476H328.897ZM327.949 476V467.6H329.329V476H327.949Z" fill="#010101"/>
<path d="M395.912 476V467.6H396.872L400.364 473.348H399.74L403.232 467.6H404.192V476H402.812V470.024L403.124 470.108L400.532 474.368H399.572L396.98 470.108L397.292 470.024V476H395.912ZM408.366 476.12C407.846 476.12 407.374 475.988 406.95 475.724C406.534 475.46 406.202 475.104 405.954 474.656C405.714 474.2 405.594 473.692 405.594 473.132C405.594 472.564 405.714 472.056 405.954 471.608C406.202 471.152 406.534 470.792 406.95 470.528C407.374 470.256 407.846 470.12 408.366 470.12C408.806 470.12 409.194 470.216 409.53 470.408C409.874 470.592 410.146 470.848 410.346 471.176C410.546 471.504 410.646 471.876 410.646 472.292V473.948C410.646 474.364 410.546 474.736 410.346 475.064C410.154 475.392 409.886 475.652 409.542 475.844C409.198 476.028 408.806 476.12 408.366 476.12ZM408.582 474.872C409.07 474.872 409.462 474.708 409.758 474.38C410.062 474.052 410.214 473.632 410.214 473.12C410.214 472.776 410.146 472.472 410.01 472.208C409.874 471.944 409.682 471.74 409.434 471.596C409.194 471.444 408.91 471.368 408.582 471.368C408.262 471.368 407.978 471.444 407.73 471.596C407.49 471.74 407.298 471.944 407.154 472.208C407.018 472.472 406.95 472.776 406.95 473.12C406.95 473.464 407.018 473.768 407.154 474.032C407.298 474.296 407.49 474.504 407.73 474.656C407.978 474.8 408.262 474.872 408.582 474.872ZM410.13 476V474.452L410.358 473.048L410.13 471.656V470.24H411.45V476H410.13ZM413.91 476V467.84H415.23V476H413.91ZM412.53 471.44V470.24H416.611V471.44H412.53ZM417.702 476V470.24H419.022V476H417.702ZM418.362 469.184C418.138 469.184 417.95 469.108 417.798 468.956C417.654 468.804 417.582 468.616 417.582 468.392C417.582 468.168 417.654 467.98 417.798 467.828C417.95 467.676 418.138 467.6 418.362 467.6C418.594 467.6 418.782 467.676 418.926 467.828C419.07 467.98 419.142 468.168 419.142 468.392C419.142 468.616 419.07 468.804 418.926 468.956C418.782 469.108 418.594 469.184 418.362 469.184ZM423.274 476.12C422.706 476.12 422.19 475.988 421.726 475.724C421.27 475.46 420.91 475.1 420.646 474.644C420.382 474.188 420.25 473.68 420.25 473.12C420.25 472.552 420.382 472.044 420.646 471.596C420.91 471.14 421.27 470.78 421.726 470.516C422.19 470.252 422.706 470.12 423.274 470.12C423.722 470.12 424.138 470.208 424.522 470.384C424.914 470.552 425.246 470.796 425.518 471.116L424.654 471.992C424.486 471.792 424.282 471.644 424.042 471.548C423.81 471.444 423.554 471.392 423.274 471.392C422.946 471.392 422.654 471.468 422.398 471.62C422.15 471.764 421.954 471.964 421.81 472.22C421.674 472.476 421.606 472.776 421.606 473.12C421.606 473.456 421.674 473.756 421.81 474.02C421.954 474.276 422.15 474.48 422.398 474.632C422.654 474.776 422.946 474.848 423.274 474.848C423.554 474.848 423.81 474.8 424.042 474.704C424.282 474.6 424.486 474.448 424.654 474.248L425.518 475.124C425.246 475.444 424.914 475.692 424.522 475.868C424.138 476.036 423.722 476.12 423.274 476.12Z" fill="#010101"/>
<path d="M486.912 476V467.6H488.292V476H486.912ZM487.86 476V474.74H492.564V476H487.86ZM487.86 472.316V471.104H492.156V472.316H487.86ZM487.86 468.86V467.6H492.504V468.86H487.86ZM495.929 476V467.84H497.309V476H495.929ZM493.193 468.86V467.6H500.045V468.86H493.193ZM504.62 476.12C504.012 476.12 503.448 476.012 502.928 475.796C502.416 475.572 501.968 475.264 501.584 474.872C501.2 474.472 500.904 474.012 500.696 473.492C500.488 472.964 500.384 472.4 500.384 471.8C500.384 471.2 500.488 470.64 500.696 470.12C500.904 469.592 501.2 469.132 501.584 468.74C501.968 468.348 502.416 468.04 502.928 467.816C503.448 467.592 504.012 467.48 504.62 467.48C505.3 467.48 505.888 467.592 506.384 467.816C506.88 468.04 507.32 468.344 507.704 468.728L506.768 469.664C506.52 469.392 506.216 469.18 505.856 469.028C505.504 468.876 505.092 468.8 504.62 468.8C504.204 468.8 503.824 468.872 503.48 469.016C503.136 469.16 502.836 469.368 502.58 469.64C502.332 469.904 502.14 470.22 502.004 470.588C501.868 470.956 501.8 471.36 501.8 471.8C501.8 472.24 501.868 472.644 502.004 473.012C502.14 473.38 502.332 473.7 502.58 473.972C502.836 474.236 503.136 474.44 503.48 474.584C503.824 474.728 504.204 474.8 504.62 474.8C505.132 474.8 505.564 474.724 505.916 474.572C506.276 474.412 506.58 474.196 506.828 473.924L507.764 474.86C507.38 475.252 506.928 475.56 506.408 475.784C505.888 476.008 505.292 476.12 504.62 476.12Z" fill="#010101"/>
<path d="M50.992 80V71.6H52.348V80H50.992ZM49.312 72.836V71.6H52.228V72.836H49.312ZM57.3696 80.12C56.7376 80.12 56.1576 79.944 55.6296 79.592C55.1096 79.232 54.6936 78.728 54.3816 78.08C54.0696 77.432 53.9136 76.668 53.9136 75.788C53.9136 74.908 54.0656 74.148 54.3696 73.508C54.6816 72.86 55.0976 72.36 55.6176 72.008C56.1376 71.656 56.7136 71.48 57.3456 71.48C57.9856 71.48 58.5656 71.656 59.0856 72.008C59.6056 72.36 60.0176 72.86 60.3216 73.508C60.6336 74.148 60.7896 74.912 60.7896 75.8C60.7896 76.68 60.6336 77.444 60.3216 78.092C60.0176 78.74 59.6056 79.24 59.0856 79.592C58.5736 79.944 58.0016 80.12 57.3696 80.12ZM57.3456 78.824C57.7616 78.824 58.1216 78.712 58.4256 78.488C58.7296 78.264 58.9656 77.928 59.1336 77.48C59.3096 77.032 59.3976 76.468 59.3976 75.788C59.3976 75.116 59.3096 74.556 59.1336 74.108C58.9656 73.66 58.7256 73.328 58.4136 73.112C58.1096 72.888 57.7536 72.776 57.3456 72.776C56.9376 72.776 56.5776 72.888 56.2656 73.112C55.9616 73.328 55.7256 73.66 55.5576 74.108C55.3896 74.548 55.3056 75.108 55.3056 75.788C55.3056 76.468 55.3896 77.032 55.5576 77.48C55.7256 77.928 55.9616 78.264 56.2656 78.488C56.5776 78.712 56.9376 78.824 57.3456 78.824ZM65.3889 80.12C64.7569 80.12 64.1769 79.944 63.6489 79.592C63.1289 79.232 62.7129 78.728 62.4009 78.08C62.0889 77.432 61.9329 76.668 61.9329 75.788C61.9329 74.908 62.0849 74.148 62.3889 73.508C62.7009 72.86 63.1169 72.36 63.6369 72.008C64.1569 71.656 64.7329 71.48 65.3649 71.48C66.0049 71.48 66.5849 71.656 67.1049 72.008C67.6249 72.36 68.0369 72.86 68.3409 73.508C68.6529 74.148 68.8089 74.912 68.8089 75.8C68.8089 76.68 68.6529 77.444 68.3409 78.092C68.0369 78.74 67.6249 79.24 67.1049 79.592C66.5929 79.944 66.0209 80.12 65.3889 80.12ZM65.3649 78.824C65.7809 78.824 66.1409 78.712 66.4449 78.488C66.7489 78.264 66.9849 77.928 67.1529 77.48C67.3289 77.032 67.4169 76.468 67.4169 75.788C67.4169 75.116 67.3289 74.556 67.1529 74.108C66.9849 73.66 66.7449 73.328 66.4329 73.112C66.1289 72.888 65.7729 72.776 65.3649 72.776C64.9569 72.776 64.5969 72.888 64.2849 73.112C63.9809 73.328 63.7449 73.66 63.5769 74.108C63.4089 74.548 63.3249 75.108 63.3249 75.788C63.3249 76.468 63.4089 77.032 63.5769 77.48C63.7449 77.928 63.9809 78.264 64.2849 78.488C64.5969 78.712 64.9569 78.824 65.3649 78.824ZM71.6442 74.876C71.3322 74.876 71.0442 74.8 70.7802 74.648C70.5242 74.496 70.3202 74.292 70.1682 74.036C70.0162 73.78 69.9402 73.492 69.9402 73.172C69.9402 72.852 70.0162 72.568 70.1682 72.32C70.3202 72.064 70.5242 71.86 70.7802 71.708C71.0362 71.556 71.3242 71.48 71.6442 71.48C71.9642 71.48 72.2522 71.556 72.5082 71.708C72.7722 71.86 72.9802 72.064 73.1322 72.32C73.2842 72.568 73.3602 72.852 73.3602 73.172C73.3602 73.492 73.2842 73.78 73.1322 74.036C72.9802 74.292 72.7762 74.496 72.5202 74.648C72.2642 74.8 71.9722 74.876 71.6442 74.876ZM71.6442 73.856C71.8442 73.856 72.0042 73.792 72.1242 73.664C72.2442 73.536 72.3042 73.372 72.3042 73.172C72.3042 72.972 72.2402 72.812 72.1122 72.692C71.9922 72.564 71.8362 72.5 71.6442 72.5C71.4522 72.5 71.2962 72.564 71.1762 72.692C71.0562 72.812 70.9962 72.972 70.9962 73.172C70.9962 73.372 71.0562 73.536 71.1762 73.664C71.2962 73.792 71.4522 73.856 71.6442 73.856ZM75.1602 80.12C74.8482 80.12 74.5602 80.044 74.2962 79.892C74.0402 79.74 73.8362 79.536 73.6842 79.28C73.5322 79.024 73.4562 78.736 73.4562 78.416C73.4562 78.096 73.5322 77.812 73.6842 77.564C73.8362 77.308 74.0402 77.104 74.2962 76.952C74.5522 76.8 74.8402 76.724 75.1602 76.724C75.4802 76.724 75.7682 76.8 76.0242 76.952C76.2882 77.104 76.4962 77.308 76.6482 77.564C76.8002 77.812 76.8762 78.096 76.8762 78.416C76.8762 78.736 76.8002 79.024 76.6482 79.28C76.4962 79.536 76.2922 79.74 76.0362 79.892C75.7802 80.044 75.4882 80.12 75.1602 80.12ZM75.1602 79.1C75.3602 79.1 75.5202 79.036 75.6402 78.908C75.7682 78.78 75.8322 78.616 75.8322 78.416C75.8322 78.224 75.7682 78.064 75.6402 77.936C75.5122 77.808 75.3522 77.744 75.1602 77.744C74.9682 77.744 74.8122 77.808 74.6922 77.936C74.5722 78.064 74.5122 78.224 74.5122 78.416C74.5122 78.616 74.5722 78.78 74.6922 78.908C74.8122 79.036 74.9682 79.1 75.1602 79.1ZM70.0602 80L75.4482 71.6H76.7562L71.3682 80H70.0602Z" fill="#010101"/>
<path d="M50.644 116L53.104 112.556L53.596 112.256C53.516 112.432 53.412 112.588 53.284 112.724C53.164 112.86 53.004 112.964 52.804 113.036C52.604 113.108 52.348 113.144 52.036 113.144C51.556 113.144 51.116 113.032 50.716 112.808C50.316 112.576 49.996 112.256 49.756 111.848C49.516 111.44 49.396 110.968 49.396 110.432C49.396 109.888 49.528 109.392 49.792 108.944C50.064 108.496 50.424 108.14 50.872 107.876C51.32 107.612 51.82 107.48 52.372 107.48C52.932 107.48 53.436 107.612 53.884 107.876C54.332 108.132 54.684 108.48 54.94 108.92C55.204 109.352 55.336 109.84 55.336 110.384C55.336 111.152 55.068 111.928 54.532 112.712L52.24 116H50.644ZM52.372 112.064C52.676 112.064 52.948 111.992 53.188 111.848C53.428 111.704 53.616 111.508 53.752 111.26C53.888 111.012 53.956 110.736 53.956 110.432C53.956 110.112 53.888 109.828 53.752 109.58C53.616 109.332 53.428 109.136 53.188 108.992C52.948 108.848 52.676 108.776 52.372 108.776C52.068 108.776 51.796 108.848 51.556 108.992C51.316 109.136 51.124 109.332 50.98 109.58C50.844 109.828 50.776 110.112 50.776 110.432C50.776 110.744 50.844 111.024 50.98 111.272C51.124 111.512 51.316 111.704 51.556 111.848C51.804 111.992 52.076 112.064 52.372 112.064ZM59.8423 116.12C59.2103 116.12 58.6303 115.944 58.1023 115.592C57.5823 115.232 57.1663 114.728 56.8543 114.08C56.5423 113.432 56.3863 112.668 56.3863 111.788C56.3863 110.908 56.5383 110.148 56.8423 109.508C57.1543 108.86 57.5703 108.36 58.0903 108.008C58.6103 107.656 59.1863 107.48 59.8183 107.48C60.4583 107.48 61.0383 107.656 61.5583 108.008C62.0783 108.36 62.4903 108.86 62.7943 109.508C63.1063 110.148 63.2623 110.912 63.2623 111.8C63.2623 112.68 63.1063 113.444 62.7943 114.092C62.4903 114.74 62.0783 115.24 61.5583 115.592C61.0463 115.944 60.4743 116.12 59.8423 116.12ZM59.8183 114.824C60.2343 114.824 60.5943 114.712 60.8983 114.488C61.2023 114.264 61.4383 113.928 61.6063 113.48C61.7823 113.032 61.8703 112.468 61.8703 111.788C61.8703 111.116 61.7823 110.556 61.6063 110.108C61.4383 109.66 61.1983 109.328 60.8863 109.112C60.5823 108.888 60.2263 108.776 59.8183 108.776C59.4103 108.776 59.0503 108.888 58.7383 109.112C58.4343 109.328 58.1983 109.66 58.0303 110.108C57.8623 110.548 57.7783 111.108 57.7783 111.788C57.7783 112.468 57.8623 113.032 58.0303 113.48C58.1983 113.928 58.4343 114.264 58.7383 114.488C59.0503 114.712 59.4103 114.824 59.8183 114.824ZM66.0976 110.876C65.7856 110.876 65.4976 110.8 65.2336 110.648C64.9776 110.496 64.7736 110.292 64.6216 110.036C64.4696 109.78 64.3936 109.492 64.3936 109.172C64.3936 108.852 64.4696 108.568 64.6216 108.32C64.7736 108.064 64.9776 107.86 65.2336 107.708C65.4896 107.556 65.7776 107.48 66.0976 107.48C66.4176 107.48 66.7056 107.556 66.9616 107.708C67.2256 107.86 67.4336 108.064 67.5856 108.32C67.7376 108.568 67.8136 108.852 67.8136 109.172C67.8136 109.492 67.7376 109.78 67.5856 110.036C67.4336 110.292 67.2296 110.496 66.9736 110.648C66.7176 110.8 66.4256 110.876 66.0976 110.876ZM66.0976 109.856C66.2976 109.856 66.4576 109.792 66.5776 109.664C66.6976 109.536 66.7576 109.372 66.7576 109.172C66.7576 108.972 66.6936 108.812 66.5656 108.692C66.4456 108.564 66.2896 108.5 66.0976 108.5C65.9056 108.5 65.7496 108.564 65.6296 108.692C65.5096 108.812 65.4496 108.972 65.4496 109.172C65.4496 109.372 65.5096 109.536 65.6296 109.664C65.7496 109.792 65.9056 109.856 66.0976 109.856ZM69.6136 116.12C69.3016 116.12 69.0136 116.044 68.7496 115.892C68.4936 115.74 68.2896 115.536 68.1376 115.28C67.9856 115.024 67.9096 114.736 67.9096 114.416C67.9096 114.096 67.9856 113.812 68.1376 113.564C68.2896 113.308 68.4936 113.104 68.7496 112.952C69.0056 112.8 69.2936 112.724 69.6136 112.724C69.9336 112.724 70.2216 112.8 70.4776 112.952C70.7416 113.104 70.9496 113.308 71.1016 113.564C71.2536 113.812 71.3296 114.096 71.3296 114.416C71.3296 114.736 71.2536 115.024 71.1016 115.28C70.9496 115.536 70.7456 115.74 70.4896 115.892C70.2336 116.044 69.9416 116.12 69.6136 116.12ZM69.6136 115.1C69.8136 115.1 69.9736 115.036 70.0936 114.908C70.2216 114.78 70.2856 114.616 70.2856 114.416C70.2856 114.224 70.2216 114.064 70.0936 113.936C69.9656 113.808 69.8056 113.744 69.6136 113.744C69.4216 113.744 69.2656 113.808 69.1456 113.936C69.0256 114.064 68.9656 114.224 68.9656 114.416C68.9656 114.616 69.0256 114.78 69.1456 114.908C69.2656 115.036 69.4216 115.1 69.6136 115.1ZM64.5136 116L69.9016 107.6H71.2096L65.8216 116H64.5136Z" fill="#010101"/>
<path d="M52.288 152.12C51.712 152.12 51.212 152.016 50.788 151.808C50.364 151.6 50.032 151.312 49.792 150.944C49.56 150.568 49.444 150.144 49.444 149.672C49.444 149.296 49.516 148.952 49.66 148.64C49.812 148.32 50.028 148.048 50.308 147.824C50.596 147.6 50.936 147.44 51.328 147.344L51.292 147.728C50.972 147.64 50.7 147.496 50.476 147.296C50.26 147.096 50.096 146.86 49.984 146.588C49.872 146.316 49.816 146.032 49.816 145.736C49.816 145.288 49.92 144.896 50.128 144.56C50.344 144.216 50.64 143.948 51.016 143.756C51.392 143.564 51.816 143.468 52.288 143.468C52.768 143.468 53.192 143.564 53.56 143.756C53.936 143.948 54.228 144.216 54.436 144.56C54.652 144.896 54.76 145.288 54.76 145.736C54.76 146.032 54.704 146.316 54.592 146.588C54.48 146.86 54.316 147.096 54.1 147.296C53.884 147.496 53.612 147.64 53.284 147.728L53.248 147.344C53.648 147.44 53.988 147.6 54.268 147.824C54.548 148.048 54.76 148.32 54.904 148.64C55.056 148.952 55.132 149.296 55.132 149.672C55.132 150.144 55.016 150.568 54.784 150.944C54.552 151.312 54.22 151.6 53.788 151.808C53.364 152.016 52.864 152.12 52.288 152.12ZM52.288 150.872C52.584 150.872 52.844 150.812 53.068 150.692C53.3 150.572 53.48 150.408 53.608 150.2C53.744 149.992 53.812 149.756 53.812 149.492C53.812 149.22 53.744 148.984 53.608 148.784C53.48 148.576 53.3 148.412 53.068 148.292C52.844 148.172 52.584 148.112 52.288 148.112C51.992 148.112 51.728 148.172 51.496 148.292C51.272 148.412 51.092 148.576 50.956 148.784C50.828 148.984 50.764 149.22 50.764 149.492C50.764 149.756 50.828 149.992 50.956 150.2C51.092 150.408 51.272 150.572 51.496 150.692C51.728 150.812 51.992 150.872 52.288 150.872ZM52.288 147.032C52.64 147.032 52.928 146.92 53.152 146.696C53.376 146.472 53.488 146.184 53.488 145.832C53.488 145.48 53.376 145.196 53.152 144.98C52.928 144.756 52.64 144.644 52.288 144.644C51.944 144.644 51.656 144.756 51.424 144.98C51.2 145.196 51.088 145.48 51.088 145.832C51.088 146.184 51.2 146.472 51.424 146.696C51.656 146.92 51.944 147.032 52.288 147.032ZM59.6782 152.12C59.0462 152.12 58.4662 151.944 57.9382 151.592C57.4182 151.232 57.0022 150.728 56.6902 150.08C56.3782 149.432 56.2222 148.668 56.2222 147.788C56.2222 146.908 56.3742 146.148 56.6782 145.508C56.9902 144.86 57.4062 144.36 57.9262 144.008C58.4462 143.656 59.0222 143.48 59.6542 143.48C60.2942 143.48 60.8742 143.656 61.3942 144.008C61.9142 144.36 62.3262 144.86 62.6302 145.508C62.9422 146.148 63.0982 146.912 63.0982 147.8C63.0982 148.68 62.9422 149.444 62.6302 150.092C62.3262 150.74 61.9142 151.24 61.3942 151.592C60.8822 151.944 60.3102 152.12 59.6782 152.12ZM59.6542 150.824C60.0702 150.824 60.4302 150.712 60.7342 150.488C61.0382 150.264 61.2742 149.928 61.4422 149.48C61.6182 149.032 61.7062 148.468 61.7062 147.788C61.7062 147.116 61.6182 146.556 61.4422 146.108C61.2742 145.66 61.0342 145.328 60.7222 145.112C60.4182 144.888 60.0622 144.776 59.6542 144.776C59.2462 144.776 58.8862 144.888 58.5742 145.112C58.2702 145.328 58.0342 145.66 57.8662 146.108C57.6982 146.548 57.6142 147.108 57.6142 147.788C57.6142 148.468 57.6982 149.032 57.8662 149.48C58.0342 149.928 58.2702 150.264 58.5742 150.488C58.8862 150.712 59.2462 150.824 59.6542 150.824ZM65.9335 146.876C65.6215 146.876 65.3335 146.8 65.0695 146.648C64.8135 146.496 64.6095 146.292 64.4575 146.036C64.3055 145.78 64.2295 145.492 64.2295 145.172C64.2295 144.852 64.3055 144.568 64.4575 144.32C64.6095 144.064 64.8135 143.86 65.0695 143.708C65.3255 143.556 65.6135 143.48 65.9335 143.48C66.2535 143.48 66.5415 143.556 66.7975 143.708C67.0615 143.86 67.2695 144.064 67.4215 144.32C67.5735 144.568 67.6495 144.852 67.6495 145.172C67.6495 145.492 67.5735 145.78 67.4215 146.036C67.2695 146.292 67.0655 146.496 66.8095 146.648C66.5535 146.8 66.2615 146.876 65.9335 146.876ZM65.9335 145.856C66.1335 145.856 66.2935 145.792 66.4135 145.664C66.5335 145.536 66.5935 145.372 66.5935 145.172C66.5935 144.972 66.5295 144.812 66.4015 144.692C66.2815 144.564 66.1255 144.5 65.9335 144.5C65.7415 144.5 65.5855 144.564 65.4655 144.692C65.3455 144.812 65.2855 144.972 65.2855 145.172C65.2855 145.372 65.3455 145.536 65.4655 145.664C65.5855 145.792 65.7415 145.856 65.9335 145.856ZM69.4495 152.12C69.1375 152.12 68.8495 152.044 68.5855 151.892C68.3295 151.74 68.1255 151.536 67.9735 151.28C67.8215 151.024 67.7455 150.736 67.7455 150.416C67.7455 150.096 67.8215 149.812 67.9735 149.564C68.1255 149.308 68.3295 149.104 68.5855 148.952C68.8415 148.8 69.1295 148.724 69.4495 148.724C69.7695 148.724 70.0575 148.8 70.3135 148.952C70.5775 149.104 70.7855 149.308 70.9375 149.564C71.0895 149.812 71.1655 150.096 71.1655 150.416C71.1655 150.736 71.0895 151.024 70.9375 151.28C70.7855 151.536 70.5815 151.74 70.3255 151.892C70.0695 152.044 69.7775 152.12 69.4495 152.12ZM69.4495 151.1C69.6495 151.1 69.8095 151.036 69.9295 150.908C70.0575 150.78 70.1215 150.616 70.1215 150.416C70.1215 150.224 70.0575 150.064 69.9295 149.936C69.8015 149.808 69.6415 149.744 69.4495 149.744C69.2575 149.744 69.1015 149.808 68.9815 149.936C68.8615 150.064 68.8015 150.224 68.8015 150.416C68.8015 150.616 68.8615 150.78 68.9815 150.908C69.1015 151.036 69.2575 151.1 69.4495 151.1ZM64.3495 152L69.7375 143.6H71.0455L65.6575 152H64.3495Z" fill="#010101"/>
<path d="M50.512 188L53.572 180.44H54.94L51.952 188H50.512ZM49.312 180.836V179.6H54.94V180.44L54.352 180.836H49.312ZM59.186 188.12C58.554 188.12 57.974 187.944 57.446 187.592C56.926 187.232 56.51 186.728 56.198 186.08C55.886 185.432 55.73 184.668 55.73 183.788C55.73 182.908 55.882 182.148 56.186 181.508C56.498 180.86 56.914 180.36 57.434 180.008C57.954 179.656 58.53 179.48 59.162 179.48C59.802 179.48 60.382 179.656 60.902 180.008C61.422 180.36 61.834 180.86 62.138 181.508C62.45 182.148 62.606 182.912 62.606 183.8C62.606 184.68 62.45 185.444 62.138 186.092C61.834 186.74 61.422 187.24 60.902 187.592C60.39 187.944 59.818 188.12 59.186 188.12ZM59.162 186.824C59.578 186.824 59.938 186.712 60.242 186.488C60.546 186.264 60.782 185.928 60.95 185.48C61.126 185.032 61.214 184.468 61.214 183.788C61.214 183.116 61.126 182.556 60.95 182.108C60.782 181.66 60.542 181.328 60.23 181.112C59.926 180.888 59.57 180.776 59.162 180.776C58.754 180.776 58.394 180.888 58.082 181.112C57.778 181.328 57.542 181.66 57.374 182.108C57.206 182.548 57.122 183.108 57.122 183.788C57.122 184.468 57.206 185.032 57.374 185.48C57.542 185.928 57.778 186.264 58.082 186.488C58.394 186.712 58.754 186.824 59.162 186.824ZM65.4413 182.876C65.1293 182.876 64.8413 182.8 64.5773 182.648C64.3213 182.496 64.1173 182.292 63.9653 182.036C63.8133 181.78 63.7373 181.492 63.7373 181.172C63.7373 180.852 63.8133 180.568 63.9653 180.32C64.1173 180.064 64.3213 179.86 64.5773 179.708C64.8333 179.556 65.1213 179.48 65.4413 179.48C65.7613 179.48 66.0493 179.556 66.3053 179.708C66.5693 179.86 66.7773 180.064 66.9293 180.32C67.0813 180.568 67.1573 180.852 67.1573 181.172C67.1573 181.492 67.0813 181.78 66.9293 182.036C66.7773 182.292 66.5733 182.496 66.3173 182.648C66.0613 182.8 65.7693 182.876 65.4413 182.876ZM65.4413 181.856C65.6413 181.856 65.8013 181.792 65.9213 181.664C66.0413 181.536 66.1013 181.372 66.1013 181.172C66.1013 180.972 66.0373 180.812 65.9093 180.692C65.7893 180.564 65.6333 180.5 65.4413 180.5C65.2493 180.5 65.0933 180.564 64.9733 180.692C64.8533 180.812 64.7933 180.972 64.7933 181.172C64.7933 181.372 64.8533 181.536 64.9733 181.664C65.0933 181.792 65.2493 181.856 65.4413 181.856ZM68.9573 188.12C68.6453 188.12 68.3573 188.044 68.0933 187.892C67.8373 187.74 67.6333 187.536 67.4813 187.28C67.3293 187.024 67.2533 186.736 67.2533 186.416C67.2533 186.096 67.3293 185.812 67.4813 185.564C67.6333 185.308 67.8373 185.104 68.0933 184.952C68.3493 184.8 68.6373 184.724 68.9573 184.724C69.2773 184.724 69.5653 184.8 69.8213 184.952C70.0853 185.104 70.2933 185.308 70.4453 185.564C70.5973 185.812 70.6733 186.096 70.6733 186.416C70.6733 186.736 70.5973 187.024 70.4453 187.28C70.2933 187.536 70.0893 187.74 69.8333 187.892C69.5773 188.044 69.2853 188.12 68.9573 188.12ZM68.9573 187.1C69.1573 187.1 69.3173 187.036 69.4373 186.908C69.5653 186.78 69.6293 186.616 69.6293 186.416C69.6293 186.224 69.5653 186.064 69.4373 185.936C69.3093 185.808 69.1493 185.744 68.9573 185.744C68.7653 185.744 68.6093 185.808 68.4893 185.936C68.3693 186.064 68.3093 186.224 68.3093 186.416C68.3093 186.616 68.3693 186.78 68.4893 186.908C68.6093 187.036 68.7653 187.1 68.9573 187.1ZM63.8573 188L69.2453 179.6H70.5533L65.1653 188H63.8573Z" fill="#010101"/>
<path d="M52.372 224.12C51.812 224.12 51.308 223.992 50.86 223.736C50.412 223.472 50.056 223.12 49.792 222.68C49.536 222.24 49.408 221.752 49.408 221.216C49.408 220.448 49.676 219.672 50.212 218.888L52.504 215.6H54.1L51.652 219.044L51.148 219.344C51.228 219.16 51.328 219.004 51.448 218.876C51.576 218.74 51.74 218.636 51.94 218.564C52.148 218.492 52.404 218.456 52.708 218.456C53.196 218.456 53.636 218.572 54.028 218.804C54.428 219.028 54.748 219.344 54.988 219.752C55.228 220.152 55.348 220.624 55.348 221.168C55.348 221.712 55.216 222.208 54.952 222.656C54.688 223.104 54.328 223.46 53.872 223.724C53.424 223.988 52.924 224.12 52.372 224.12ZM52.372 222.824C52.676 222.824 52.948 222.752 53.188 222.608C53.428 222.464 53.616 222.268 53.752 222.02C53.896 221.764 53.968 221.48 53.968 221.168C53.968 220.856 53.896 220.576 53.752 220.328C53.616 220.08 53.428 219.888 53.188 219.752C52.948 219.608 52.676 219.536 52.372 219.536C52.068 219.536 51.796 219.608 51.556 219.752C51.316 219.896 51.128 220.092 50.992 220.34C50.856 220.58 50.788 220.856 50.788 221.168C50.788 221.48 50.856 221.764 50.992 222.02C51.128 222.268 51.316 222.464 51.556 222.608C51.796 222.752 52.068 222.824 52.372 222.824ZM59.8423 224.12C59.2103 224.12 58.6303 223.944 58.1023 223.592C57.5823 223.232 57.1663 222.728 56.8543 222.08C56.5423 221.432 56.3863 220.668 56.3863 219.788C56.3863 218.908 56.5383 218.148 56.8423 217.508C57.1543 216.86 57.5703 216.36 58.0903 216.008C58.6103 215.656 59.1863 215.48 59.8183 215.48C60.4583 215.48 61.0383 215.656 61.5583 216.008C62.0783 216.36 62.4903 216.86 62.7943 217.508C63.1063 218.148 63.2623 218.912 63.2623 219.8C63.2623 220.68 63.1063 221.444 62.7943 222.092C62.4903 222.74 62.0783 223.24 61.5583 223.592C61.0463 223.944 60.4743 224.12 59.8423 224.12ZM59.8183 222.824C60.2343 222.824 60.5943 222.712 60.8983 222.488C61.2023 222.264 61.4383 221.928 61.6063 221.48C61.7823 221.032 61.8703 220.468 61.8703 219.788C61.8703 219.116 61.7823 218.556 61.6063 218.108C61.4383 217.66 61.1983 217.328 60.8863 217.112C60.5823 216.888 60.2263 216.776 59.8183 216.776C59.4103 216.776 59.0503 216.888 58.7383 217.112C58.4343 217.328 58.1983 217.66 58.0303 218.108C57.8623 218.548 57.7783 219.108 57.7783 219.788C57.7783 220.468 57.8623 221.032 58.0303 221.48C58.1983 221.928 58.4343 222.264 58.7383 222.488C59.0503 222.712 59.4103 222.824 59.8183 222.824ZM66.0976 218.876C65.7856 218.876 65.4976 218.8 65.2336 218.648C64.9776 218.496 64.7736 218.292 64.6216 218.036C64.4696 217.78 64.3936 217.492 64.3936 217.172C64.3936 216.852 64.4696 216.568 64.6216 216.32C64.7736 216.064 64.9776 215.86 65.2336 215.708C65.4896 215.556 65.7776 215.48 66.0976 215.48C66.4176 215.48 66.7056 215.556 66.9616 215.708C67.2256 215.86 67.4336 216.064 67.5856 216.32C67.7376 216.568 67.8136 216.852 67.8136 217.172C67.8136 217.492 67.7376 217.78 67.5856 218.036C67.4336 218.292 67.2296 218.496 66.9736 218.648C66.7176 218.8 66.4256 218.876 66.0976 218.876ZM66.0976 217.856C66.2976 217.856 66.4576 217.792 66.5776 217.664C66.6976 217.536 66.7576 217.372 66.7576 217.172C66.7576 216.972 66.6936 216.812 66.5656 216.692C66.4456 216.564 66.2896 216.5 66.0976 216.5C65.9056 216.5 65.7496 216.564 65.6296 216.692C65.5096 216.812 65.4496 216.972 65.4496 217.172C65.4496 217.372 65.5096 217.536 65.6296 217.664C65.7496 217.792 65.9056 217.856 66.0976 217.856ZM69.6136 224.12C69.3016 224.12 69.0136 224.044 68.7496 223.892C68.4936 223.74 68.2896 223.536 68.1376 223.28C67.9856 223.024 67.9096 222.736 67.9096 222.416C67.9096 222.096 67.9856 221.812 68.1376 221.564C68.2896 221.308 68.4936 221.104 68.7496 220.952C69.0056 220.8 69.2936 220.724 69.6136 220.724C69.9336 220.724 70.2216 220.8 70.4776 220.952C70.7416 221.104 70.9496 221.308 71.1016 221.564C71.2536 221.812 71.3296 222.096 71.3296 222.416C71.3296 222.736 71.2536 223.024 71.1016 223.28C70.9496 223.536 70.7456 223.74 70.4896 223.892C70.2336 224.044 69.9416 224.12 69.6136 224.12ZM69.6136 223.1C69.8136 223.1 69.9736 223.036 70.0936 222.908C70.2216 222.78 70.2856 222.616 70.2856 222.416C70.2856 222.224 70.2216 222.064 70.0936 221.936C69.9656 221.808 69.8056 221.744 69.6136 221.744C69.4216 221.744 69.2656 221.808 69.1456 221.936C69.0256 222.064 68.9656 222.224 68.9656 222.416C68.9656 222.616 69.0256 222.78 69.1456 222.908C69.2656 223.036 69.4216 223.1 69.6136 223.1ZM64.5136 224L69.9016 215.6H71.2096L65.8216 224H64.5136Z" fill="#010101"/>
<path d="M51.964 260.12C51.38 260.12 50.86 260.02 50.404 259.82C49.948 259.612 49.564 259.312 49.252 258.92L50.188 257.984C50.356 258.24 50.592 258.444 50.896 258.596C51.208 258.748 51.556 258.824 51.94 258.824C52.292 258.824 52.6 258.76 52.864 258.632C53.128 258.504 53.336 258.32 53.488 258.08C53.64 257.84 53.716 257.556 53.716 257.228C53.716 256.884 53.64 256.6 53.488 256.376C53.344 256.144 53.148 255.972 52.9 255.86C52.66 255.74 52.4 255.68 52.12 255.68C51.8 255.68 51.512 255.716 51.256 255.788C51.008 255.86 50.764 255.988 50.524 256.172L50.56 255.308C50.688 255.14 50.836 255.004 51.004 254.9C51.172 254.788 51.368 254.704 51.592 254.648C51.816 254.592 52.08 254.564 52.384 254.564C52.976 254.564 53.472 254.688 53.872 254.936C54.28 255.184 54.588 255.516 54.796 255.932C55.004 256.34 55.108 256.796 55.108 257.3C55.108 257.844 54.972 258.328 54.7 258.752C54.436 259.176 54.068 259.512 53.596 259.76C53.124 260 52.58 260.12 51.964 260.12ZM50.524 256.172L49.768 255.416L50.14 251.6H51.4L50.968 255.572L50.524 256.172ZM50.38 252.836L50.14 251.6H54.64V252.836H50.38ZM59.6431 260.12C59.0111 260.12 58.4311 259.944 57.9031 259.592C57.3831 259.232 56.9671 258.728 56.6551 258.08C56.3431 257.432 56.1871 256.668 56.1871 255.788C56.1871 254.908 56.3391 254.148 56.6431 253.508C56.9551 252.86 57.3711 252.36 57.8911 252.008C58.4111 251.656 58.9871 251.48 59.6191 251.48C60.2591 251.48 60.8391 251.656 61.3591 252.008C61.8791 252.36 62.2911 252.86 62.5951 253.508C62.9071 254.148 63.0631 254.912 63.0631 255.8C63.0631 256.68 62.9071 257.444 62.5951 258.092C62.2911 258.74 61.8791 259.24 61.3591 259.592C60.8471 259.944 60.2751 260.12 59.6431 260.12ZM59.6191 258.824C60.0351 258.824 60.3951 258.712 60.6991 258.488C61.0031 258.264 61.2391 257.928 61.4071 257.48C61.5831 257.032 61.6711 256.468 61.6711 255.788C61.6711 255.116 61.5831 254.556 61.4071 254.108C61.2391 253.66 60.9991 253.328 60.6871 253.112C60.3831 252.888 60.0271 252.776 59.6191 252.776C59.2111 252.776 58.8511 252.888 58.5391 253.112C58.2351 253.328 57.9991 253.66 57.8311 254.108C57.6631 254.548 57.5791 255.108 57.5791 255.788C57.5791 256.468 57.6631 257.032 57.8311 257.48C57.9991 257.928 58.2351 258.264 58.5391 258.488C58.8511 258.712 59.2111 258.824 59.6191 258.824ZM65.8983 254.876C65.5863 254.876 65.2983 254.8 65.0343 254.648C64.7783 254.496 64.5743 254.292 64.4223 254.036C64.2703 253.78 64.1943 253.492 64.1943 253.172C64.1943 252.852 64.2703 252.568 64.4223 252.32C64.5743 252.064 64.7783 251.86 65.0343 251.708C65.2903 251.556 65.5783 251.48 65.8983 251.48C66.2183 251.48 66.5063 251.556 66.7623 251.708C67.0263 251.86 67.2343 252.064 67.3863 252.32C67.5383 252.568 67.6143 252.852 67.6143 253.172C67.6143 253.492 67.5383 253.78 67.3863 254.036C67.2343 254.292 67.0303 254.496 66.7743 254.648C66.5183 254.8 66.2263 254.876 65.8983 254.876ZM65.8983 253.856C66.0983 253.856 66.2583 253.792 66.3783 253.664C66.4983 253.536 66.5583 253.372 66.5583 253.172C66.5583 252.972 66.4943 252.812 66.3663 252.692C66.2463 252.564 66.0903 252.5 65.8983 252.5C65.7063 252.5 65.5503 252.564 65.4303 252.692C65.3103 252.812 65.2503 252.972 65.2503 253.172C65.2503 253.372 65.3103 253.536 65.4303 253.664C65.5503 253.792 65.7063 253.856 65.8983 253.856ZM69.4143 260.12C69.1023 260.12 68.8143 260.044 68.5503 259.892C68.2943 259.74 68.0903 259.536 67.9383 259.28C67.7863 259.024 67.7103 258.736 67.7103 258.416C67.7103 258.096 67.7863 257.812 67.9383 257.564C68.0903 257.308 68.2943 257.104 68.5503 256.952C68.8063 256.8 69.0943 256.724 69.4143 256.724C69.7343 256.724 70.0223 256.8 70.2783 256.952C70.5423 257.104 70.7503 257.308 70.9023 257.564C71.0543 257.812 71.1303 258.096 71.1303 258.416C71.1303 258.736 71.0543 259.024 70.9023 259.28C70.7503 259.536 70.5463 259.74 70.2903 259.892C70.0343 260.044 69.7423 260.12 69.4143 260.12ZM69.4143 259.1C69.6143 259.1 69.7743 259.036 69.8943 258.908C70.0223 258.78 70.0863 258.616 70.0863 258.416C70.0863 258.224 70.0223 258.064 69.8943 257.936C69.7663 257.808 69.6063 257.744 69.4143 257.744C69.2223 257.744 69.0663 257.808 68.9463 257.936C68.8263 258.064 68.7663 258.224 68.7663 258.416C68.7663 258.616 68.8263 258.78 68.9463 258.908C69.0663 259.036 69.2223 259.1 69.4143 259.1ZM64.3143 260L69.7023 251.6H71.0103L65.6223 260H64.3143Z" fill="#010101"/>
<path d="M49.336 293L52.324 287.6H53.884L50.824 293H49.336ZM49.336 293.84V293L49.924 292.604H55.852V293.84H49.336ZM53.32 296V290.504H54.676V296H53.32ZM60.2876 296.12C59.6556 296.12 59.0756 295.944 58.5476 295.592C58.0276 295.232 57.6116 294.728 57.2996 294.08C56.9876 293.432 56.8316 292.668 56.8316 291.788C56.8316 290.908 56.9836 290.148 57.2876 289.508C57.5996 288.86 58.0156 288.36 58.5356 288.008C59.0556 287.656 59.6316 287.48 60.2636 287.48C60.9036 287.48 61.4836 287.656 62.0036 288.008C62.5236 288.36 62.9356 288.86 63.2396 289.508C63.5516 290.148 63.7076 290.912 63.7076 291.8C63.7076 292.68 63.5516 293.444 63.2396 294.092C62.9356 294.74 62.5236 295.24 62.0036 295.592C61.4916 295.944 60.9196 296.12 60.2876 296.12ZM60.2636 294.824C60.6796 294.824 61.0396 294.712 61.3436 294.488C61.6476 294.264 61.8836 293.928 62.0516 293.48C62.2276 293.032 62.3156 292.468 62.3156 291.788C62.3156 291.116 62.2276 290.556 62.0516 290.108C61.8836 289.66 61.6436 289.328 61.3316 289.112C61.0276 288.888 60.6716 288.776 60.2636 288.776C59.8556 288.776 59.4956 288.888 59.1836 289.112C58.8796 289.328 58.6436 289.66 58.4756 290.108C58.3076 290.548 58.2236 291.108 58.2236 291.788C58.2236 292.468 58.3076 293.032 58.4756 293.48C58.6436 293.928 58.8796 294.264 59.1836 294.488C59.4956 294.712 59.8556 294.824 60.2636 294.824ZM66.5429 290.876C66.2309 290.876 65.9429 290.8 65.6789 290.648C65.4229 290.496 65.2189 290.292 65.0669 290.036C64.9149 289.78 64.8389 289.492 64.8389 289.172C64.8389 288.852 64.9149 288.568 65.0669 288.32C65.2189 288.064 65.4229 287.86 65.6789 287.708C65.9349 287.556 66.2229 287.48 66.5429 287.48C66.8629 287.48 67.1509 287.556 67.4069 287.708C67.6709 287.86 67.8789 288.064 68.0309 288.32C68.1829 288.568 68.2589 288.852 68.2589 289.172C68.2589 289.492 68.1829 289.78 68.0309 290.036C67.8789 290.292 67.6749 290.496 67.4189 290.648C67.1629 290.8 66.8709 290.876 66.5429 290.876ZM66.5429 289.856C66.7429 289.856 66.9029 289.792 67.0229 289.664C67.1429 289.536 67.2029 289.372 67.2029 289.172C67.2029 288.972 67.1389 288.812 67.0109 288.692C66.8909 288.564 66.7349 288.5 66.5429 288.5C66.3509 288.5 66.1949 288.564 66.0749 288.692C65.9549 288.812 65.8949 288.972 65.8949 289.172C65.8949 289.372 65.9549 289.536 66.0749 289.664C66.1949 289.792 66.3509 289.856 66.5429 289.856ZM70.0589 296.12C69.7469 296.12 69.4589 296.044 69.1949 295.892C68.9389 295.74 68.7349 295.536 68.5829 295.28C68.4309 295.024 68.3549 294.736 68.3549 294.416C68.3549 294.096 68.4309 293.812 68.5829 293.564C68.7349 293.308 68.9389 293.104 69.1949 292.952C69.4509 292.8 69.7389 292.724 70.0589 292.724C70.3789 292.724 70.6669 292.8 70.9229 292.952C71.1869 293.104 71.3949 293.308 71.5469 293.564C71.6989 293.812 71.7749 294.096 71.7749 294.416C71.7749 294.736 71.6989 295.024 71.5469 295.28C71.3949 295.536 71.1909 295.74 70.9349 295.892C70.6789 296.044 70.3869 296.12 70.0589 296.12ZM70.0589 295.1C70.2589 295.1 70.4189 295.036 70.5389 294.908C70.6669 294.78 70.7309 294.616 70.7309 294.416C70.7309 294.224 70.6669 294.064 70.5389 293.936C70.4109 293.808 70.2509 293.744 70.0589 293.744C69.8669 293.744 69.7109 293.808 69.5909 293.936C69.4709 294.064 69.4109 294.224 69.4109 294.416C69.4109 294.616 69.4709 294.78 69.5909 294.908C69.7109 295.036 69.8669 295.1 70.0589 295.1ZM64.9589 296L70.3469 287.6H71.6549L66.2669 296H64.9589Z" fill="#010101"/>
<path d="M51.952 332.12C51.392 332.12 50.884 332.02 50.428 331.82C49.98 331.612 49.6 331.312 49.288 330.92L50.224 329.984C50.392 330.24 50.628 330.444 50.932 330.596C51.236 330.748 51.568 330.824 51.928 330.824C52.272 330.824 52.568 330.76 52.816 330.632C53.064 330.504 53.256 330.324 53.392 330.092C53.536 329.86 53.608 329.592 53.608 329.288C53.608 328.968 53.536 328.696 53.392 328.472C53.256 328.248 53.056 328.076 52.792 327.956C52.536 327.828 52.224 327.764 51.856 327.764C51.712 327.764 51.564 327.776 51.412 327.8C51.26 327.816 51.124 327.844 51.004 327.884L51.616 327.092C51.784 327.028 51.96 326.976 52.144 326.936C52.336 326.888 52.52 326.864 52.696 326.864C53.128 326.864 53.516 326.968 53.86 327.176C54.212 327.384 54.488 327.676 54.688 328.052C54.896 328.42 55 328.856 55 329.36C55 329.904 54.872 330.384 54.616 330.8C54.36 331.216 54.004 331.54 53.548 331.772C53.092 332.004 52.56 332.12 51.952 332.12ZM51.004 327.884V327.068L53.248 324.452L54.904 324.416L52.564 327.104L51.004 327.884ZM49.708 324.836V323.6H54.904V324.416L53.716 324.836H49.708ZM59.5845 332.12C58.9525 332.12 58.3725 331.944 57.8445 331.592C57.3245 331.232 56.9085 330.728 56.5965 330.08C56.2845 329.432 56.1285 328.668 56.1285 327.788C56.1285 326.908 56.2805 326.148 56.5845 325.508C56.8965 324.86 57.3125 324.36 57.8325 324.008C58.3525 323.656 58.9285 323.48 59.5605 323.48C60.2005 323.48 60.7805 323.656 61.3005 324.008C61.8205 324.36 62.2325 324.86 62.5365 325.508C62.8485 326.148 63.0045 326.912 63.0045 327.8C63.0045 328.68 62.8485 329.444 62.5365 330.092C62.2325 330.74 61.8205 331.24 61.3005 331.592C60.7885 331.944 60.2165 332.12 59.5845 332.12ZM59.5605 330.824C59.9765 330.824 60.3365 330.712 60.6405 330.488C60.9445 330.264 61.1805 329.928 61.3485 329.48C61.5245 329.032 61.6125 328.468 61.6125 327.788C61.6125 327.116 61.5245 326.556 61.3485 326.108C61.1805 325.66 60.9405 325.328 60.6285 325.112C60.3245 324.888 59.9685 324.776 59.5605 324.776C59.1525 324.776 58.7925 324.888 58.4805 325.112C58.1765 325.328 57.9405 325.66 57.7725 326.108C57.6045 326.548 57.5205 327.108 57.5205 327.788C57.5205 328.468 57.6045 329.032 57.7725 329.48C57.9405 329.928 58.1765 330.264 58.4805 330.488C58.7925 330.712 59.1525 330.824 59.5605 330.824ZM65.8398 326.876C65.5278 326.876 65.2398 326.8 64.9758 326.648C64.7198 326.496 64.5158 326.292 64.3638 326.036C64.2118 325.78 64.1358 325.492 64.1358 325.172C64.1358 324.852 64.2118 324.568 64.3638 324.32C64.5158 324.064 64.7198 323.86 64.9758 323.708C65.2318 323.556 65.5198 323.48 65.8398 323.48C66.1598 323.48 66.4478 323.556 66.7038 323.708C66.9678 323.86 67.1758 324.064 67.3278 324.32C67.4798 324.568 67.5558 324.852 67.5558 325.172C67.5558 325.492 67.4798 325.78 67.3278 326.036C67.1758 326.292 66.9718 326.496 66.7158 326.648C66.4598 326.8 66.1678 326.876 65.8398 326.876ZM65.8398 325.856C66.0398 325.856 66.1998 325.792 66.3198 325.664C66.4398 325.536 66.4998 325.372 66.4998 325.172C66.4998 324.972 66.4358 324.812 66.3078 324.692C66.1878 324.564 66.0318 324.5 65.8398 324.5C65.6478 324.5 65.4918 324.564 65.3718 324.692C65.2518 324.812 65.1918 324.972 65.1918 325.172C65.1918 325.372 65.2518 325.536 65.3718 325.664C65.4918 325.792 65.6478 325.856 65.8398 325.856ZM69.3558 332.12C69.0438 332.12 68.7558 332.044 68.4918 331.892C68.2358 331.74 68.0318 331.536 67.8798 331.28C67.7278 331.024 67.6518 330.736 67.6518 330.416C67.6518 330.096 67.7278 329.812 67.8798 329.564C68.0318 329.308 68.2358 329.104 68.4918 328.952C68.7478 328.8 69.0358 328.724 69.3558 328.724C69.6758 328.724 69.9638 328.8 70.2198 328.952C70.4838 329.104 70.6918 329.308 70.8438 329.564C70.9958 329.812 71.0718 330.096 71.0718 330.416C71.0718 330.736 70.9958 331.024 70.8438 331.28C70.6918 331.536 70.4878 331.74 70.2318 331.892C69.9758 332.044 69.6838 332.12 69.3558 332.12ZM69.3558 331.1C69.5558 331.1 69.7158 331.036 69.8358 330.908C69.9638 330.78 70.0278 330.616 70.0278 330.416C70.0278 330.224 69.9638 330.064 69.8358 329.936C69.7078 329.808 69.5478 329.744 69.3558 329.744C69.1638 329.744 69.0078 329.808 68.8878 329.936C68.7678 330.064 68.7078 330.224 68.7078 330.416C68.7078 330.616 68.7678 330.78 68.8878 330.908C69.0078 331.036 69.1638 331.1 69.3558 331.1ZM64.2558 332L69.6438 323.6H70.9518L65.5638 332H64.2558Z" fill="#010101"/>
<path d="M49.336 367.184L52.432 363.896C52.688 363.624 52.896 363.38 53.056 363.164C53.216 362.948 53.332 362.744 53.404 362.552C53.476 362.36 53.512 362.164 53.512 361.964C53.512 361.588 53.388 361.296 53.14 361.088C52.9 360.872 52.592 360.764 52.216 360.764C51.816 360.764 51.464 360.864 51.16 361.064C50.856 361.264 50.584 361.576 50.344 362L49.384 361.208C49.712 360.64 50.116 360.212 50.596 359.924C51.076 359.628 51.632 359.48 52.264 359.48C52.784 359.48 53.24 359.584 53.632 359.792C54.024 360 54.328 360.292 54.544 360.668C54.76 361.036 54.868 361.464 54.868 361.952C54.868 362.304 54.824 362.62 54.736 362.9C54.656 363.172 54.516 363.448 54.316 363.728C54.116 364 53.84 364.32 53.488 364.688L51.112 367.148L49.336 367.184ZM49.336 368V367.184L50.524 366.764H55.036V368H49.336ZM59.5962 368.12C58.9642 368.12 58.3842 367.944 57.8562 367.592C57.3362 367.232 56.9202 366.728 56.6082 366.08C56.2962 365.432 56.1402 364.668 56.1402 363.788C56.1402 362.908 56.2922 362.148 56.5962 361.508C56.9082 360.86 57.3242 360.36 57.8442 360.008C58.3642 359.656 58.9402 359.48 59.5722 359.48C60.2122 359.48 60.7922 359.656 61.3122 360.008C61.8322 360.36 62.2442 360.86 62.5482 361.508C62.8602 362.148 63.0162 362.912 63.0162 363.8C63.0162 364.68 62.8602 365.444 62.5482 366.092C62.2442 366.74 61.8322 367.24 61.3122 367.592C60.8002 367.944 60.2282 368.12 59.5962 368.12ZM59.5722 366.824C59.9882 366.824 60.3482 366.712 60.6522 366.488C60.9562 366.264 61.1922 365.928 61.3602 365.48C61.5362 365.032 61.6242 364.468 61.6242 363.788C61.6242 363.116 61.5362 362.556 61.3602 362.108C61.1922 361.66 60.9522 361.328 60.6402 361.112C60.3362 360.888 59.9802 360.776 59.5722 360.776C59.1642 360.776 58.8042 360.888 58.4922 361.112C58.1882 361.328 57.9522 361.66 57.7842 362.108C57.6162 362.548 57.5322 363.108 57.5322 363.788C57.5322 364.468 57.6162 365.032 57.7842 365.48C57.9522 365.928 58.1882 366.264 58.4922 366.488C58.8042 366.712 59.1642 366.824 59.5722 366.824ZM65.8515 362.876C65.5395 362.876 65.2515 362.8 64.9875 362.648C64.7315 362.496 64.5275 362.292 64.3755 362.036C64.2235 361.78 64.1475 361.492 64.1475 361.172C64.1475 360.852 64.2235 360.568 64.3755 360.32C64.5275 360.064 64.7315 359.86 64.9875 359.708C65.2435 359.556 65.5315 359.48 65.8515 359.48C66.1715 359.48 66.4595 359.556 66.7155 359.708C66.9795 359.86 67.1875 360.064 67.3395 360.32C67.4915 360.568 67.5675 360.852 67.5675 361.172C67.5675 361.492 67.4915 361.78 67.3395 362.036C67.1875 362.292 66.9835 362.496 66.7275 362.648C66.4715 362.8 66.1795 362.876 65.8515 362.876ZM65.8515 361.856C66.0515 361.856 66.2115 361.792 66.3315 361.664C66.4515 361.536 66.5115 361.372 66.5115 361.172C66.5115 360.972 66.4475 360.812 66.3195 360.692C66.1995 360.564 66.0435 360.5 65.8515 360.5C65.6595 360.5 65.5035 360.564 65.3835 360.692C65.2635 360.812 65.2035 360.972 65.2035 361.172C65.2035 361.372 65.2635 361.536 65.3835 361.664C65.5035 361.792 65.6595 361.856 65.8515 361.856ZM69.3675 368.12C69.0555 368.12 68.7675 368.044 68.5035 367.892C68.2475 367.74 68.0435 367.536 67.8915 367.28C67.7395 367.024 67.6635 366.736 67.6635 366.416C67.6635 366.096 67.7395 365.812 67.8915 365.564C68.0435 365.308 68.2475 365.104 68.5035 364.952C68.7595 364.8 69.0475 364.724 69.3675 364.724C69.6875 364.724 69.9755 364.8 70.2315 364.952C70.4955 365.104 70.7035 365.308 70.8555 365.564C71.0075 365.812 71.0835 366.096 71.0835 366.416C71.0835 366.736 71.0075 367.024 70.8555 367.28C70.7035 367.536 70.4995 367.74 70.2435 367.892C69.9875 368.044 69.6955 368.12 69.3675 368.12ZM69.3675 367.1C69.5675 367.1 69.7275 367.036 69.8475 366.908C69.9755 366.78 70.0395 366.616 70.0395 366.416C70.0395 366.224 69.9755 366.064 69.8475 365.936C69.7195 365.808 69.5595 365.744 69.3675 365.744C69.1755 365.744 69.0195 365.808 68.8995 365.936C68.7795 366.064 68.7195 366.224 68.7195 366.416C68.7195 366.616 68.7795 366.78 68.8995 366.908C69.0195 367.036 69.1755 367.1 69.3675 367.1ZM64.2675 368L69.6555 359.6H70.9635L65.5755 368H64.2675Z" fill="#010101"/>
<path d="M50.992 404V395.6H52.348V404H50.992ZM49.312 396.836V395.6H52.228V396.836H49.312ZM57.3696 404.12C56.7376 404.12 56.1576 403.944 55.6296 403.592C55.1096 403.232 54.6936 402.728 54.3816 402.08C54.0696 401.432 53.9136 400.668 53.9136 399.788C53.9136 398.908 54.0656 398.148 54.3696 397.508C54.6816 396.86 55.0976 396.36 55.6176 396.008C56.1376 395.656 56.7136 395.48 57.3456 395.48C57.9856 395.48 58.5656 395.656 59.0856 396.008C59.6056 396.36 60.0176 396.86 60.3216 397.508C60.6336 398.148 60.7896 398.912 60.7896 399.8C60.7896 400.68 60.6336 401.444 60.3216 402.092C60.0176 402.74 59.6056 403.24 59.0856 403.592C58.5736 403.944 58.0016 404.12 57.3696 404.12ZM57.3456 402.824C57.7616 402.824 58.1216 402.712 58.4256 402.488C58.7296 402.264 58.9656 401.928 59.1336 401.48C59.3096 401.032 59.3976 400.468 59.3976 399.788C59.3976 399.116 59.3096 398.556 59.1336 398.108C58.9656 397.66 58.7256 397.328 58.4136 397.112C58.1096 396.888 57.7536 396.776 57.3456 396.776C56.9376 396.776 56.5776 396.888 56.2656 397.112C55.9616 397.328 55.7256 397.66 55.5576 398.108C55.3896 398.548 55.3056 399.108 55.3056 399.788C55.3056 400.468 55.3896 401.032 55.5576 401.48C55.7256 401.928 55.9616 402.264 56.2656 402.488C56.5776 402.712 56.9376 402.824 57.3456 402.824ZM63.6249 398.876C63.3129 398.876 63.0249 398.8 62.7609 398.648C62.5049 398.496 62.3009 398.292 62.1489 398.036C61.9969 397.78 61.9209 397.492 61.9209 397.172C61.9209 396.852 61.9969 396.568 62.1489 396.32C62.3009 396.064 62.5049 395.86 62.7609 395.708C63.0169 395.556 63.3049 395.48 63.6249 395.48C63.9449 395.48 64.2329 395.556 64.4889 395.708C64.7529 395.86 64.9609 396.064 65.1129 396.32C65.2649 396.568 65.3409 396.852 65.3409 397.172C65.3409 397.492 65.2649 397.78 65.1129 398.036C64.9609 398.292 64.7569 398.496 64.5009 398.648C64.2449 398.8 63.9529 398.876 63.6249 398.876ZM63.6249 397.856C63.8249 397.856 63.9849 397.792 64.1049 397.664C64.2249 397.536 64.2849 397.372 64.2849 397.172C64.2849 396.972 64.2209 396.812 64.0929 396.692C63.9729 396.564 63.8169 396.5 63.6249 396.5C63.4329 396.5 63.2769 396.564 63.1569 396.692C63.0369 396.812 62.9769 396.972 62.9769 397.172C62.9769 397.372 63.0369 397.536 63.1569 397.664C63.2769 397.792 63.4329 397.856 63.6249 397.856ZM67.1409 404.12C66.8289 404.12 66.5409 404.044 66.2769 403.892C66.0209 403.74 65.8169 403.536 65.6649 403.28C65.5129 403.024 65.4369 402.736 65.4369 402.416C65.4369 402.096 65.5129 401.812 65.6649 401.564C65.8169 401.308 66.0209 401.104 66.2769 400.952C66.5329 400.8 66.8209 400.724 67.1409 400.724C67.4609 400.724 67.7489 400.8 68.0049 400.952C68.2689 401.104 68.4769 401.308 68.6289 401.564C68.7809 401.812 68.8569 402.096 68.8569 402.416C68.8569 402.736 68.7809 403.024 68.6289 403.28C68.4769 403.536 68.2729 403.74 68.0169 403.892C67.7609 404.044 67.4689 404.12 67.1409 404.12ZM67.1409 403.1C67.3409 403.1 67.5009 403.036 67.6209 402.908C67.7489 402.78 67.8129 402.616 67.8129 402.416C67.8129 402.224 67.7489 402.064 67.6209 401.936C67.4929 401.808 67.3329 401.744 67.1409 401.744C66.9489 401.744 66.7929 401.808 66.6729 401.936C66.5529 402.064 66.4929 402.224 66.4929 402.416C66.4929 402.616 66.5529 402.78 66.6729 402.908C66.7929 403.036 66.9489 403.1 67.1409 403.1ZM62.0409 404L67.4289 395.6H68.7369L63.3489 404H62.0409Z" fill="#010101"/>
<path d="M52.948 440.12C52.316 440.12 51.736 439.944 51.208 439.592C50.688 439.232 50.272 438.728 49.96 438.08C49.648 437.432 49.492 436.668 49.492 435.788C49.492 434.908 49.644 434.148 49.948 433.508C50.26 432.86 50.676 432.36 51.196 432.008C51.716 431.656 52.292 431.48 52.924 431.48C53.564 431.48 54.144 431.656 54.664 432.008C55.184 432.36 55.596 432.86 55.9 433.508C56.212 434.148 56.368 434.912 56.368 435.8C56.368 436.68 56.212 437.444 55.9 438.092C55.596 438.74 55.184 439.24 54.664 439.592C54.152 439.944 53.58 440.12 52.948 440.12ZM52.924 438.824C53.34 438.824 53.7 438.712 54.004 438.488C54.308 438.264 54.544 437.928 54.712 437.48C54.888 437.032 54.976 436.468 54.976 435.788C54.976 435.116 54.888 434.556 54.712 434.108C54.544 433.66 54.304 433.328 53.992 433.112C53.688 432.888 53.332 432.776 52.924 432.776C52.516 432.776 52.156 432.888 51.844 433.112C51.54 433.328 51.304 433.66 51.136 434.108C50.968 434.548 50.884 435.108 50.884 435.788C50.884 436.468 50.968 437.032 51.136 437.48C51.304 437.928 51.54 438.264 51.844 438.488C52.156 438.712 52.516 438.824 52.924 438.824ZM59.2033 434.876C58.8913 434.876 58.6033 434.8 58.3393 434.648C58.0833 434.496 57.8793 434.292 57.7273 434.036C57.5753 433.78 57.4993 433.492 57.4993 433.172C57.4993 432.852 57.5753 432.568 57.7273 432.32C57.8793 432.064 58.0833 431.86 58.3393 431.708C58.5953 431.556 58.8833 431.48 59.2033 431.48C59.5233 431.48 59.8113 431.556 60.0673 431.708C60.3313 431.86 60.5393 432.064 60.6913 432.32C60.8433 432.568 60.9193 432.852 60.9193 433.172C60.9193 433.492 60.8433 433.78 60.6913 434.036C60.5393 434.292 60.3353 434.496 60.0793 434.648C59.8233 434.8 59.5313 434.876 59.2033 434.876ZM59.2033 433.856C59.4033 433.856 59.5633 433.792 59.6833 433.664C59.8033 433.536 59.8633 433.372 59.8633 433.172C59.8633 432.972 59.7993 432.812 59.6713 432.692C59.5513 432.564 59.3953 432.5 59.2033 432.5C59.0113 432.5 58.8553 432.564 58.7353 432.692C58.6153 432.812 58.5553 432.972 58.5553 433.172C58.5553 433.372 58.6153 433.536 58.7353 433.664C58.8553 433.792 59.0113 433.856 59.2033 433.856ZM62.7193 440.12C62.4073 440.12 62.1193 440.044 61.8553 439.892C61.5993 439.74 61.3953 439.536 61.2433 439.28C61.0913 439.024 61.0153 438.736 61.0153 438.416C61.0153 438.096 61.0913 437.812 61.2433 437.564C61.3953 437.308 61.5993 437.104 61.8553 436.952C62.1113 436.8 62.3993 436.724 62.7193 436.724C63.0393 436.724 63.3273 436.8 63.5833 436.952C63.8473 437.104 64.0553 437.308 64.2073 437.564C64.3593 437.812 64.4353 438.096 64.4353 438.416C64.4353 438.736 64.3593 439.024 64.2073 439.28C64.0553 439.536 63.8513 439.74 63.5953 439.892C63.3393 440.044 63.0473 440.12 62.7193 440.12ZM62.7193 439.1C62.9193 439.1 63.0793 439.036 63.1993 438.908C63.3273 438.78 63.3913 438.616 63.3913 438.416C63.3913 438.224 63.3273 438.064 63.1993 437.936C63.0713 437.808 62.9113 437.744 62.7193 437.744C62.5273 437.744 62.3713 437.808 62.2513 437.936C62.1313 438.064 62.0713 438.224 62.0713 438.416C62.0713 438.616 62.1313 438.78 62.2513 438.908C62.3713 439.036 62.5273 439.1 62.7193 439.1ZM57.6193 440L63.0073 431.6H64.3153L58.9273 440H57.6193Z" fill="#010101"/>
</svg>
