<svg width="13" height="13" viewBox="0 0 13 13" fill="none" xmlns="http://www.w3.org/2000/svg">
<path d="M11.4611 5.87938C12.2284 6.67395 12.2063 7.94008 11.4117 8.70738L7.81504 12.1807C7.02048 12.948 5.75434 12.9259 4.98705 12.1313L6.42572 10.742L10.7418 6.57404C11.139 6.19039 11.4611 5.87938 11.4611 5.87938ZM0.843777 6.40127L6.5985 0.844006L0.843777 6.40127ZM6.5985 0.844006L12.1558 6.59872L6.5985 0.844006ZM7.81504 12.1807C7.02048 12.948 5.75434 12.9259 4.98705 12.1313L1.51375 8.53461C0.746455 7.74005 0.768556 6.47391 1.56312 5.70661C1.56312 5.70661 1.87413 6.02867 2.25777 6.42595L6.42572 10.742L7.81504 12.1807Z" fill="#F18500"/>
</svg>
