<svg width="32" height="32" viewBox="0 0 32 32" fill="none" xmlns="http://www.w3.org/2000/svg">
<rect width="32" height="32" rx="12" fill="#000019"/>
<path fill-rule="evenodd" clip-rule="evenodd" d="M23.9283 7.36972C24.1742 7.26371 24.4434 7.22715 24.7078 7.26384C24.9722 7.30053 25.2221 7.40913 25.4316 7.57834C25.6411 7.74755 25.8025 7.97118 25.899 8.22595C25.9955 8.48073 26.0235 8.75733 25.9802 9.02698L23.7234 23.0484C23.5044 24.4009 22.0556 25.1765 20.8446 24.5028C19.8316 23.9392 18.327 23.0708 16.9737 22.1647C16.297 21.7112 14.2243 20.2588 14.479 19.2253C14.6979 18.3416 18.1807 15.021 20.1709 13.0468C20.952 12.2712 20.5958 11.8237 19.6734 12.5372C17.3817 14.3086 13.7048 17.0024 12.4888 17.7607C11.4161 18.4293 10.8569 18.5434 10.1882 18.4293C8.96823 18.2214 7.83682 17.8993 6.91338 17.5069C5.66554 16.9769 5.72624 15.2198 6.91238 14.7081L23.9283 7.36972Z" fill="#FFFFF0"/>
</svg>
