<svg width="32" height="32" viewBox="0 0 32 32" fill="none" xmlns="http://www.w3.org/2000/svg">
<rect width="32" height="32" rx="8" fill="#000019"/>
<path d="M26 10.2647C25.2639 10.5735 24.4704 10.7765 23.6482 10.8735C24.4895 10.4059 25.1396 9.66471 25.4455 8.77353C24.652 9.21471 23.7725 9.52353 22.8451 9.7C22.0899 8.94118 21.0287 8.5 19.8241 8.5C17.5774 8.5 15.7419 10.1941 15.7419 12.2853C15.7419 12.5853 15.7801 12.8765 15.847 13.15C12.4436 12.9912 9.413 11.4824 7.39579 9.19706C7.04207 9.75294 6.8413 10.4059 6.8413 11.0941C6.8413 12.4088 7.55832 13.5735 8.6673 14.2353C7.98853 14.2353 7.35755 14.0588 6.80306 13.7941V13.8206C6.80306 15.6559 8.21797 17.1912 10.0918 17.5353C9.49018 17.6872 8.8586 17.7084 8.24665 17.5971C8.50632 18.3492 9.01485 19.0074 9.70078 19.4791C10.3867 19.9507 11.2155 20.2121 12.0707 20.2265C10.6211 21.2857 8.82409 21.8582 6.97514 21.85C6.6501 21.85 6.32505 21.8324 6 21.7971C7.81644 22.8735 9.97706 23.5 12.2906 23.5C19.8241 23.5 23.9637 17.7294 23.9637 12.7265C23.9637 12.5588 23.9637 12.4 23.9541 12.2324C24.7572 11.7029 25.4455 11.0324 26 10.2647Z" fill="#FFFFF0"/>
</svg>
