<svg width="20" height="22" viewBox="0 0 20 22" fill="none" xmlns="http://www.w3.org/2000/svg">
<path d="M10 22C4.477 22 0 17.0753 0 11C0 4.9247 4.477 0 10 0C15.523 0 20 4.9247 20 11C20 17.0753 15.523 22 10 22ZM10 19.8C12.1217 19.8 14.1566 18.8729 15.6569 17.2225C17.1571 15.5722 18 13.3339 18 11C18 8.66609 17.1571 6.42778 15.6569 4.77746C14.1566 3.12714 12.1217 2.2 10 2.2C7.87827 2.2 5.84344 3.12714 4.34315 4.77746C2.84285 6.42778 2 8.66609 2 11C2 13.3339 2.84285 15.5722 4.34315 17.2225C5.84344 18.8729 7.87827 19.8 10 19.8ZM10 8.8C10.2652 8.8 10.5196 8.91589 10.7071 9.12218C10.8946 9.32847 11 9.60826 11 9.9V15.4C11 15.6917 10.8946 15.9715 10.7071 16.1778C10.5196 16.3841 10.2652 16.5 10 16.5C9.73478 16.5 9.48043 16.3841 9.29289 16.1778C9.10536 15.9715 9 15.6917 9 15.4V9.9C9 9.60826 9.10536 9.32847 9.29289 9.12218C9.48043 8.91589 9.73478 8.8 10 8.8ZM10 7.7C9.73478 7.7 9.48043 7.58411 9.29289 7.37782C9.10536 7.17153 9 6.89174 9 6.6C9 6.30826 9.10536 6.02847 9.29289 5.82218C9.48043 5.61589 9.73478 5.5 10 5.5C10.2652 5.5 10.5196 5.61589 10.7071 5.82218C10.8946 6.02847 11 6.30826 11 6.6C11 6.89174 10.8946 7.17153 10.7071 7.37782C10.5196 7.58411 10.2652 7.7 10 7.7Z" fill="#737373"/>
</svg>
